<svg width="128" height="59" viewBox="0 0 128 59" fill="none" xmlns="http://www.w3.org/2000/svg">
    <path
        d="M123.803 10.7009V15.5009C122.627 13.7801 121.047 12.3726 119.203 11.4009C117.417 10.4574 115.423 9.97612 113.403 10.0009C111.632 9.99632 109.879 10.3481 108.247 11.0353C106.614 11.7225 105.137 12.731 103.903 14.0009C102.636 15.2739 101.638 16.7885 100.968 18.4549C100.298 20.1212 99.97 21.9052 100.003 23.7009C99.9642 25.4973 100.29 27.283 100.96 28.9502C101.63 30.6173 102.632 32.1314 103.903 33.4009C105.095 34.7051 106.548 35.7442 108.167 36.4505C109.787 37.1569 111.536 37.5147 113.303 37.5009C115.307 37.4846 117.284 37.0415 119.103 36.2009C120.913 35.2255 122.511 33.8998 123.803 32.3009V36.8009H127.103V10.7009H123.803ZM122.703 29.2009C121.811 30.7937 120.496 32.1088 118.903 33.0009C117.317 33.9033 115.527 34.3852 113.703 34.4009C111.91 34.3861 110.152 33.9035 108.603 33.0009C107.027 32.0433 105.719 30.7014 104.803 29.1009C103.866 27.4931 103.382 25.6616 103.403 23.8009C103.367 21.9383 103.852 20.1027 104.803 18.5009C105.687 16.9358 106.962 15.6265 108.503 14.7009C110.065 13.7424 111.871 13.2562 113.703 13.3009C115.062 13.2614 116.414 13.5081 117.672 14.0249C118.93 14.5417 120.065 15.3172 121.003 16.3009C122.581 18.0138 123.592 20.1725 123.896 22.4817C124.2 24.7908 123.784 27.1376 122.703 29.2009Z"
        fill="#006633"/>
    <path
        d="M4.89919 0.801928C4.3966 0.294453 3.71341 0.00679057 2.99919 0.00192461C2.62772 -0.0121083 2.25736 0.050717 1.9113 0.186464C1.56524 0.322212 1.25093 0.527956 0.988077 0.790812C0.725222 1.05367 0.519477 1.36798 0.38373 1.71404C0.247983 2.0601 0.185157 2.43046 0.19919 2.80193C0.204056 3.51614 0.491719 4.19934 0.999193 4.70193C1.25604 4.97045 1.56745 5.18079 1.91245 5.31879C2.25745 5.45679 2.62802 5.51924 2.99919 5.50192C3.71528 5.50192 4.40203 5.21746 4.90838 4.71111C5.41473 4.20477 5.69919 3.51801 5.69919 2.80193C5.7165 2.43075 5.65405 2.06018 5.51605 1.71518C5.37805 1.37018 5.16771 1.05877 4.89919 0.801928ZM1.29919 10.7019V36.8019H4.69919V10.7019H1.29919Z"
        fill="#006633"/>
    <path
        d="M30.3 10.0023C29.0121 9.96609 27.7477 10.3524 26.7 11.1023C25.3939 11.9837 24.3007 13.1452 23.5 14.5023V10.6023H20V36.7023H23.5V27.9023C23.3817 24.8896 23.5828 21.8727 24.1 18.9023C24.4344 17.2547 25.2731 15.7519 26.5 14.6023C27.3585 13.7584 28.4976 13.2601 29.7 13.2023C30.3265 13.252 30.9376 13.4218 31.5 13.7023L33.2 10.9023C32.3325 10.3456 31.3303 10.0346 30.3 10.0023Z"
        fill="#006633"/>
    <path
        d="M85 15.1036C84.373 13.5536 83.2925 12.2291 81.9 11.3036C80.4629 10.407 78.7931 9.95476 77.1 10.0036C75.1814 9.99111 73.3021 10.5479 71.7 11.6036C69.968 12.7675 68.5578 14.3497 67.6 16.2036C67.1578 14.9429 66.5163 13.7612 65.7 12.7036C64.9147 11.8508 63.9613 11.1699 62.9 10.7036C61.7643 10.2141 60.5364 9.97535 59.3 10.0036C57.3973 10.0051 55.5309 10.5236 53.9 11.5036C52.5074 12.4941 51.2905 13.7109 50.3 15.1036V10.6036H47V36.7036H50.3V25.7036C50.2108 23.2308 50.5491 20.7612 51.3 18.4036C51.9511 16.8967 52.9854 15.5866 54.3 14.6036C55.5945 13.7091 57.1266 13.2216 58.7 13.2036C59.9065 13.199 61.0881 13.5465 62.1 14.2036C63.0914 14.8779 63.8303 15.863 64.2 17.0036C64.7123 19.096 64.9144 21.2524 64.8 23.4036V36.7036H68.1V26.5036C68.1 22.8036 68.4 20.1036 69.1 18.5036C69.6511 16.9678 70.6641 15.6404 72 14.7036C73.2948 13.7233 74.876 13.1962 76.5 13.2036C77.7126 13.1526 78.908 13.5042 79.9 14.2036C80.855 14.7843 81.5929 15.6626 82 16.7036C82.4972 18.5945 82.6996 20.5509 82.6 22.5036V36.7036H86V22.5036C86.1294 19.9962 85.7903 17.4867 85 15.1036Z"
        fill="#006633"/>
    <path
        d="M3.36 57V47.96H1.64V46.46H3.36V45.34C3.36 44.5533 3.46667 43.9133 3.68 43.42C3.90667 42.9133 4.26 42.54 4.74 42.3C5.23333 42.06 5.88 41.94 6.68 41.94H7.88V43.44H6.86C6.38 43.44 6.00667 43.52 5.74 43.68C5.48667 43.84 5.30667 44.08 5.2 44.4C5.10667 44.7067 5.06 45.0867 5.06 45.54V46.46H7.88V47.96H5.06V57H3.36ZM18.6689 57.12C17.5622 57.12 16.6356 56.8933 15.8889 56.44C15.1422 55.9733 14.5822 55.3333 14.2089 54.52C13.8489 53.7067 13.6689 52.78 13.6689 51.74C13.6689 50.6867 13.8556 49.76 14.2289 48.96C14.6022 48.1467 15.1622 47.5067 15.9089 47.04C16.6556 46.5733 17.5889 46.34 18.7089 46.34C19.8156 46.34 20.7356 46.5733 21.4689 47.04C22.2156 47.5067 22.7689 48.1467 23.1289 48.96C23.5022 49.76 23.6889 50.6867 23.6889 51.74C23.6889 52.78 23.5022 53.7067 23.1289 54.52C22.7556 55.3333 22.1956 55.9733 21.4489 56.44C20.7156 56.8933 19.7889 57.12 18.6689 57.12ZM18.6689 55.62C19.4422 55.62 20.0689 55.4467 20.5489 55.1C21.0422 54.7533 21.4022 54.2867 21.6289 53.7C21.8689 53.1133 21.9889 52.46 21.9889 51.74C21.9889 51.02 21.8689 50.3667 21.6289 49.78C21.4022 49.1933 21.0422 48.7267 20.5489 48.38C20.0689 48.0333 19.4422 47.86 18.6689 47.86C17.9089 47.86 17.2822 48.0333 16.7889 48.38C16.3089 48.7267 15.9489 49.1933 15.7089 49.78C15.4822 50.3667 15.3689 51.02 15.3689 51.74C15.3689 52.46 15.4822 53.1133 15.7089 53.7C15.9489 54.2867 16.3089 54.7533 16.7889 55.1C17.2822 55.4467 17.9089 55.62 18.6689 55.62ZM30.5634 57V46.46H32.2034L32.2834 48.1C32.5501 47.6867 32.8568 47.3533 33.2034 47.1C33.5634 46.8467 33.9568 46.66 34.3834 46.54C34.8234 46.4067 35.2968 46.34 35.8034 46.34C35.8968 46.34 35.9834 46.34 36.0634 46.34C36.1568 46.34 36.2501 46.34 36.3434 46.34V47.94H35.7234C34.8968 47.94 34.2234 48.12 33.7034 48.48C33.1968 48.8267 32.8301 49.3 32.6034 49.9C32.3768 50.4867 32.2634 51.14 32.2634 51.86V57H30.5634ZM42.6244 57V46.46H44.2644L44.3444 47.72C44.571 47.4 44.8244 47.14 45.1044 46.94C45.3977 46.74 45.7177 46.5933 46.0644 46.5C46.4244 46.3933 46.8044 46.34 47.2044 46.34C47.9377 46.34 48.531 46.5 48.9844 46.82C49.4377 47.1267 49.7777 47.5333 50.0044 48.04C50.2444 47.68 50.5177 47.3733 50.8244 47.12C51.1444 46.8667 51.4977 46.6733 51.8844 46.54C52.2844 46.4067 52.7244 46.34 53.2044 46.34C53.9777 46.34 54.5977 46.5067 55.0644 46.84C55.5444 47.1733 55.891 47.6267 56.1044 48.2C56.3177 48.76 56.4244 49.3933 56.4244 50.1V57H54.7244V50.96C54.7244 50.6133 54.7044 50.26 54.6644 49.9C54.6377 49.54 54.5577 49.2067 54.4244 48.9C54.291 48.58 54.091 48.3267 53.8244 48.14C53.571 47.94 53.211 47.84 52.7444 47.84C52.3044 47.84 51.931 47.9467 51.6244 48.16C51.331 48.36 51.091 48.6333 50.9044 48.98C50.7177 49.3267 50.5844 49.7 50.5044 50.1C50.4244 50.4867 50.3844 50.8733 50.3844 51.26V57H48.6844V50.94C48.6844 50.6067 48.6644 50.26 48.6244 49.9C48.5977 49.54 48.5244 49.2067 48.4044 48.9C48.2977 48.58 48.111 48.3267 47.8444 48.14C47.591 47.94 47.2377 47.84 46.7844 47.84C46.1444 47.84 45.6444 48.0267 45.2844 48.4C44.9244 48.76 44.671 49.2067 44.5244 49.74C44.391 50.26 44.3244 50.7733 44.3244 51.28V57H42.6244ZM66.9911 57.12C66.5111 57.12 66.0444 57.06 65.5911 56.94C65.1511 56.8067 64.7511 56.6133 64.3911 56.36C64.0444 56.0933 63.7644 55.7667 63.5511 55.38C63.3511 54.98 63.2511 54.52 63.2511 54C63.2511 53.4 63.3578 52.8933 63.5711 52.48C63.7978 52.0667 64.0978 51.74 64.4711 51.5C64.8444 51.26 65.2778 51.0867 65.7711 50.98C66.2644 50.8733 66.7778 50.82 67.3111 50.82H70.4111C70.4111 50.22 70.3244 49.7 70.1511 49.26C69.9911 48.82 69.7244 48.48 69.3511 48.24C68.9778 47.9867 68.4844 47.86 67.8711 47.86C67.4978 47.86 67.1511 47.9 66.8311 47.98C66.5111 48.06 66.2378 48.1867 66.0111 48.36C65.7844 48.5333 65.6178 48.7667 65.5111 49.06H63.6911C63.7844 48.58 63.9644 48.1733 64.2311 47.84C64.5111 47.4933 64.8444 47.2133 65.2311 47C65.6311 46.7733 66.0578 46.6067 66.5111 46.5C66.9644 46.3933 67.4178 46.34 67.8711 46.34C69.3911 46.34 70.4711 46.7867 71.1111 47.68C71.7511 48.5733 72.0711 49.78 72.0711 51.3V57H70.6511L70.5511 55.66C70.2578 56.06 69.9044 56.3667 69.4911 56.58C69.0778 56.7933 68.6511 56.9333 68.2111 57C67.7844 57.08 67.3778 57.12 66.9911 57.12ZM67.1511 55.62C67.8178 55.62 68.3911 55.5133 68.8711 55.3C69.3644 55.0733 69.7444 54.7467 70.0111 54.32C70.2778 53.8933 70.4111 53.3733 70.4111 52.76V52.24H68.5511C68.1111 52.24 67.6778 52.2467 67.2511 52.26C66.8244 52.2733 66.4378 52.3267 66.0911 52.42C65.7444 52.5133 65.4644 52.6733 65.2511 52.9C65.0511 53.1267 64.9511 53.4533 64.9511 53.88C64.9511 54.28 65.0511 54.6067 65.2511 54.86C65.4644 55.1133 65.7378 55.3067 66.0711 55.44C66.4178 55.56 66.7778 55.62 67.1511 55.62ZM83.5848 57C82.7848 57 82.1382 56.88 81.6448 56.64C81.1648 56.4 80.8115 56.0267 80.5848 55.52C80.3715 55.0133 80.2648 54.3733 80.2648 53.6V47.96H78.5448V46.46H80.2648V43.32H81.9648V46.46H84.7848V47.96H81.9648V53.42C81.9648 54.14 82.0915 54.6733 82.3448 55.02C82.6115 55.3533 83.1448 55.52 83.9448 55.52H84.7248V57H83.5848ZM91.3072 57V46.46H93.0072V57H91.3072ZM92.1472 44.9C91.8005 44.9 91.5205 44.7933 91.3072 44.58C91.1072 44.3667 91.0072 44.0933 91.0072 43.76C91.0072 43.4267 91.1139 43.16 91.3272 42.96C91.5405 42.7467 91.8139 42.64 92.1472 42.64C92.4539 42.64 92.7205 42.7467 92.9472 42.96C93.1872 43.1733 93.3072 43.44 93.3072 43.76C93.3072 44.0933 93.1939 44.3667 92.9672 44.58C92.7405 44.7933 92.4672 44.9 92.1472 44.9ZM104.882 57.12C103.776 57.12 102.849 56.8933 102.102 56.44C101.356 55.9733 100.796 55.3333 100.422 54.52C100.062 53.7067 99.8822 52.78 99.8822 51.74C99.8822 50.6867 100.069 49.76 100.442 48.96C100.816 48.1467 101.376 47.5067 102.122 47.04C102.869 46.5733 103.802 46.34 104.922 46.34C106.029 46.34 106.949 46.5733 107.682 47.04C108.429 47.5067 108.982 48.1467 109.342 48.96C109.716 49.76 109.902 50.6867 109.902 51.74C109.902 52.78 109.716 53.7067 109.342 54.52C108.969 55.3333 108.409 55.9733 107.662 56.44C106.929 56.8933 106.002 57.12 104.882 57.12ZM104.882 55.62C105.656 55.62 106.282 55.4467 106.762 55.1C107.256 54.7533 107.616 54.2867 107.842 53.7C108.082 53.1133 108.202 52.46 108.202 51.74C108.202 51.02 108.082 50.3667 107.842 49.78C107.616 49.1933 107.256 48.7267 106.762 48.38C106.282 48.0333 105.656 47.86 104.882 47.86C104.122 47.86 103.496 48.0333 103.002 48.38C102.522 48.7267 102.162 49.1933 101.922 49.78C101.696 50.3667 101.582 51.02 101.582 51.74C101.582 52.46 101.696 53.1133 101.922 53.7C102.162 54.2867 102.522 54.7533 103.002 55.1C103.496 55.4467 104.122 55.62 104.882 55.62ZM116.777 57V46.46H118.417L118.497 48.06C118.737 47.6733 119.043 47.3533 119.417 47.1C119.79 46.8467 120.197 46.66 120.637 46.54C121.09 46.4067 121.53 46.34 121.957 46.34C122.983 46.34 123.783 46.5533 124.357 46.98C124.943 47.4067 125.357 47.9867 125.597 48.72C125.85 49.44 125.977 50.26 125.977 51.18V57H124.277V51.64C124.277 51.1467 124.243 50.6733 124.177 50.22C124.123 49.7667 124.003 49.36 123.817 49C123.643 48.64 123.39 48.36 123.057 48.16C122.723 47.9467 122.277 47.84 121.717 47.84C121.023 47.84 120.43 48.0333 119.937 48.42C119.457 48.8067 119.09 49.3267 118.837 49.98C118.597 50.6333 118.477 51.3667 118.477 52.18V57H116.777Z"
        fill="#FFAA00"/>
</svg>
