<svg width="67" height="67" viewBox="0 0 67 67" fill="none" xmlns="http://www.w3.org/2000/svg">
<path d="M33.6 66.2C51.6045 66.2 66.2 51.6045 66.2 33.6C66.2 15.5955 51.6045 1 33.6 1C15.5955 1 1 15.5955 1 33.6C1 51.6045 15.5955 66.2 33.6 66.2Z" fill="url(#paint0_linear_11_38)" stroke="#006633" stroke-width="0.9603" stroke-miterlimit="10"/>
<path d="M7.14086 30.87L7.13086 30.89V30.87H7.14086Z" fill="black"/>
<path d="M17.8711 25.98V25.78L17.8911 25.99C17.8811 25.99 17.8711 25.98 17.8711 25.98Z" fill="black"/>
<path d="M47.8514 45.47C47.8514 45.46 47.8414 45.45 47.8414 45.44C47.6514 45.46 47.4614 45.49 47.2814 45.52C47.4914 45.56 47.7014 45.59 47.9014 45.62C47.8814 45.57 47.8714 45.52 47.8514 45.47ZM36.5614 25.61C36.4214 25.68 36.2914 25.77 36.1814 25.89C36.8314 25.74 37.6114 25.56 38.5214 25.32C37.4914 25.5 36.9014 25.58 36.5614 25.61ZM13.7214 43.93C13.7614 43.94 13.8014 43.94 13.8314 43.93H13.7214ZM21.0314 34.1C21.0414 34.11 21.0514 34.13 21.0514 34.14H21.0814C21.0614 34.13 21.0514 34.11 21.0314 34.1ZM34.5714 45.17C34.5114 45.16 34.4614 45.15 34.4114 45.14L34.4314 45.19C34.4714 45.19 34.5014 45.2 34.5314 45.2C34.5614 45.19 34.5914 45.19 34.6214 45.18C34.6114 45.18 34.5814 45.17 34.5714 45.17ZM34.5714 45.17C34.5114 45.16 34.4614 45.15 34.4114 45.14L34.4314 45.19C34.4714 45.19 34.5014 45.2 34.5314 45.2C34.5614 45.19 34.5914 45.19 34.6214 45.18C34.6114 45.18 34.5814 45.17 34.5714 45.17ZM34.5714 45.17C34.5114 45.16 34.4614 45.15 34.4114 45.14L34.4314 45.19C34.4714 45.19 34.5014 45.2 34.5314 45.2C34.5614 45.19 34.5914 45.19 34.6214 45.18C34.6114 45.18 34.5814 45.17 34.5714 45.17ZM21.0314 34.1C21.0414 34.11 21.0514 34.13 21.0514 34.14H21.0814C21.0614 34.13 21.0514 34.11 21.0314 34.1ZM34.5714 45.17C34.5114 45.16 34.4614 45.15 34.4114 45.14L34.4314 45.19C34.4714 45.19 34.5014 45.2 34.5314 45.2C34.5614 45.19 34.5914 45.19 34.6214 45.18C34.6114 45.18 34.5814 45.17 34.5714 45.17ZM21.0314 34.1C21.0414 34.11 21.0514 34.13 21.0514 34.14H21.0814C21.0614 34.13 21.0514 34.11 21.0314 34.1ZM34.5714 45.17C34.5114 45.16 34.4614 45.15 34.4114 45.14L34.4314 45.19C34.4714 45.19 34.5014 45.2 34.5314 45.2C34.5614 45.19 34.5914 45.19 34.6214 45.18C34.6114 45.18 34.5814 45.17 34.5714 45.17ZM21.0314 34.1C21.0414 34.11 21.0514 34.13 21.0514 34.14H21.0814C21.0614 34.13 21.0514 34.11 21.0314 34.1ZM34.5714 45.17C34.5114 45.16 34.4614 45.15 34.4114 45.14L34.4314 45.19C34.4714 45.19 34.5014 45.2 34.5314 45.2C34.5614 45.19 34.5914 45.19 34.6214 45.18C34.6114 45.18 34.5814 45.17 34.5714 45.17ZM21.0314 34.1C21.0414 34.11 21.0514 34.13 21.0514 34.14H21.0814C21.0614 34.13 21.0514 34.11 21.0314 34.1ZM34.5714 45.17C34.5114 45.16 34.4614 45.15 34.4114 45.14L34.4314 45.19C34.4714 45.19 34.5014 45.2 34.5314 45.2C34.5614 45.19 34.5914 45.19 34.6214 45.18C34.6114 45.18 34.5814 45.17 34.5714 45.17ZM21.0314 34.1C21.0414 34.11 21.0514 34.13 21.0514 34.14H21.0814C21.0614 34.13 21.0514 34.11 21.0314 34.1ZM34.5714 45.17C34.5114 45.16 34.4614 45.15 34.4114 45.14L34.4314 45.19C34.4714 45.19 34.5014 45.2 34.5314 45.2C34.5614 45.19 34.5914 45.19 34.6214 45.18C34.6114 45.18 34.5814 45.17 34.5714 45.17ZM21.0314 34.1C21.0414 34.11 21.0514 34.13 21.0514 34.14H21.0814C21.0614 34.13 21.0514 34.11 21.0314 34.1ZM34.5714 45.17C34.5114 45.16 34.4614 45.15 34.4114 45.14L34.4314 45.19C34.4714 45.19 34.5014 45.2 34.5314 45.2C34.5614 45.19 34.5914 45.19 34.6214 45.18C34.6114 45.18 34.5814 45.17 34.5714 45.17ZM21.0314 34.1C21.0414 34.11 21.0514 34.13 21.0514 34.14H21.0814C21.0614 34.13 21.0514 34.11 21.0314 34.1ZM34.5714 45.17C34.5114 45.16 34.4614 45.15 34.4114 45.14L34.4314 45.19C34.4714 45.19 34.5014 45.2 34.5314 45.2C34.5614 45.19 34.5914 45.19 34.6214 45.18C34.6114 45.18 34.5814 45.17 34.5714 45.17ZM21.0314 34.1C21.0414 34.11 21.0514 34.13 21.0514 34.14H21.0814C21.0614 34.13 21.0514 34.11 21.0314 34.1ZM34.5714 45.17C34.5114 45.16 34.4614 45.15 34.4114 45.14L34.4314 45.19C34.4714 45.19 34.5014 45.2 34.5314 45.2C34.5614 45.19 34.5914 45.19 34.6214 45.18C34.6114 45.18 34.5814 45.17 34.5714 45.17ZM21.0314 34.1C21.0414 34.11 21.0514 34.13 21.0514 34.14H21.0814C21.0614 34.13 21.0514 34.11 21.0314 34.1ZM34.5714 45.17C34.5114 45.16 34.4614 45.15 34.4114 45.14L34.4314 45.19C34.4714 45.19 34.5014 45.2 34.5314 45.2C34.5614 45.19 34.5914 45.19 34.6214 45.18C34.6114 45.18 34.5814 45.17 34.5714 45.17ZM21.0314 34.1C21.0414 34.11 21.0514 34.13 21.0514 34.14H21.0814C21.0614 34.13 21.0514 34.11 21.0314 34.1ZM33.9414 46.62H33.2314C33.2414 46.62 33.2614 46.63 33.2714 46.63C33.4114 46.67 33.5514 46.71 33.6814 46.76C33.7814 46.79 33.8914 46.82 33.9914 46.85C33.9714 46.77 33.9614 46.69 33.9414 46.62ZM37.7014 43.81C37.7014 43.8 37.6914 43.8 37.6914 43.8C37.0714 43.66 36.4614 43.52 35.8714 43.38L35.6014 43.53C35.6214 43.53 35.6414 43.53 35.6614 43.53C35.5314 43.59 35.4014 43.66 35.2614 43.72C35.2514 43.72 35.2514 43.73 35.2414 43.73C35.2214 43.74 35.2014 43.75 35.1814 43.76C35.2014 43.79 35.2214 43.81 35.2414 43.84C35.2614 43.86 35.2714 43.88 35.2914 43.9C35.2814 43.91 35.2714 43.92 35.2614 43.93C35.2514 43.94 35.2514 43.95 35.2414 43.95C35.2214 43.98 35.1914 44 35.1614 44.03C35.1514 44.04 35.1414 44.05 35.1314 44.06C35.1314 44.07 35.1214 44.07 35.1214 44.07H34.8314L34.8114 44.09H34.8014L34.3614 44.49C34.6614 44.42 34.9314 44.43 35.2314 44.54C35.3614 44.59 35.5014 44.65 35.6414 44.73C35.4914 44.71 35.3614 44.69 35.2314 44.67C34.8914 44.62 34.5914 44.58 34.2814 44.55L34.1714 44.64L34.2314 44.77C34.5514 44.86 34.8914 44.8 35.2214 44.81C35.3114 44.81 35.4014 44.82 35.5014 44.84C35.5114 44.86 35.5114 44.88 35.5114 44.9C35.5214 44.93 35.5214 44.96 35.5314 45H35.5514L35.7914 44.96L35.8714 44.9L36.0614 44.77L36.2314 44.65C36.1714 44.62 36.1014 44.58 36.0414 44.54C36.1514 44.55 36.2514 44.56 36.3614 44.57L36.8714 44.23C36.8914 44.19 36.9114 44.17 36.9414 44.14C37.1514 43.89 37.4714 43.95 37.8014 43.94C37.7614 43.89 37.7314 43.85 37.7014 43.81ZM47.9014 45.62C47.9414 45.74 47.9914 45.85 48.0414 45.96C48.0514 45.99 48.0614 46.02 48.0714 46.05H48.5314C48.5414 46.03 48.5614 46 48.5714 45.98C48.6114 45.91 48.6414 45.83 48.6714 45.76C48.4214 45.71 48.1614 45.67 47.9014 45.62ZM48.8014 44.92C48.8014 44.93 48.7914 44.94 48.7914 44.95C48.7814 44.99 48.7614 45.03 48.7414 45.07C48.7314 45.09 48.7214 45.11 48.7114 45.14C48.6814 45.2 48.6914 45.28 48.7014 45.35C48.7014 45.36 48.7014 45.36 48.7014 45.36C48.7014 45.37 48.7014 45.37 48.7014 45.38C48.7014 45.39 48.7014 45.41 48.7114 45.42C48.7114 45.44 48.7114 45.46 48.7114 45.48C48.7114 45.58 48.6914 45.67 48.6614 45.75C48.7214 45.76 48.7814 45.77 48.8414 45.78C48.8514 45.71 48.8714 45.62 48.9014 45.48C48.9114 45.46 48.9114 45.43 48.9114 45.41C48.9214 45.38 48.9214 45.36 48.9214 45.34V45.33C48.9414 45.25 48.9514 45.16 48.9514 45.07V44.94C48.9114 44.94 48.8514 44.93 48.8014 44.92ZM48.8414 45.78C48.8114 45.89 48.8114 45.93 48.8014 45.98C48.7914 46.04 48.7914 46.11 48.8014 46.21L48.9214 46.19C48.9414 46.18 48.9614 46.18 48.9814 46.18C49.0314 46.17 49.0814 46.16 49.1414 46.15C49.1914 46.14 49.2514 46.13 49.3014 46.13L49.3114 46.09C49.3114 46.09 49.3214 46 49.3214 45.99C49.3214 45.95 49.3314 45.91 49.3314 45.87C49.1714 45.84 49.0114 45.81 48.8414 45.78ZM57.0314 46.98C57.0114 46.92 56.9814 46.88 56.9714 46.82C54.6314 46.26 52.4614 45.76 50.4714 45.3C50.4714 45.3 50.4714 45.3 50.4614 45.3C50.4614 45.3 50.4614 45.3 50.4514 45.3C50.4514 45.3 50.4514 45.3 50.4414 45.3C50.0814 45.21 49.7214 45.13 49.3814 45.05C49.3814 45.06 49.3814 45.07 49.3814 45.09L49.3714 45.25C49.3714 45.27 49.3714 45.29 49.3714 45.31C49.3714 45.35 49.3614 45.38 49.3614 45.42C49.3614 45.45 49.3514 45.48 49.3514 45.51C49.3414 45.63 49.3314 45.75 49.3214 45.87C49.6714 45.93 49.9914 45.99 50.3114 46.04H50.3214C52.7914 46.47 54.3714 46.75 55.3714 46.93C55.3814 46.93 55.3814 46.93 55.3914 46.93C56.8314 47.2 57.1014 47.27 57.1414 47.28C57.1114 47.19 57.0714 47.08 57.0314 46.98ZM57.1514 47.29C57.1614 47.3 57.1714 47.3 57.1514 47.29V47.29ZM21.0314 34.1C21.0414 34.11 21.0514 34.13 21.0514 34.14H21.0814C21.0614 34.13 21.0514 34.11 21.0314 34.1ZM34.5714 45.17C34.5114 45.16 34.4614 45.15 34.4114 45.14L34.4314 45.19C34.4714 45.19 34.5014 45.2 34.5314 45.2C34.5614 45.19 34.5914 45.19 34.6214 45.18C34.6114 45.18 34.5814 45.17 34.5714 45.17ZM37.7014 43.81C37.7014 43.8 37.6914 43.8 37.6914 43.8C37.0714 43.66 36.4614 43.52 35.8714 43.38L35.6014 43.53C35.6214 43.53 35.6414 43.53 35.6614 43.53C35.5314 43.59 35.4014 43.66 35.2614 43.72C35.2514 43.72 35.2514 43.73 35.2414 43.73C35.2214 43.74 35.2014 43.75 35.1814 43.76C35.2014 43.79 35.2214 43.81 35.2414 43.84C35.2614 43.86 35.2714 43.88 35.2914 43.9C35.2814 43.91 35.2714 43.92 35.2614 43.93C35.2514 43.94 35.2514 43.95 35.2414 43.95C35.2214 43.98 35.1914 44 35.1614 44.03C35.1514 44.04 35.1414 44.05 35.1314 44.06C35.1314 44.07 35.1214 44.07 35.1214 44.07H34.8314L34.8114 44.09H34.8014L34.3614 44.49C34.6614 44.42 34.9314 44.43 35.2314 44.54C35.3614 44.59 35.5014 44.65 35.6414 44.73C35.4914 44.71 35.3614 44.69 35.2314 44.67C34.8914 44.62 34.5914 44.58 34.2814 44.55L34.1714 44.64L34.2314 44.77C34.5514 44.86 34.8914 44.8 35.2214 44.81C35.3114 44.81 35.4014 44.82 35.5014 44.84C35.5114 44.86 35.5114 44.88 35.5114 44.9C35.5214 44.93 35.5214 44.96 35.5314 45H35.5514L35.7914 44.96L35.8714 44.9L36.0614 44.77L36.2314 44.65C36.1714 44.62 36.1014 44.58 36.0414 44.54C36.1514 44.55 36.2514 44.56 36.3614 44.57L36.8714 44.23C36.8914 44.19 36.9114 44.17 36.9414 44.14C37.1514 43.89 37.4714 43.95 37.8014 43.94C37.7614 43.89 37.7314 43.85 37.7014 43.81ZM48.8014 44.92C48.8014 44.93 48.7914 44.94 48.7914 44.95C48.7814 44.99 48.7614 45.03 48.7414 45.07C48.7314 45.09 48.7214 45.11 48.7114 45.14C48.6814 45.2 48.6914 45.28 48.7014 45.35C48.7814 45.34 48.8514 45.33 48.9314 45.33C48.9514 45.25 48.9614 45.16 48.9614 45.07V44.94C48.9114 44.94 48.8514 44.93 48.8014 44.92ZM21.0314 34.1C21.0414 34.11 21.0514 34.13 21.0514 34.14H21.0814C21.0614 34.13 21.0514 34.11 21.0314 34.1ZM34.5714 45.17C34.5114 45.16 34.4614 45.15 34.4114 45.14L34.4314 45.19C34.4714 45.19 34.5014 45.2 34.5314 45.2C34.5614 45.19 34.5914 45.19 34.6214 45.18C34.6114 45.18 34.5814 45.17 34.5714 45.17ZM37.7014 43.81C37.7014 43.8 37.6914 43.8 37.6914 43.8C37.0714 43.66 36.4614 43.52 35.8714 43.38L35.6014 43.53C35.6214 43.53 35.6414 43.53 35.6614 43.53C35.5314 43.59 35.4014 43.66 35.2614 43.72C35.2514 43.72 35.2514 43.73 35.2414 43.73C35.2214 43.74 35.2014 43.75 35.1814 43.76C35.2014 43.79 35.2214 43.81 35.2414 43.84C35.2614 43.86 35.2714 43.88 35.2914 43.9C35.2814 43.91 35.2714 43.92 35.2614 43.93C35.2514 43.94 35.2514 43.95 35.2414 43.95C35.2214 43.98 35.1914 44 35.1614 44.03C35.1514 44.04 35.1414 44.05 35.1314 44.06C35.1314 44.07 35.1214 44.07 35.1214 44.07H34.8314L34.8114 44.09H34.8014L34.3614 44.49C34.6614 44.42 34.9314 44.43 35.2314 44.54C35.3614 44.59 35.5014 44.65 35.6414 44.73C35.4914 44.71 35.3614 44.69 35.2314 44.67C34.8914 44.62 34.5914 44.58 34.2814 44.55L34.1714 44.64L34.2314 44.77C34.5514 44.86 34.8914 44.8 35.2214 44.81C35.3114 44.81 35.4014 44.82 35.5014 44.84C35.5114 44.86 35.5114 44.88 35.5114 44.9C35.5214 44.93 35.5214 44.96 35.5314 45H35.5514L35.7914 44.96L35.8714 44.9L36.0614 44.77L36.2314 44.65C36.1714 44.62 36.1014 44.58 36.0414 44.54C36.1514 44.55 36.2514 44.56 36.3614 44.57L36.8714 44.23C36.8914 44.19 36.9114 44.17 36.9414 44.14C37.1514 43.89 37.4714 43.95 37.8014 43.94C37.7614 43.89 37.7314 43.85 37.7014 43.81ZM48.8014 44.92C48.8014 44.93 48.7914 44.94 48.7914 44.95C48.7814 44.99 48.7614 45.03 48.7414 45.07C48.7314 45.09 48.7214 45.11 48.7114 45.14C48.6814 45.2 48.6914 45.28 48.7014 45.35C48.7814 45.34 48.8514 45.33 48.9314 45.33C48.9514 45.25 48.9614 45.16 48.9614 45.07V44.94C48.9114 44.94 48.8514 44.93 48.8014 44.92ZM57.7214 46.89C57.7114 46.86 57.7014 46.84 57.6914 46.81C57.6814 46.78 57.6714 46.74 57.6614 46.71C57.5814 46.49 57.5014 46.27 57.4114 46.06C57.4014 46.04 57.4014 46.03 57.3914 46.02C57.3614 45.96 57.3414 45.89 57.3214 45.83C57.2414 45.63 57.1714 45.43 57.1014 45.23C57.0214 45.01 56.9414 44.78 56.8614 44.55C56.8514 44.51 56.8314 44.47 56.8214 44.43C56.7914 44.36 56.7714 44.29 56.7514 44.23C56.7514 44.22 56.7414 44.21 56.7414 44.21C56.6914 44.05 56.6414 43.89 56.6014 43.73C56.5614 43.6 56.5314 43.47 56.4914 43.34C56.4414 43.14 56.2614 42.58 56.2314 42.44C56.2114 42.35 56.1814 42.27 56.1414 42.19C56.0914 42.1 56.0414 42.01 56.0014 41.92C55.9914 41.9 55.9814 41.89 55.9814 41.88C55.9614 41.82 55.9314 41.77 55.9114 41.71C55.8814 41.64 55.8514 41.57 55.8214 41.5C55.8114 41.48 55.8114 41.46 55.8014 41.44C55.7714 41.36 55.7414 41.28 55.7114 41.2C55.6914 41.14 55.6714 41.08 55.6514 41.02C55.6314 40.96 55.6114 40.89 55.5914 40.82C55.5114 40.55 55.4314 40.27 55.3714 39.99C55.3314 39.83 55.2914 39.66 55.2514 39.5C55.2314 39.43 55.2214 39.36 55.2014 39.29C55.0614 38.73 54.8914 38.19 54.6814 37.65C54.6614 37.6 54.6514 37.56 54.6314 37.52C54.4314 37 54.2314 36.48 54.1314 35.93C54.0614 35.55 53.9714 35.17 53.8514 34.8C53.6114 34.11 53.4514 33.4 53.2614 32.69C53.1614 32.3 53.0314 31.92 52.9114 31.52C52.8914 31.46 52.8614 31.29 52.7914 31.04C52.7414 30.84 52.6914 30.68 52.6514 30.57C52.6314 30.45 52.6014 30.34 52.5814 30.22C52.5714 30.14 52.5514 30.04 52.5314 29.94C52.4714 29.72 52.3914 29.55 52.3114 29.42L52.1814 28.97C52.3714 28.79 52.5114 28.66 52.6114 28.56C52.6114 28.56 52.6814 28.49 52.8314 28.32C52.9714 28.15 53.0114 28.09 52.9914 28.03C52.9814 28 52.9514 27.97 52.8814 27.91C52.8114 27.84 52.7414 27.8 52.7414 27.8C52.5914 27.7 52.3814 27.4 52.3314 27.33C52.0114 26.86 51.8414 26.61 51.7614 26.22C51.7414 26.13 51.7314 26.06 51.7214 26.01C51.8914 25.89 52.1214 25.74 52.4114 25.63C52.8414 25.46 53.2214 25.42 53.4914 25.41C53.5214 25.41 53.5614 25.41 53.6014 25.4C53.6514 25.38 53.6914 25.36 53.7114 25.34C53.8914 25.3 54.0714 25.25 54.2614 25.2C54.4314 25.15 54.5914 25.11 54.7414 25.06C54.9214 24.93 55.0414 24.85 55.1914 24.75C55.2114 24.7 55.2614 24.57 55.2314 24.42C55.2114 24.32 55.1714 24.26 55.1414 24.22C55.0914 24.19 54.9914 24.15 54.8714 24.15C54.8114 24.15 54.7614 24.16 54.7214 24.17C54.6414 24.19 54.5814 24.21 54.5314 24.22C54.5014 24.23 54.4814 24.24 54.4414 24.25C54.3914 24.26 54.3514 24.26 54.3314 24.26C54.2914 24.26 54.2414 24.27 54.1914 24.29C54.1314 24.31 54.0814 24.35 54.0614 24.37C53.9914 24.38 53.9014 24.38 53.8014 24.37C53.7014 24.36 53.6214 24.34 53.5514 24.31C53.3714 23.98 53.3014 23.64 53.5214 23.35C53.4214 23.15 53.2714 22.99 53.2814 22.84C53.2914 22.72 53.2914 22.59 53.2714 22.47C53.2314 22.12 53.1214 21.8 53.1214 21.53C52.9714 20.91 52.5714 20.65 52.1714 20.43C52.3614 20.09 52.2214 19.74 52.2614 19.51C52.1314 19.33 52.0414 19.22 51.9814 19.14H51.4514C51.1214 19.44 51.1214 19.81 51.1614 20.12C51.3014 20.47 51.4614 20.71 51.7514 20.8V22.47C51.7414 22.47 51.7314 22.48 51.7214 22.48C51.3414 22.63 50.9714 22.76 50.5714 22.91C50.5214 22.76 50.4814 22.62 50.4314 22.48C50.3314 22.17 50.2414 21.89 50.1614 21.6C50.0614 21.25 50.0014 20.88 49.9014 20.53C49.8714 20.41 49.7514 20.32 49.6514 20.19C49.3614 20.51 49.0114 20.72 49.0414 21.17C49.3814 21.53 49.6514 22.06 49.7614 22.49C49.8314 22.75 49.8314 22.96 49.7514 23.08L49.4914 23.34C48.0614 23.44 46.6314 23.24 45.2014 23.47C44.7614 23.54 44.3014 23.48 43.8014 23.48C43.8314 23.29 43.8414 23.13 43.8914 22.99C43.9614 22.82 43.9514 22.66 43.9214 22.49C43.9114 22.45 43.9014 22.4 43.8914 22.36C43.8314 22.05 43.7914 21.71 43.8814 21.41C43.9314 21.24 43.8614 21.04 43.9914 20.9C44.1514 20.72 43.9814 20.47 44.0914 20.32C44.2414 20.13 44.0114 20.01 44.0714 19.85C44.1214 19.71 44.1314 19.56 44.1514 19.42C44.0814 19.32 44.0014 19.21 43.9114 19.09C44.0314 19.03 44.1114 18.99 44.2014 18.95V18.82C44.1114 18.78 44.0314 18.74 43.9214 18.69C43.9714 18.6 44.0114 18.52 44.0614 18.44C43.8314 17.83 43.9414 16.92 44.2814 16.57C44.4214 16.84 44.5514 17.11 44.6914 17.38C44.7114 17.63 44.6714 17.89 44.7414 18.12C44.9014 18.63 44.9114 19.09 44.5414 19.51C44.4414 19.62 44.4014 19.78 44.3414 19.92C44.3314 19.94 44.3814 19.98 44.4014 20.01C44.4414 19.97 44.4914 19.93 44.6214 19.82C44.5414 20.06 44.5014 20.21 44.4514 20.38H44.7714C45.0914 20.16 45.1714 19.79 45.2114 19.42C45.2414 19.19 45.1014 18.92 45.3214 18.72C45.2614 18.22 45.4014 17.73 45.2214 17.22C45.0414 16.7 44.8414 16.17 44.7214 15.63C44.6514 15.33 44.4714 15.31 44.3014 15.29C43.9214 14.97 43.5714 14.67 43.2114 14.37C43.2314 14.36 43.2714 14.35 43.3114 14.32C43.3414 14.29 43.3614 14.26 43.3814 14.24C43.4014 14.16 43.4214 14.05 43.4114 13.92C43.4114 13.8 43.3914 13.7 43.3714 13.63C43.3614 13.58 43.3214 13.49 43.2414 13.4C43.1814 13.33 43.1114 13.29 43.0714 13.27C43.0014 13.25 42.8814 13.22 42.7414 13.23C42.5914 13.24 42.4714 13.29 42.4014 13.33L42.3214 13.41C42.2914 13.44 42.2614 13.46 42.2314 13.5C42.2014 13.59 42.1814 13.7 42.1814 13.84C42.1814 14.01 42.2014 14.14 42.2314 14.24C42.1914 14.28 42.1614 14.32 42.1214 14.35C42.0914 14.38 42.0614 14.41 42.0314 14.44H41.4814C41.3014 14.72 41.1114 15.02 40.9814 15.23C40.1114 15.45 39.3214 15.64 38.5314 15.84C38.5514 15.85 38.5614 15.87 38.5814 15.89C38.4614 15.97 38.3314 16.04 38.2614 16.09V16.6C38.3514 16.73 38.4414 16.81 38.5014 16.92C38.6914 17.27 38.8714 17.63 38.9414 18.04C39.0414 18.57 39.3614 19.03 39.4014 19.6C39.4314 19.95 39.4914 20.35 39.6414 20.67C39.8314 21.07 39.6514 21.47 39.7714 21.86C39.8514 21.93 39.9514 21.99 39.9914 22.08C40.0514 22.22 40.1114 22.37 40.1714 22.51C40.2814 22.79 40.3914 23.07 40.4914 23.36C40.5514 23.53 40.4414 23.67 40.2314 23.79H39.2514V23.86H40.3514C40.4014 24.2 40.8314 24.33 40.7114 24.75C40.4214 24.75 40.1414 24.72 39.8614 24.76C39.5914 24.79 39.2814 24.81 39.0614 24.92C38.8014 25.05 38.4814 24.87 38.2714 25.13C37.5014 25.17 36.7814 25.43 36.0614 25.53C36.0814 25.6 36.1014 25.67 36.5414 25.64C36.6914 25.57 36.8614 25.52 37.0514 25.5C37.7414 25.4 38.4114 25.14 39.1114 25.14C39.3714 24.92 39.7114 25.11 39.9714 24.97C40.2514 24.81 40.5314 24.97 38.5014 25.36C40.8514 25.16 40.8514 25.38 40.8514 25.59C40.3414 25.73 39.8114 25.71 39.3114 25.79C38.8914 25.85 38.4814 25.86 38.0614 25.89C37.8114 25.91 37.5614 25.98 37.3114 26C37.0614 26.02 36.8214 26.01 36.5714 26.01C36.3914 26 36.2314 26.27 36.0314 26.08C36.0714 26.02 36.1114 25.97 36.1514 25.93C34.2314 26.36 33.2814 26.49 32.3114 26.6C32.4314 26.63 32.5414 26.66 32.6614 26.68C32.1414 26.68 31.6714 26.97 31.1614 26.88C30.8514 27.1 30.4814 26.92 30.1614 27.02C29.8214 27.12 29.4914 27.13 29.1514 27.13C29.1214 27.13 29.0914 27.08 29.0314 27.04C29.1014 26.95 29.1614 26.86 29.2314 26.76C29.4214 26.77 29.6114 26.7 29.7414 26.87C30.1114 26.62 30.5514 26.87 30.9314 26.72C30.8814 26.67 30.8414 26.62 30.8014 26.58C30.9614 26.52 31.1114 26.43 31.2814 26.4C31.4614 26.37 31.7214 26.47 31.8314 26.38C32.0514 26.19 32.3214 26.37 32.5214 26.23C32.7414 26.07 33.0414 26.25 33.2214 26.13C33.4614 25.96 33.7014 26.07 33.9214 26.03C33.9814 26.02 34.0714 26.05 34.1014 26.01C34.2514 25.83 34.4414 25.93 34.6214 25.9C34.8114 25.86 35.0014 25.82 35.1914 25.78C35.3914 25.73 35.5814 25.68 35.7814 25.63C35.6914 25.53 35.6114 25.54 35.5414 25.53C35.1114 25.44 34.7114 25.66 34.2914 25.66C33.9114 25.66 33.5214 25.55 33.1614 25.78C32.5714 25.74 32.0014 25.84 31.4114 25.9C30.8514 25.96 30.2814 25.82 29.7214 26.02C29.4914 26.1 29.2314 26.11 28.9914 26.15C28.8414 25.74 28.5714 25.39 28.5714 24.88C29.0114 24.85 29.4214 24.82 29.8414 24.78C29.9414 24.77 30.0414 24.77 30.1414 24.76C30.1614 24.76 30.1714 24.69 30.1814 24.66H28.4414C28.4414 24.32 28.4514 24.04 28.2514 23.77C28.1314 23.61 28.1314 23.37 28.0714 23.17C28.0014 22.97 27.9614 22.75 27.9014 22.55C27.8314 22.31 27.7314 22.09 27.5014 21.93C27.4014 21.94 27.3014 21.95 27.1714 21.96C27.2114 22.16 27.2614 22.36 27.3014 22.56C27.4314 23.17 27.5614 23.77 27.6914 24.39C27.6514 24.43 27.5814 24.5 27.5214 24.56C26.9914 24.53 26.5214 24.64 26.0814 24.88C25.9414 24.96 25.7814 24.94 25.6414 25.02C25.4714 25.11 25.1514 25.14 24.9814 24.87C24.9514 24.53 25.0614 24.15 24.8614 23.89C24.4014 23.5 24.0414 23.78 23.6614 23.97C23.5514 23.53 23.1614 23.22 23.2314 22.81C23.2914 22.72 23.3414 22.65 23.3914 22.57C23.4714 22.45 23.5514 22.33 23.6414 22.2C23.5914 21.86 23.5514 21.51 23.5014 21.15C23.3514 21.01 23.1914 20.87 23.0214 20.71C22.5314 20.7 22.5314 20.7 22.1314 20.88C22.0914 21.04 22.0414 21.21 22.0014 21.38C21.9614 21.55 21.8714 21.73 21.8914 21.88C21.9214 22.04 22.0514 22.18 22.1514 22.33C22.0914 22.41 22.0314 22.49 21.9714 22.56C21.8214 22.76 21.6714 22.95 21.5214 23.14C21.4314 23.51 21.2814 23.89 21.2714 24.27C21.2514 25 21.1614 25.73 21.3814 26.45C21.4714 26.73 21.5614 27 21.6714 27.26C21.7814 27.52 21.9414 27.75 22.2414 27.86C21.8714 27.94 21.5014 27.93 21.1714 28.04C20.8514 28.15 20.5214 28.07 20.2314 28.17C19.9914 28.26 19.7414 28.2 19.5414 28.29C19.2814 28.4 19.0414 28.4 18.7814 28.4C18.7214 28.4 18.6314 28.37 18.6014 28.41C18.3014 28.65 17.9814 28.48 17.6414 28.55C17.7114 28.42 17.7614 28.36 17.7814 28.29C17.9114 27.89 18.0114 27.48 18.1514 27.08C18.2614 26.76 18.2514 26.84 18.3814 26.42C18.4914 26.06 18.5614 25.78 18.6414 25.43C18.8214 24.62 18.7614 24.72 18.8414 24.48C18.9014 24.31 19.0214 24.03 19.1014 23.6C19.1114 23.57 19.1114 23.55 19.1114 23.52C19.1714 23.15 19.2014 22.83 19.2114 22.58C19.2214 22.49 19.2214 22.42 19.2214 22.35L19.1314 22.36C19.1214 22.36 18.9214 22.37 18.9114 22.37C18.8714 22.36 18.8114 22.35 18.7414 22.35C18.6814 22.35 18.6214 22.35 18.5714 22.37C18.5114 22.4 18.4714 22.48 18.4514 22.59C18.4414 22.65 18.4414 22.72 18.4414 22.79C18.4214 22.95 18.4014 23.12 18.3714 23.3C18.3014 23.7 18.1914 24.07 18.0814 24.38C18.0014 24.66 17.8714 25.12 17.7114 25.68C17.5914 26.12 17.4314 26.56 17.3414 27.01C17.3414 27.01 17.1414 28.04 16.8314 28.46C16.8114 28.5 16.7514 28.57 16.6414 28.62C16.5314 28.68 16.4214 28.68 16.3614 28.67C16.1514 28.47 15.9514 28.25 15.9114 27.9C15.8814 27.67 15.7214 27.45 15.6014 27.2C15.6014 27.2 15.5514 26.92 15.4914 26.82C15.4214 26.82 15.2914 25.98 15.1014 25.56C14.9114 25.15 14.8114 24.71 14.8014 24.3C14.5514 23.99 14.4014 23.64 14.2614 23.28C14.1714 23.05 14.0914 22.82 14.0014 22.6C13.9014 22.37 13.7814 22.14 13.6114 21.94C13.4214 22.02 13.2414 22.09 13.0314 22.17C13.1114 22.31 13.1914 22.46 13.2514 22.6C13.3514 22.82 13.4214 23.04 13.4514 23.27C13.4814 23.44 13.5914 23.58 13.6514 23.74C13.6914 23.86 13.7414 23.98 13.7814 24.09C13.9614 24.56 14.1414 25.04 14.3114 25.51C14.4514 25.91 14.5914 26.31 14.6814 26.72C14.7714 27.13 15.0714 27.54 14.8114 27.99C14.7914 28.02 14.7914 28.09 14.8114 28.11C15.0614 28.36 14.8714 28.64 14.9314 28.89C14.6414 29 14.3814 28.86 14.1214 29.02C13.9114 29.15 13.5714 28.98 13.3214 29.17C12.8314 29.08 12.3714 29.33 11.8814 29.3C11.7814 29.29 11.6614 29.27 11.5714 29.3C11.5414 29.31 11.5214 29.32 11.4914 29.33C10.8614 29.52 10.2114 29.56 9.56139 29.55C9.27139 29.54 9.00139 29.53 8.80139 29.32H8.2914C7.8314 29.66 7.6514 30.08 7.7514 30.6C7.9214 30.89 8.0714 31.19 8.4314 31.3C8.6414 31.37 8.57139 31.61 8.64139 31.77H9.6814C9.8114 31.59 9.97139 31.39 10.1314 31.17H10.7914C10.8214 31.21 10.8614 31.25 10.9114 31.29C11.0114 31.39 11.1214 31.52 11.2614 31.65C11.3714 31.55 11.4814 31.4 11.6214 31.3C11.8914 31.11 12.1614 30.87 12.4614 30.8C12.9914 30.69 13.5414 30.7 14.0814 30.66C14.3514 30.64 14.6214 30.6 14.8814 30.58C14.9314 30.64 14.9714 30.73 15.0314 30.78C15.1214 30.86 15.2114 30.91 15.2614 30.94C15.2314 31.33 15.0914 31.71 15.2014 31.99C15.3614 32.41 15.2314 32.7 15.0414 33.01L15.3314 33.57L15.3014 34.57L15.1814 35.32C15.1814 35.52 15.2214 35.79 15.1714 36.04C15.1514 36.11 15.1414 36.18 15.1214 36.24L15.0414 37.47L14.9614 37.76L14.8114 38.31L14.7214 39.35L14.7114 39.48L14.6814 39.86C14.6814 39.86 14.6214 40.35 14.5714 40.67C14.5614 40.75 14.5514 40.83 14.5414 40.88C14.5314 40.94 14.5014 41.05 14.4714 41.16C14.4614 41.21 14.4414 41.25 14.4314 41.3C14.4114 41.34 14.4014 41.39 14.3914 41.43C14.3114 41.7 14.2214 41.95 14.2214 41.95L14.1814 42.78L14.1714 42.88V42.91V42.95L14.0214 43.39L14.0014 43.44L13.7914 44.04C13.7914 44.05 13.7914 44.05 13.7814 44.06C13.7714 44.1 13.7614 44.15 13.7514 44.19C13.7314 44.27 13.7114 44.35 13.6914 44.43C13.6714 44.51 13.6514 44.59 13.6414 44.67C13.6214 44.76 13.6014 44.85 13.5914 44.94C13.5714 45.03 13.5614 45.11 13.5414 45.2C13.5314 45.26 13.5214 45.33 13.5114 45.39V45.4C13.5014 45.43 13.5014 45.46 13.4914 45.5C13.4914 45.51 13.4914 45.53 13.4814 45.54C13.4414 45.82 13.4214 46.09 13.4014 46.35C13.3014 46.42 13.2714 46.51 13.2514 46.61V46.62C13.2514 46.66 13.2514 46.71 13.2514 46.75V46.77C13.2514 46.81 13.2514 46.84 13.2514 46.88C13.2514 46.9 13.2514 46.92 13.2514 46.95C13.2514 46.95 13.2514 46.95 13.2514 46.96C13.2514 47 13.2414 47.05 13.2214 47.09C13.2114 47.11 13.2114 47.12 13.2014 47.14C13.2014 47.14 13.1814 47.19 13.1414 47.31C13.1214 47.39 12.9814 47.94 12.8014 48.73C12.7914 48.78 12.7814 48.83 12.7614 48.89C13.0214 48.82 13.2914 48.76 13.5514 48.69C13.5614 48.64 13.5814 48.6 13.5914 48.55C13.7514 47.97 13.8514 47.55 13.8914 47.4C13.9314 47.24 13.9414 47.15 13.9514 47.11C13.9614 47.05 13.9714 47 13.9914 46.94C13.9914 46.92 14.0014 46.9 14.0014 46.89C14.0014 46.87 14.0114 46.85 14.0114 46.83C14.0114 46.82 14.0214 46.8 14.0214 46.79C14.0214 46.77 14.0314 46.76 14.0314 46.74C14.0414 46.71 14.0414 46.68 14.0514 46.65C14.0514 46.63 14.0614 46.61 14.0614 46.6C14.1414 46.25 14.2214 45.91 14.3114 45.56C14.3414 45.44 14.3714 45.32 14.4014 45.19C14.4214 45.1 14.4514 45 14.4714 44.91C14.4814 44.86 14.5014 44.81 14.5114 44.76C14.5714 44.54 14.6214 44.32 14.6814 44.11C14.6914 44.06 14.7114 44.01 14.7214 43.96C14.7614 43.8 14.8114 43.64 14.8514 43.49C14.8614 43.47 14.8614 43.45 14.8714 43.44C14.9214 43.27 14.9614 43.11 15.0114 42.95C15.0114 42.94 15.0114 42.93 15.0214 42.92C15.0314 42.88 15.0414 42.85 15.0514 42.81C15.1914 42.34 15.3314 41.89 15.4714 41.44C15.4814 41.41 15.4914 41.38 15.5014 41.35C15.5214 41.3 15.5314 41.25 15.5514 41.21C15.5614 41.17 15.5814 41.13 15.5914 41.1C15.6014 40.96 15.6014 40.82 15.6114 40.7C15.6414 40.24 15.6714 39.84 15.7114 39.51C15.7214 39.46 15.7214 39.42 15.7314 39.38C15.8014 38.81 15.8814 38.43 15.9714 38.19C15.9814 38.16 15.9914 38.13 16.0014 38.11C16.2214 38.08 16.4314 38.05 16.6314 38.03L17.4614 38.47L18.0614 39.41L18.1314 39.52L18.3514 39.87L18.6914 40.69L18.8814 41.13L18.9714 41.29C19.2614 41.74 19.5514 42.19 19.8414 42.64C19.8814 42.7 19.9214 42.76 19.9614 42.83C19.9314 42.9 20.5314 44.11 20.7014 44.36C20.8014 44.63 20.8614 44.75 20.9014 44.81C20.9114 44.82 20.9314 44.86 20.9714 44.92C21.0014 44.97 21.0414 45.02 21.0714 45.07C21.2214 45.3 21.3814 45.53 21.5314 45.76C21.5814 45.84 21.6414 45.92 21.6914 46C21.7914 46.15 21.8914 46.3 22.0014 46.45C22.0614 46.54 22.1314 46.63 22.1914 46.73C22.1914 46.74 22.2014 46.74 22.2014 46.75C22.2114 46.77 22.2314 46.79 22.2414 46.81C22.2514 46.83 22.2614 46.84 22.2714 46.86C22.2814 46.87 22.2814 46.88 22.2914 46.89C22.3014 46.91 22.3114 46.92 22.3214 46.94C22.3414 46.97 22.3614 47.01 22.3914 47.04C22.4014 47.05 22.4114 47.07 22.4214 47.08C22.4514 47.12 22.4714 47.16 22.5014 47.2C22.5614 47.29 22.6214 47.38 22.6914 47.48C23.2614 47.4 23.8214 47.32 24.3914 47.25C24.4014 47.25 24.4014 47.25 24.4014 47.25C24.4014 47.25 24.4014 47.25 24.4114 47.25C24.3614 47.17 24.3314 47.12 24.3314 47.12C24.3114 47.08 24.2814 47.04 24.2614 47.02C24.2614 47.01 24.2514 47 24.2514 47C24.2414 46.99 24.2414 46.99 24.2414 46.98C24.2214 46.95 24.2014 46.92 24.1814 46.89C24.1814 46.88 24.1714 46.88 24.1714 46.87C24.1614 46.86 24.1614 46.86 24.1514 46.85C24.1314 46.82 24.1014 46.8 24.0814 46.77C24.0514 46.74 24.0314 46.71 24.0014 46.67H24.0514C24.0514 46.66 24.0414 46.66 24.0414 46.65C24.0014 46.6 23.9714 46.55 23.9414 46.49C23.8514 46.34 23.7514 46.19 23.6514 46.04C23.6214 45.99 23.5914 45.94 23.5514 45.89C23.3814 45.62 23.2214 45.36 23.0514 45.1C23.0314 45.07 23.0214 45.05 23.0014 45.03C22.9914 45.01 22.9814 45 22.9714 44.98C22.9614 44.98 22.9414 44.97 22.9214 44.96C22.9014 44.95 22.8914 44.93 22.8714 44.89C22.8514 44.86 22.8514 44.86 22.8314 44.84C22.8014 44.79 22.7814 44.75 22.7814 44.73C22.7614 44.69 22.6414 44.47 22.6214 44.42C22.6014 44.36 22.5714 44.33 22.5514 44.31C22.4414 44.13 22.3314 43.95 22.2114 43.77C22.1814 43.78 22.1714 43.76 22.1914 43.75C22.1714 43.74 22.1514 43.72 22.1314 43.69C22.0914 43.63 22.0714 43.57 22.0714 43.54C21.9814 43.39 21.8814 43.24 21.7914 43.09C21.7614 43.04 21.7314 43 21.7014 42.95C21.6714 42.91 21.6414 42.86 21.6214 42.82C21.4814 42.59 21.3414 42.36 21.2014 42.13C21.1714 42.11 21.1414 42.08 21.1214 42.06C21.1014 41.99 21.0614 41.87 20.9714 41.75C20.9214 41.69 20.8714 41.65 20.8314 41.62L20.7614 41.56C20.7514 41.5 20.7314 41.41 20.6814 41.31C20.6614 41.27 20.6414 41.24 20.6214 41.21C20.6314 41.21 20.6314 41.2 20.6414 41.2C20.5914 41.17 20.5214 41.11 20.4514 41.01C20.3714 40.89 20.3514 40.78 20.3414 40.72L20.3214 40.69C20.1214 40.47 19.9114 40.17 19.7414 39.8C19.6914 39.69 19.6514 39.58 19.6114 39.48C19.5314 39.44 19.4214 39.36 19.3114 39.22C19.1414 38.98 19.1314 38.73 19.1314 38.64H19.1014V38.6C19.0014 38.41 18.9014 38.23 18.8014 38.05L18.7914 38.06C18.7314 38 18.6814 37.95 18.5814 37.85C18.6214 37.84 18.6514 37.84 18.6814 37.83C18.0814 36.69 17.6114 35.69 17.3514 34.87V34.86C17.1814 34.33 17.1014 33.88 17.1314 33.54V33.28C17.0014 33.17 16.8614 33.05 16.7514 32.96V32.03C16.8214 31.95 16.9014 31.88 16.9814 31.8C16.9114 31.67 16.8514 31.54 16.7814 31.41C17.0014 31.27 16.7514 30.94 17.0014 30.79C16.9714 30.53 17.1314 30.35 17.2814 30.11H17.8014C18.3714 30.11 18.9114 29.9 19.4814 29.99C19.5314 29.95 19.5814 29.93 19.6414 29.91C19.8014 29.85 19.9714 29.86 20.1414 29.87C20.2614 29.88 20.3714 29.88 20.4914 29.87C20.5914 29.86 20.7414 29.91 20.7914 29.85C20.8114 29.83 20.8314 29.82 20.8514 29.8C20.9614 29.71 21.0614 29.73 21.1714 29.77L22.6614 29.64C23.1214 29.54 23.5714 29.43 24.0614 29.52L24.4514 29.58H24.4614C24.4714 29.58 24.4814 29.59 24.4914 29.59L25.0814 30.18V30.37C25.0914 30.37 25.0914 30.38 25.0914 30.38C25.1314 30.4 25.1614 30.42 25.1914 30.45C25.1714 30.46 25.1614 30.48 25.1514 30.49C25.1314 30.47 25.1114 30.45 25.1014 30.42L25.1314 30.76C25.1514 30.75 25.1714 30.73 25.1814 30.72V31.38V31.39L25.2214 31.8C25.4414 32.07 25.4814 32.38 25.5714 32.66C25.6114 32.79 25.6714 32.93 25.6814 33.04C25.7214 33.35 25.9914 33.66 25.7114 33.99C25.6614 34.05 25.7014 34.18 25.7014 34.3L26.0714 34.52L28.0814 34.67C28.0014 34.29 27.6414 34.27 27.4414 34.08C27.3314 33.98 27.1714 33.94 27.0414 33.86C26.6214 33.59 26.5714 33.11 26.4614 32.68C26.4014 32.45 26.4714 32.19 26.4414 31.94C26.4214 31.71 26.3514 31.48 26.3214 31.25C26.2514 30.74 26.4714 30.29 26.6914 29.86H26.3814C26.2814 29.68 26.1914 29.49 26.0914 29.29C26.2514 29.24 26.4214 29.18 26.6014 29.15C26.7714 29.12 26.9514 29.12 27.1814 29.1C27.1314 29.31 26.8414 29.38 26.9314 29.61C27.1914 29.41 27.4614 29.2 27.7014 29.01H28.5514C28.5114 29.44 28.6314 29.83 28.7714 30.22C28.8514 30.44 28.9914 31.22 29.0314 31.38C28.9714 31.49 29.4214 35.78 29.4814 35.94C29.6214 36.55 29.8114 37.46 29.9214 38.58C30.0214 39.58 30.0214 40.29 30.0314 40.76C30.0514 41.85 30.1614 43.42 30.5914 45.47C31.7214 46.23 32.1714 46.23 32.3614 46.08C32.6814 45.83 32.3414 45.15 32.0314 43.29C31.9314 42.68 32.0114 43.06 31.6814 40.44C31.3914 38.18 31.3814 38.31 31.3914 38.07C31.4014 37.45 31.5014 36.67 31.2314 35.62C31.1914 35.48 31.1614 35.36 31.1314 35.28C31.1014 35.19 30.5314 31.06 30.0314 29.28C30.1114 29.25 30.1814 29.23 30.2714 29.2C30.2414 29.14 30.2114 29.09 30.1514 28.99H30.5314C30.4914 28.92 30.4514 28.86 30.4214 28.79C30.5214 28.74 30.6214 28.69 30.7614 28.62C31.3414 28.57 31.9614 28.51 32.5814 28.46C32.5814 28.48 32.5814 28.51 32.5714 28.53C32.6714 28.56 32.7614 28.59 32.9614 28.66C32.8414 28.53 32.8014 28.49 32.7614 28.44C32.7914 28.42 32.8214 28.38 32.8514 28.38C33.4114 28.39 33.9514 28.3 34.4814 28.13C34.6114 28.09 34.7714 28.14 34.9114 28.12C35.1614 28.08 35.4114 28.2 35.6814 28.02C35.8714 27.89 36.2014 28.12 36.4314 27.88C36.4514 27.86 36.5114 27.88 36.5514 27.87C37.0314 27.83 37.5214 27.84 37.9814 27.73C38.6314 27.58 39.3014 27.61 39.9414 27.38C40.1614 27.3 40.4314 27.37 40.6914 27.37C40.7514 27.94 40.6114 28.44 40.4714 28.96C40.3314 29.47 40.1814 29.98 40.2114 30.52C40.2314 30.74 40.2214 30.97 40.2214 31.28C40.0914 31.19 40.0114 31.16 39.9714 31.1C39.7914 30.82 39.7314 30.47 39.4714 30.23C39.4114 30.57 39.6714 30.81 39.7814 31.09C39.8414 31.25 39.8514 31.24 39.7214 31.54C39.7914 31.58 39.8814 31.63 39.9514 31.67V33.18C39.8314 33.28 39.6714 33.4 39.5014 33.54C39.6514 33.56 39.8014 33.59 40.0814 33.63C39.8714 33.72 39.7514 33.77 39.6414 33.83C39.5814 33.86 39.5314 33.91 39.4814 33.95C39.6314 33.97 39.7914 33.97 39.9614 33.97C39.9414 34.01 39.9314 34.07 39.9314 34.07C39.7814 34.05 39.5914 34.17 39.4514 33.97C39.3914 33.92 39.2814 33.92 39.2114 33.86C38.7414 33.44 38.1914 33.14 37.6514 32.84C37.6214 32.83 37.5714 32.85 37.5314 32.86C37.4314 33.07 37.5914 33.14 37.7314 33.21C38.1314 33.41 38.5214 33.61 38.8714 33.89C39.1314 34.09 39.4414 34.22 39.7214 34.38C39.4314 34.66 39.1814 34.22 38.8814 34.36C38.8714 34.41 38.8614 34.46 38.8514 34.54C38.9714 34.56 39.0814 34.58 39.2114 34.61C39.2214 34.67 39.2414 34.73 39.2214 34.78C39.1614 34.95 39.0814 35.12 39.0014 35.3C39.0614 35.31 39.1114 35.33 39.2014 35.34V35.8C39.1514 35.81 39.0614 35.83 39.0414 35.81C38.8914 35.61 38.7614 35.39 38.6114 35.19C38.5514 35.1 38.4514 35.03 38.3714 34.96C38.3714 35.02 38.3414 35.1 38.3714 35.14C38.6514 35.62 38.9514 36.09 39.2514 36.6C39.2114 36.7 39.1614 36.82 39.1114 36.95C39.1614 36.99 39.2114 37.03 39.3014 37.1C38.8014 37.35 38.3814 37.62 37.8414 37.58C37.8114 37.58 37.7714 37.66 37.7414 37.7C38.0314 37.67 38.3414 37.79 38.6714 37.53C38.7214 37.63 38.7714 37.74 38.8114 37.83C38.9814 37.77 39.0814 37.73 39.1614 37.7C39.1914 37.73 39.1714 37.78 39.1214 37.85C39.0014 38.01 38.7014 38.26 38.4014 38.42C38.7114 38.44 38.9414 38.45 39.2414 38.46C39.0514 38.64 38.8914 38.79 38.7614 38.92C38.8014 39.15 38.8314 39.33 38.8714 39.52C38.8714 39.52 38.8714 39.52 38.8714 39.53C38.7814 39.55 38.7214 39.57 38.6214 39.59L38.7414 39.89L38.3714 40.48L38.3414 40.51L38.2814 40.58L38.2114 40.65L38.0514 40.82L37.9814 41.22C37.9914 41.24 37.9914 41.25 38.0014 41.27C37.9814 41.33 37.9714 41.37 37.9614 41.39C37.9614 41.4 37.9514 41.4 37.9514 41.41L37.9114 41.47L37.8414 41.57L37.5014 42.09L37.2614 42.62C37.9314 42.75 38.6514 42.9 39.4214 43.06L39.7414 42.92H39.7514L40.1014 42.77C40.0914 42.71 40.0814 42.66 40.0714 42.61C40.2414 42.53 40.3614 42.47 40.4914 42.41C40.5514 42.45 40.6114 42.49 40.6914 42.55V42.21C40.8214 42.19 40.9414 42.17 41.0314 42.16C41.2014 41.88 41.3314 41.59 41.7114 41.56C41.7214 41.54 41.7214 41.52 41.7314 41.5C41.7414 41.48 41.7414 41.47 41.7514 41.46C41.7514 41.46 41.7514 41.46 41.7514 41.45L41.7614 41.44C41.8114 41.38 41.8614 41.34 41.9314 41.27C42.0114 41.33 42.0814 41.37 42.1514 41.43C42.1714 41.37 42.1914 41.31 42.2114 41.25C42.2114 41.24 42.2114 41.24 42.2214 41.24C42.2214 41.24 42.2214 41.25 42.2314 41.25C42.2714 41.31 42.3114 41.37 42.3714 41.46C42.3714 41.47 42.3814 41.47 42.3814 41.47L42.3914 41.48C42.3914 41.49 42.3914 41.49 42.4014 41.49C42.4214 41.51 42.4314 41.54 42.4514 41.56C42.4614 41.54 42.4714 41.51 42.4814 41.49C42.4814 41.48 42.4914 41.48 42.4914 41.47C42.4914 41.47 42.4914 41.47 42.4914 41.46C42.4914 41.45 42.5014 41.45 42.5014 41.44L42.5114 41.43C42.5514 41.35 42.5814 41.28 42.6114 41.22C42.6614 41.12 42.7014 41.04 42.7514 40.94C42.8514 40.93 43.0114 40.92 43.1714 40.9C43.2614 40.75 43.3614 40.6 43.4614 40.44H44.0414C44.0514 40.61 44.0614 40.81 44.0714 40.99C44.1814 41.04 44.2814 41.09 44.3814 41.14C44.4314 41.05 44.4814 40.94 44.5414 40.83C44.4014 40.56 44.3714 40.51 44.5814 40.38C44.6314 40.35 44.6914 40.31 44.7614 40.27C44.7714 40.31 44.7714 40.34 44.7814 40.37C44.7914 40.46 44.8114 40.55 44.8314 40.66H45.0314C45.0414 40.86 44.9814 41.03 44.8814 41.19C44.8314 41.27 44.7814 41.34 44.7214 41.41C44.7114 41.42 44.7014 41.43 44.7014 41.44C44.6814 41.46 44.6614 41.48 44.6514 41.5C44.6414 41.51 44.6314 41.53 44.6214 41.54C44.6014 41.57 44.5714 41.6 44.5514 41.63C44.2914 41.96 44.0814 42.32 43.8614 42.68C43.7714 42.83 43.6814 42.99 43.5814 43.13C43.5214 43.23 43.4714 43.32 43.4314 43.43C43.4214 43.46 43.4114 43.49 43.4014 43.52C43.3914 43.55 43.3814 43.58 43.3714 43.61C43.3714 43.62 43.3614 43.63 43.3614 43.64C43.3614 43.65 43.3614 43.66 43.3514 43.66C43.3314 43.73 43.5814 43.93 43.7114 43.95C43.7214 43.85 43.7414 43.76 43.7714 43.66C43.7814 43.64 43.7814 43.62 43.7914 43.61C43.7914 43.6 43.7914 43.6 43.7914 43.59C43.8014 43.56 43.8114 43.53 43.8214 43.5C43.8314 43.47 43.8414 43.45 43.8514 43.43C43.9614 43.16 44.1214 42.9 44.3314 42.66L44.3514 42.64C44.5314 42.44 44.6314 42.18 44.9214 42.08C44.9814 42.06 45.0414 41.97 45.0614 41.9C45.0814 41.82 45.1114 41.74 45.1314 41.66C45.1414 41.62 45.1614 41.58 45.1714 41.55C45.1814 41.54 45.1814 41.52 45.1914 41.51C45.2014 41.48 45.2114 41.46 45.2314 41.44C45.2314 41.42 45.2414 41.41 45.2514 41.39C45.2814 41.32 45.3214 41.25 45.3514 41.18C45.5014 40.89 45.6714 40.62 45.8514 40.35C45.8714 40.32 45.8814 40.3 45.9014 40.27C45.9614 40.29 46.0114 40.32 46.0514 40.35C46.1214 40.4 46.1714 40.48 46.2014 40.61C46.2414 40.81 46.3014 41 46.3614 41.19C46.3814 41.25 46.4014 41.31 46.4214 41.37C46.4314 41.4 46.4414 41.44 46.4514 41.47C46.4614 41.5 46.4714 41.54 46.4814 41.57C46.4914 41.58 46.4914 41.6 46.4914 41.61C46.5114 41.67 46.5314 41.72 46.5514 41.78C46.5614 41.8 46.5614 41.81 46.5714 41.83C46.6814 42.15 46.7914 42.47 46.9014 42.79C46.9714 42.99 47.0414 43.19 47.1114 43.39C47.1314 43.44 47.1414 43.49 47.1614 43.53V43.54C47.1614 43.55 47.1714 43.56 47.1714 43.57C47.1814 43.59 47.1814 43.61 47.1914 43.62C47.2314 43.73 47.2614 43.83 47.3014 43.94C47.4014 44.24 47.5214 44.53 47.6114 44.84C47.9914 44.93 48.3814 45.01 48.7714 45.11C48.7814 45.07 48.7914 45.04 48.8014 45.01C48.8614 44.69 48.7514 44.38 48.6114 44.07C48.5914 44.02 48.5714 43.98 48.5514 43.94C48.5014 43.84 48.4614 43.73 48.4214 43.62V43.61C48.4214 43.61 48.4214 43.61 48.4214 43.6C48.4214 43.59 48.4114 43.59 48.4114 43.59C48.3814 43.51 48.3514 43.43 48.3214 43.35C48.2814 43.25 48.2414 43.15 48.2114 43.04C48.1914 43 48.1714 42.95 48.1614 42.91C48.1314 42.85 48.1114 42.79 48.0914 42.73C48.0714 42.68 48.0614 42.64 48.0414 42.59C47.9614 42.36 47.8614 42.12 47.7914 41.88C47.7714 41.81 47.7514 41.74 47.7314 41.67C47.7314 41.66 47.7214 41.65 47.7214 41.64C47.7114 41.6 47.7014 41.56 47.7014 41.52C47.7014 41.51 47.7014 41.51 47.7014 41.5C47.6914 41.45 47.6814 41.41 47.6714 41.37C47.6514 41.32 47.6414 41.27 47.6214 41.23C47.5114 40.94 47.3614 40.66 47.4214 40.35C47.4314 40.31 47.4414 40.26 47.4614 40.22C47.6914 40.04 47.9114 39.88 48.1414 39.71C48.2314 39.69 48.3214 39.67 48.4214 39.64C48.6414 39.57 48.8614 39.46 49.0514 39.7C49.1714 39.76 49.2914 39.82 49.4014 39.87C49.4614 40.05 49.4314 40.19 49.3514 40.32C49.2714 40.46 49.1514 40.58 49.0714 40.71C49.0114 40.81 48.9514 40.91 48.8814 41.01C48.8614 41.03 48.8514 41.05 48.8314 41.07C48.7814 41.14 48.7114 41.19 48.6414 41.25C48.5814 41.29 48.5114 41.33 48.4414 41.36C48.3914 41.38 48.3314 41.4 48.2714 41.41C48.3414 41.46 48.3914 41.5 48.4314 41.53C48.5114 41.6 48.5714 41.64 48.6214 41.68L48.6314 41.69C48.6414 41.69 48.6414 41.68 48.6514 41.68C48.7914 41.63 48.9014 41.59 49.0214 41.55C49.0514 41.54 49.0914 41.52 49.1314 41.51C49.1414 41.53 49.1414 41.54 49.1514 41.55C49.1714 41.61 49.2014 41.66 49.2114 41.71C49.2214 41.72 49.2214 41.72 49.2214 41.72C49.2614 41.81 49.2814 41.89 49.3014 41.98C49.3214 42.07 49.3314 42.17 49.3214 42.27C49.2914 42.52 49.2314 42.76 49.2014 43.01C49.1814 43.12 49.1814 43.23 49.1814 43.35C49.1814 43.39 49.1914 43.43 49.1914 43.46C49.1414 43.52 49.1114 43.57 49.0914 43.63C49.0914 43.64 49.0914 43.64 49.0914 43.64C49.0514 43.77 49.0614 43.91 49.0714 44.04C49.0814 44.14 49.0914 44.24 49.0714 44.33C49.0314 44.55 48.9814 44.78 48.9614 45C48.9614 45.05 48.9514 45.09 48.9514 45.13C49.0914 45.16 49.2314 45.2 49.3814 45.23C49.3914 45.16 49.3914 45.08 49.3914 45.01C49.4114 44.76 49.4214 44.52 49.4314 44.27C49.4414 44.14 49.3814 43.97 49.4314 43.87C49.4414 43.86 49.4414 43.85 49.4514 43.84C49.4714 43.82 49.4814 43.8 49.4914 43.78C49.5214 43.74 49.5314 43.69 49.5414 43.65V43.64V43.63C49.5514 43.62 49.5514 43.6 49.5514 43.59C49.5614 43.5 49.5514 43.41 49.5414 43.32C49.5414 43.24 49.5414 43.16 49.5714 43.08C49.5814 43.06 49.5914 43.04 49.6014 43.02C49.6914 42.77 49.6914 42.52 49.6914 42.26C49.6914 42.17 49.6914 42.07 49.6914 41.98V41.78C49.7214 41.85 49.7514 41.91 49.7714 41.98C49.9014 42.33 49.9514 42.69 49.9714 43.06C49.9814 43.13 49.9814 43.2 49.9814 43.26C50.0314 43.2 50.0514 43.15 50.0614 43.09C50.0614 43.08 50.0614 43.07 50.0614 43.06C50.0914 42.71 50.0614 42.35 50.0514 41.99C50.0514 41.9 50.0414 41.8 50.0414 41.7C50.0414 41.64 50.0414 41.58 50.0514 41.52C50.0514 41.44 50.0614 41.36 50.0714 41.28C50.0714 41.27 50.0714 41.26 50.0714 41.24C50.0814 41.19 50.0814 41.14 50.0914 41.09C50.1014 41.05 50.1114 41 50.1214 40.96C50.1414 40.88 50.1614 40.79 50.1914 40.71C50.2114 40.66 50.1914 40.57 50.1614 40.54C50.0714 40.45 50.0614 40.35 50.0614 40.25C50.0714 40.15 50.0914 40.05 50.0714 39.95C50.2614 39.84 50.1614 39.64 50.2314 39.44C50.2414 39.4 50.2614 39.36 50.2914 39.32C50.3214 39.37 50.3514 39.41 50.3714 39.44C50.5214 39.6 50.6814 39.51 50.8514 39.44C50.9214 39.41 50.9914 39.38 51.0614 39.38C50.9814 39.09 50.6814 39.38 50.5614 39.19C50.6014 39.15 50.6414 39.1 50.7214 39.02H50.2114V38.39C50.4314 38.4 50.4914 38.32 50.3714 38.12C50.2714 38.16 50.1814 38.2 50.0514 38.26C50.0614 38.13 50.0614 38.03 50.0814 37.94C50.0814 37.92 50.1514 37.91 50.1814 37.9C50.1914 37.87 50.1914 37.83 50.1914 37.8C50.2214 37.48 50.1314 37.17 50.2814 36.83C50.4214 36.5 50.2414 36.08 50.4414 35.71C50.3114 35.63 50.2014 35.56 50.0514 35.47V34.73C49.9114 34.59 49.7914 34.48 49.6714 34.35C49.7414 33.59 49.6414 32.83 49.7814 32.06C49.9014 31.42 49.8114 30.75 49.8014 30.08C49.7914 29.42 49.9914 28.76 49.9314 28.09C49.8914 27.72 49.9214 27.35 49.9214 26.98C49.8814 27.01 49.8014 27.04 49.8014 27.08C49.7514 27.94 49.7114 28.81 49.6714 29.68C49.6614 29.97 49.7214 30.27 49.6614 30.54C49.4014 31.69 49.6414 32.85 49.5214 34.03H49.1114C49.0214 33.95 48.9014 33.84 48.7714 33.73C48.8114 33.66 48.8314 33.6 48.8614 33.56C48.9714 33.4 49.2214 33.33 49.1714 33.07C48.9914 33.22 48.8014 33.38 48.6014 33.55C48.5114 33.44 48.4314 33.3 48.3114 33.2C48.2014 33.09 48.0614 33.01 47.9214 32.91C48.0614 32.77 48.1814 32.64 48.3814 32.43C48.1514 32.5 48.0214 32.54 47.8714 32.58C47.8314 32.5 47.7914 32.42 47.7514 32.33H47.4814C47.1614 32.13 46.9214 31.98 46.6714 31.83C46.5214 31.74 46.4114 31.65 46.4414 31.46C46.3914 31.49 46.3314 31.51 46.2414 31.55C46.0914 31.43 45.7714 31.45 45.8214 31.09C45.7714 31.11 45.7214 31.14 45.6314 31.18C45.4714 31.08 45.2914 30.96 45.0714 30.81V30.47C45.0014 30.55 44.9414 30.63 44.8614 30.74C44.8414 30.6 44.8214 30.49 44.8014 30.38C44.7814 30.37 44.7614 30.37 44.7414 30.37C44.7114 30.52 44.6914 30.67 44.6614 30.83H44.3414C44.3214 30.71 44.3114 30.6 44.2814 30.37C44.2214 30.54 44.2014 30.6 44.1614 30.69H43.5714C43.6714 30.56 43.7614 30.44 43.9214 30.25C43.7314 30.26 43.6314 30.27 43.4514 30.29C43.2614 30.12 43.2914 29.86 43.2114 29.65C43.1214 29.42 43.1414 29.14 43.0514 28.91C42.8714 28.46 42.7314 28 42.7014 27.51C42.6914 27.42 42.6214 27.34 42.5714 27.24C42.6914 26.92 43.0314 26.94 43.2514 26.9C43.5214 26.85 43.7914 26.79 44.0614 26.76C44.3214 26.73 44.5814 26.8 44.8114 26.63C44.8414 26.61 44.8914 26.62 44.9314 26.63C45.6014 26.72 46.2514 26.47 46.9214 26.5C47.1314 26.51 47.3414 26.42 47.5514 26.39C47.7414 26.36 47.9614 26.44 48.1214 26.26C48.7114 26.35 49.2714 26.09 49.9014 26.14V27C49.9414 26.97 50.0214 26.94 50.0214 26.9C50.0314 26.65 50.0314 26.41 50.0314 26.18C50.1314 26.1 50.2014 26.04 50.3014 25.96C50.3814 26.07 50.4414 26.15 50.5414 26.3C50.5614 26.38 50.4614 26.58 50.6614 26.84V26.14C50.8714 26.71 50.9914 27.29 51.1514 27.87C51.2714 28.28 51.3114 28.55 51.4814 29.28C51.5914 29.75 51.7514 30.42 51.9414 31.24C52.1314 32 52.3914 33.01 52.7414 34.36C53.0714 35.65 53.3514 36.36 53.5614 37.18C53.6214 37.4 53.7114 37.61 53.7914 37.82C53.8614 38.02 54.2414 39.34 54.2414 39.46C54.2414 39.51 54.5814 40.74 54.7314 40.99L54.7414 41C54.7814 41.07 54.8114 41.13 54.8514 41.2C54.8714 41.24 54.8914 41.29 54.9114 41.33C54.9414 41.39 54.9614 41.45 54.9814 41.51C54.9914 41.52 54.9914 41.53 54.9914 41.53C55.0014 41.57 55.0214 41.6 55.0314 41.64C55.0614 41.71 55.0814 41.78 55.1114 41.85C55.1314 41.9 55.1414 41.94 55.1614 41.99C55.2014 42.09 55.2314 42.2 55.2714 42.31C55.2914 42.39 55.3214 42.47 55.3414 42.55C55.4314 42.91 55.7114 43.7 55.7114 43.77C55.7114 43.93 55.7714 44.08 55.8314 44.23C55.8314 44.24 55.8414 44.24 55.8414 44.25C55.8714 44.32 55.9014 44.39 55.9414 44.46C55.9714 44.52 55.9914 44.58 56.0114 44.65C56.0214 44.67 56.0214 44.69 56.0314 44.71C56.0614 44.81 56.1014 44.91 56.1314 45.02C56.1514 45.08 56.1714 45.14 56.2014 45.2C56.2214 45.27 56.2514 45.33 56.2814 45.4C56.3714 45.63 56.4714 45.86 56.5614 46.09C56.5814 46.13 56.5914 46.17 56.6114 46.21C56.6314 46.26 56.6514 46.31 56.6714 46.36C56.7314 46.52 56.8014 46.68 56.8714 46.84C56.8914 46.89 56.9114 46.94 56.9314 46.99C56.9314 47 56.9414 47 56.9414 47.01C57.2214 46.84 57.4714 46.87 57.7214 46.89ZM52.0514 23.03H52.1714V23.07H52.0514V23.03ZM51.9714 19.88H52.0114V20H51.9714V19.88ZM33.6014 25.72H33.6414V25.84H33.6014V25.72ZM30.4114 26.07C30.8614 25.95 31.2914 26.02 31.7214 25.96C32.1714 25.91 32.6114 25.77 33.0414 25.9C32.7914 26 32.5514 25.93 32.3214 26.07C32.1314 26.19 31.8414 25.97 31.6314 26.2C31.6014 26.23 31.5114 26.21 31.4514 26.21C30.9714 26.25 30.4814 26.24 30.0214 26.35C29.7214 26.42 29.4414 26.45 29.1314 26.46C29.1114 26.41 29.0914 26.36 29.0714 26.29C29.5014 26.03 29.9914 26.18 30.4114 26.07ZM16.8514 35.98C16.8914 36.1 16.9314 36.23 16.9714 36.36H16.2214C16.2114 36.34 16.2114 36.32 16.2014 36.31C16.3114 36.28 16.4314 36.26 16.5514 36.23V36.02C16.4714 36.07 16.4214 36.1 16.3414 36.15V35.29H16.6414C16.7114 35.51 16.7814 35.74 16.8514 35.98ZM24.1114 26.95H23.9014V26.6H24.1114V26.95ZM25.5014 27.44C25.3814 27.45 25.3014 27.45 25.2214 27.46C24.6914 26.97 24.6114 26.59 24.9014 25.86H25.3214C25.3814 25.98 25.4414 26.11 25.5114 26.24C25.4514 26.3 25.4114 26.35 25.3614 26.41C25.5814 26.73 25.4714 27.08 25.5014 27.44ZM27.9114 25.71C27.9914 25.82 28.1914 25.86 28.0514 26.09C27.9614 25.98 27.7814 25.94 27.9114 25.71ZM27.8214 26.64C27.9214 26.58 27.9914 26.53 28.0714 26.48C28.1214 26.65 28.1414 26.78 27.8214 26.64ZM27.8514 24.61C27.7514 24.87 27.5814 24.87 27.3714 24.84C27.4714 24.58 27.6414 24.58 27.8514 24.61ZM26.8214 27.08V26.96V27.08ZM26.2814 26.34C26.3414 26.41 26.4014 26.49 26.4514 26.62C26.3914 26.54 26.3214 26.48 26.2414 26.42C26.2414 26.94 26.0714 27.2 25.8714 27.5C25.4314 27.04 25.6914 26.49 25.6414 25.98C25.8014 26.19 26.0414 26.28 26.2414 26.42V26.33C26.2614 26.33 26.2714 26.34 26.2814 26.34C26.1614 26.2 26.0714 26.14 26.2014 26.05C26.2314 26.03 26.1314 25.86 26.1214 25.75C26.1014 25.63 26.1214 25.51 26.1214 25.4C26.4514 25.14 26.8214 25.24 27.1814 25.21C27.2514 25.14 27.3214 25.07 27.4114 24.98H27.8314C27.8414 25.03 27.8614 25.09 27.8614 25.14C27.8214 25.39 27.7714 25.64 27.7514 25.89C27.7414 25.97 27.8114 26.06 27.8714 26.21C27.7414 26.25 27.5914 26.29 27.4514 26.33C27.3014 26.37 27.1514 26.4 26.9714 26.44C26.7814 26.27 26.5214 26.36 26.2814 26.34ZM27.0514 26.96C27.1614 26.52 27.1614 26.52 27.5914 26.46V26.79C27.4114 26.84 27.2314 26.9 27.0514 26.96ZM27.9914 27.18H27.6014C27.5014 27.12 27.4214 27.08 27.3014 27.01C27.5914 26.94 27.8114 26.88 28.1014 26.82C28.0614 26.96 28.0314 27.07 27.9914 27.18ZM39.2314 38H39.1914V37.88H39.2314V38ZM39.4814 37.01H39.4414V36.88H39.4814V37.01ZM39.6214 36.38C39.5414 36.37 39.4614 36.39 39.4414 36.36C39.3614 36.23 39.3114 36.09 39.2314 35.91C39.3814 35.9 39.4914 35.89 39.6214 35.88V36.38ZM39.5414 35.7C39.5314 35.53 39.5214 35.42 39.5114 35.24C39.6714 35.31 39.7814 35.36 39.9614 35.45C39.7814 35.55 39.6914 35.61 39.5414 35.7ZM40.6414 21.17C40.5314 20.84 40.4914 20.5 40.3814 20.16C40.2814 19.85 40.3314 19.5 40.1414 19.2C40.1114 19.16 40.1214 19.08 40.1314 19.02C40.2414 18.45 39.9314 18 39.7014 17.52C39.5114 17.14 39.3114 16.77 39.2614 16.35C39.3314 16.28 39.3914 16.23 39.4814 16.13C39.6714 16.16 39.9314 16.29 40.1014 16.22C40.3514 16.12 40.5914 16.21 40.8014 16.15C41.0914 15.97 41.3714 15.8 41.7114 15.6C41.7814 16.25 41.7214 16.83 41.7614 17.46C41.6314 17.55 41.4714 17.65 41.3814 17.7C41.3814 18.39 41.3314 18.98 41.4014 19.55C41.4514 19.93 41.4914 20.32 41.6114 20.69C41.7114 21.03 41.6314 21.43 41.6314 21.72C41.4614 22.01 41.3214 22.24 41.1814 22.48C40.8314 22.12 40.8014 21.62 40.6414 21.17ZM40.1414 41.04C40.3014 40.74 40.3014 40.74 40.6314 40.79C40.4814 41.1 40.4814 41.1 40.1414 41.04ZM40.6314 31.38H40.5114V31.34H40.6314V31.38ZM40.6614 40.58C40.6514 40.56 40.6514 40.54 40.6514 40.52C40.7214 40.5 40.7814 40.49 40.8514 40.47C40.8514 40.51 40.8614 40.54 40.8614 40.58H40.6614ZM41.0814 32.01C41.2514 32.53 40.9214 32.94 40.9714 33.39C40.8814 32.94 40.7914 32.49 41.0814 32.01ZM41.0914 39.61H41.0514V39.49H41.0914V39.61ZM41.2414 33.51L41.1714 33.52C41.1514 33.41 41.1414 33.3 41.1214 33.19C41.1614 33.19 41.1914 33.19 41.2314 33.19V33.51H41.2414ZM41.3514 33.91H41.2914V33.66H41.3514V33.91ZM41.3814 32.92C41.3414 32.87 41.2614 32.82 41.2614 32.76C41.2514 32.5 41.2514 32.24 41.2514 31.95C41.3214 31.94 41.3914 31.93 41.5014 31.91V32.29C41.7414 32.26 41.5614 32.05 41.6614 31.94C41.7014 31.93 41.7514 31.92 41.8314 31.91C41.7114 32.42 41.5814 32.9 41.4514 33.45C41.3314 33.25 41.4114 33.07 41.3814 32.92ZM41.6414 31.47C41.7214 31.41 41.8114 31.34 41.9114 31.27C41.9514 31.3 41.9814 31.33 42.0214 31.36C41.9614 31.47 41.9114 31.57 41.8414 31.7C41.7614 31.62 41.7114 31.56 41.6414 31.47ZM41.5914 38H41.5514V37.88H41.5914V38ZM41.7114 39.99H41.6714V39.87H41.7114V39.99ZM41.7114 39.61H41.6714V39.49H41.7114V39.61ZM41.8314 37.5H41.7914V37.38H41.8314V37.5ZM41.9714 37.25C41.9614 37.26 41.9414 37.24 41.8614 37.21C41.8914 37.18 41.9014 37.16 41.9214 37.15C42.0014 37.08 42.0614 36.95 42.2114 37.03C42.2314 37.04 42.2414 37.06 42.2514 37.07C42.1614 37.13 42.0614 37.2 41.9714 37.25ZM42.1114 39.31C42.0814 39.33 42.0614 39.34 42.0314 39.36C42.0214 39.34 42.0214 39.33 42.0114 39.31C41.9614 39.16 42.0214 39.12 42.1714 39.1C42.2214 39.09 42.2514 38.95 42.3014 38.87C42.3614 38.93 42.4214 38.99 42.5014 39.07C42.3814 39.16 42.2514 39.24 42.1114 39.31ZM42.7014 39.49H42.6614V39.37H42.7014V39.49ZM43.1714 38.98C43.1614 38.97 43.1414 38.95 43.1314 38.94C43.1614 38.91 43.2014 38.88 43.2314 38.85C43.2314 38.91 43.2014 38.95 43.1714 38.98ZM43.1614 35.77V35.64H43.2014V35.77H43.1614ZM43.4614 39.31C43.4014 39.35 43.3214 39.37 43.2214 39.32L43.2314 39.31C43.3514 39.2 43.4414 39.1 43.5314 39.01H43.8314C43.6714 39.01 43.6014 39.23 43.4614 39.31ZM43.2514 38.88C43.2514 38.82 43.2814 38.79 43.3114 38.76C43.3214 38.77 43.3414 38.79 43.3514 38.8C43.3214 38.83 43.2914 38.85 43.2514 38.88ZM43.9814 40.07H43.8614V40.03H43.9814V40.07ZM44.3614 39.96H44.1114V39.9H44.3614V39.96ZM44.2714 36.76V36.51H44.3314V36.76H44.2714ZM44.3614 34.86H44.2314V34.82H44.3614V34.86ZM44.4014 37.23C44.4914 36.88 44.4914 36.88 44.8414 36.77C44.9114 37.13 44.5414 37.09 44.4014 37.23ZM44.5214 33.66V33.53H44.5614V33.65H44.5214V33.66ZM44.8714 37.27C44.8614 37.26 44.8514 37.26 44.8514 37.25C44.8414 37.31 44.8114 37.34 44.7914 37.37C44.7814 37.36 44.7614 37.34 44.7514 37.33C44.7814 37.3 44.8214 37.27 44.8514 37.24C44.8514 37.25 44.8614 37.26 44.8714 37.27C44.8714 37.21 44.9014 37.18 44.9314 37.15C44.9414 37.16 44.9614 37.18 44.9714 37.19C44.9314 37.21 44.9014 37.24 44.8714 37.27ZM45.3914 40.19C45.3614 40.29 45.3314 40.39 45.3014 40.48H45.1114C45.1314 40.38 45.1614 40.29 45.1914 40.19L45.2414 40.05C45.1514 40 45.0714 39.97 44.9014 39.89H45.4914C45.4514 39.99 45.4214 40.09 45.3914 40.19ZM44.9814 37.47V37.41H45.2314V37.47H44.9814ZM45.7214 35.46C45.9414 35.39 46.1414 35.32 46.3914 35.24C46.2814 35.22 46.2114 35.16 46.1014 35.07C46.0014 34.67 46.4714 34.58 46.6214 34.29H47.0914V34.65C47.2114 34.62 47.3314 34.6 47.4514 34.57C47.2914 34.94 46.9014 35.33 46.4614 35.54C46.5714 35.37 46.6614 35.24 46.7514 35.09C46.6814 35.07 46.6414 35.04 46.6314 35.06C46.5514 35.12 46.4714 35.18 46.3914 35.24C46.3714 35.25 46.3614 35.26 46.3514 35.27C46.2314 35.4 46.1114 35.52 45.9614 35.67C45.8914 35.61 45.8214 35.55 45.7214 35.46ZM47.3914 34.34C47.5014 34.2 47.5714 34.11 47.7014 33.95V34.41C47.6014 34.39 47.5314 34.37 47.3914 34.34ZM45.9814 36.11V35.91H46.3514C46.1614 36.02 46.0814 36.06 45.9814 36.11ZM46.3114 37C46.4014 36.78 46.4314 36.71 46.4714 36.63C46.4114 36.63 46.3314 36.65 46.2914 36.62C46.2214 36.58 46.1714 36.51 46.1014 36.43C46.3614 36.33 46.3314 35.82 46.8214 35.98C46.8514 35.95 46.9014 35.89 46.9514 35.82C46.9214 35.78 46.8914 35.72 46.8214 35.6C47.0914 35.36 47.3014 35.04 47.7014 34.83C47.7114 35.02 47.7214 35.16 47.7314 35.28C47.6014 35.44 47.4714 35.6 47.3514 35.75C47.4414 35.72 47.5314 35.69 47.6214 35.67C47.7014 35.65 47.7714 35.64 47.8514 35.63C47.7914 35.37 48.0514 35.31 48.1514 35.13C48.2314 35.53 48.2314 35.53 47.8514 35.63C47.7514 35.74 47.6614 35.84 47.4814 36.03C47.4814 36.05 47.4814 36.12 47.4714 36.18C47.1114 36.44 46.7614 36.68 46.3114 37ZM46.6114 37.64C46.6014 37.64 46.6014 37.63 46.6014 37.63C46.6014 37.64 46.5914 37.65 46.5914 37.65C46.5714 37.68 46.5514 37.71 46.5314 37.74C46.5114 37.73 46.5014 37.71 46.4914 37.7C46.5114 37.68 46.5314 37.66 46.5514 37.65C46.5614 37.64 46.5814 37.62 46.5914 37.61C46.6014 37.62 46.6014 37.62 46.6014 37.63C46.6214 37.61 46.6414 37.59 46.6614 37.57C46.6414 37.59 46.6214 37.61 46.6114 37.64ZM47.2314 39.47C47.2314 39.45 47.2214 39.43 47.2214 39.41C47.2914 39.39 47.3614 39.38 47.4214 39.36C47.4314 39.39 47.4314 39.43 47.4414 39.47H47.2314ZM47.5314 37.65C47.4014 37.72 47.2414 37.75 47.0414 37.76C47.0814 37.71 47.1114 37.68 47.1314 37.65C47.1614 37.61 47.1814 37.59 47.2014 37.58C47.4414 37.43 47.6814 37.29 47.9114 37.15C47.8414 37.4 47.7114 37.56 47.5314 37.65ZM47.7014 37.07C47.4614 37.22 47.2014 37.35 46.9414 37.5H46.7214V37.38H46.4614C46.4814 37.08 46.7014 36.97 46.8514 36.83C46.9914 36.7 47.1814 36.62 47.3414 36.51C47.5214 36.39 47.6914 36.26 47.8714 36.14C48.0214 36.03 47.9914 35.74 48.3014 35.77C48.3114 35.85 48.3314 35.94 48.3414 36.03C48.1714 36.24 48.0014 36.43 47.8314 36.64C47.9814 36.6 48.1214 36.56 48.2714 36.52C48.1114 36.8 48.1214 36.81 47.7014 37.07ZM49.6814 38.72C49.6314 38.73 49.5714 38.73 49.5114 38.75C49.2714 38.85 49.1014 38.49 48.8414 38.66C48.6714 38.77 48.4614 38.81 48.2514 38.89C48.2714 38.54 48.6114 38.56 48.7514 38.39H49.6814V38.72ZM49.8814 36.88H49.5814C49.5614 36.56 49.5614 36.28 49.8914 36.09C49.9414 36.32 49.9814 36.52 50.0214 36.73C49.9914 36.77 49.9414 36.83 49.8814 36.88ZM49.7514 34.71C49.8314 35.04 49.8914 35.31 49.9714 35.63H49.6214C49.5514 35.42 49.5014 35.22 49.4214 34.98C49.5114 34.91 49.6114 34.83 49.7514 34.71ZM49.1114 36.64H49.1514V36.76H49.1114V36.64ZM49.2814 37.65C49.3914 37.47 49.5014 37.3 49.6014 37.13H49.9214C49.9314 37.26 49.9414 37.39 49.9514 37.52C49.9214 37.56 49.8814 37.61 49.8514 37.65C49.7714 37.75 49.7014 37.85 49.6114 37.97C49.4614 37.98 49.3114 38.26 49.0314 38.03C49.1114 37.91 49.2014 37.78 49.2814 37.65ZM48.9914 37.01H49.0314V37.13H48.9914V37.01ZM48.8714 37.38H48.9114V37.5H48.8714V37.38ZM48.6414 36.51C48.5714 36.44 48.5314 36.4 48.5214 36.38C48.6114 36.27 48.7014 36.15 48.8014 36.04C48.9014 36.23 48.8114 36.37 48.6414 36.51ZM48.7814 35.25C48.8114 35.55 48.8214 35.71 48.8414 35.95C48.6714 35.86 48.5814 35.82 48.4514 35.75C48.5414 35.6 48.6214 35.49 48.7814 35.25ZM48.4414 34.8C48.4814 34.8 48.5214 34.79 48.5514 34.79V35.12C48.5314 35.12 48.5114 35.12 48.4814 35.13C48.4814 35.02 48.4614 34.91 48.4414 34.8ZM48.6014 34.61C48.3314 34.69 48.2414 34.55 48.1814 34.29C48.4814 34.26 48.5514 34.4 48.6014 34.61ZM48.1114 33.78H48.1714V34.03H48.1114V33.78ZM48.1514 34.78C48.0414 34.89 47.9414 34.99 47.8614 35.08V34.61C48.0014 34.68 48.0914 34.74 48.1514 34.78ZM47.5514 33.11C47.6614 33.2 47.7514 33.27 47.8314 33.33V33.63C47.8314 33.63 47.8414 33.63 47.8414 33.64L47.8314 33.65V33.68C47.8414 33.69 47.8514 33.71 47.8614 33.72C47.8914 33.68 47.9214 33.7 47.9414 33.73C47.9314 33.75 47.9114 33.76 47.9014 33.77C47.8914 33.75 47.8714 33.74 47.8614 33.72C47.8514 33.73 47.8414 33.75 47.8314 33.77V33.68C47.8214 33.67 47.8214 33.67 47.8214 33.66C47.8314 33.65 47.8314 33.65 47.8314 33.64V33.62C47.6014 33.56 47.4714 33.46 47.3214 33.34C47.4014 33.28 47.4614 33.21 47.5514 33.11ZM46.9314 32.49C47.1014 32.66 47.2214 32.78 47.3714 32.93C47.3214 33.04 47.2714 33.16 47.2214 33.25C47.0714 33.1 46.9314 32.97 46.7714 32.8C46.7914 32.76 46.8514 32.65 46.9314 32.49ZM46.9614 33.66C47.1214 33.68 47.2814 33.68 47.4914 33.68C47.4414 33.85 47.4014 34 47.3514 34.16C47.2214 34.1 47.1514 34.06 47.0614 34.04C46.9914 34.02 46.9114 34.02 46.8514 34.01C46.9014 33.88 46.9414 33.78 46.9814 33.68C46.8414 33.76 46.7014 33.85 46.6014 33.97C46.3414 34.29 46.1014 34.62 45.8414 34.94C45.7614 35.04 45.6514 35.1 45.5514 35.18C45.3714 34.95 45.5314 34.81 45.5914 34.65H45.2914C45.2014 34.51 45.1014 34.36 45.0014 34.21C45.3514 33.86 45.5814 33.42 45.7214 32.92C45.4714 32.95 45.5014 33.21 45.3614 33.35C45.2714 33.44 45.2314 33.57 45.1514 33.73C45.0214 33.63 44.9314 33.55 44.8514 33.49V33.17C44.6814 33.03 44.5114 32.89 44.3414 32.75C44.3914 32.69 44.4314 32.65 44.4714 32.61C44.4314 32.56 44.3914 32.52 44.3214 32.44C44.4314 32.31 44.5414 32.17 44.6714 32.03C44.8214 32.1 44.9514 32.17 45.0814 32.23C45.0914 32.33 45.0914 32.43 45.1014 32.51C45.3014 32.47 45.4814 32.44 45.7114 32.4V32.93C45.7714 32.86 45.8214 32.8 45.8814 32.72C46.2514 32.71 46.3314 32.78 46.4514 33.18C46.9414 33.18 46.9514 33.18 46.9614 33.66ZM46.6514 32.19C46.6714 32.35 46.6814 32.5 46.7014 32.63C46.4514 32.75 46.3014 32.53 46.0514 32.47C46.1114 32.32 46.1714 32.18 46.2414 32.01C46.4214 32.09 46.5514 32.15 46.6514 32.19ZM44.8514 31.46C45.0714 31.51 45.2514 31.55 45.4614 31.59C45.4714 31.63 45.4814 31.68 45.5014 31.8C45.5614 31.76 45.6114 31.73 45.6914 31.67C45.8014 31.72 45.9414 31.78 46.1014 31.86C46.0414 31.99 45.9914 32.13 45.9314 32.27C45.6114 32.4 45.5114 32.18 45.4114 31.92C45.1614 32.23 44.9614 31.95 44.6614 31.86C44.7514 31.69 44.8014 31.56 44.8514 31.46ZM44.2914 31.17C44.6014 31.33 44.6014 31.33 44.5414 31.72C44.2614 31.57 44.1514 31.42 44.2914 31.17ZM44.3614 32.22C44.2514 32.14 44.0114 31.87 44.0014 31.84C44.2814 31.97 44.3014 31.98 44.3614 32.22ZM43.6814 34.75C43.6214 34.46 43.6814 34.3 43.9614 34.13C43.9714 34.35 43.9814 34.54 43.9914 34.75H43.6814ZM43.8314 30.68C43.8414 30.78 43.8614 30.88 43.8714 30.98C43.8914 31 43.9214 31.02 43.9614 31.04C43.9214 31.04 43.8914 31.04 43.8514 31.05C43.8514 31.06 43.8614 31.08 43.8614 31.09C43.9714 31.15 43.9714 31.21 43.9814 31.28C43.9514 31.29 43.9314 31.29 43.9014 31.29C43.8914 31.22 43.8714 31.16 43.8614 31.09C43.8314 31.07 43.8014 31.06 43.7614 31.05C43.8014 31.05 43.8414 31.04 43.8714 31.04C43.8714 31.02 43.8714 31 43.8614 30.98C43.7514 30.88 43.7414 30.78 43.7414 30.68C43.7714 30.69 43.8014 30.69 43.8314 30.68ZM43.2714 32.05C43.5814 32.34 43.4714 32.7 43.4914 33.04H43.6914C43.7314 33.18 43.7714 33.32 43.8214 33.48C43.6814 33.8 43.5214 34.16 43.3714 34.51H43.0114C43.0514 34.42 43.1014 34.35 43.1214 34.27C43.1414 34.19 43.1214 34.11 43.1214 34.03C42.9414 34.11 42.7514 34.17 42.6814 34.42C42.4814 33.96 42.8514 33.62 42.8914 33.22C42.9314 32.82 43.1314 32.45 43.2714 32.05ZM42.8114 32.9C42.7614 33.16 42.6514 33.41 42.5514 33.72C42.4914 33.8 42.3814 33.93 42.2514 34.1C42.1814 34.01 42.1314 33.97 42.1314 33.93C42.1014 33.67 42.3314 33.45 42.2514 33.18C42.3414 33.07 42.3614 32.95 42.3714 32.82C42.2614 33.07 42.1314 33.37 41.9814 33.73C41.9714 33.78 41.9614 33.83 41.9614 33.88C41.9514 33.95 41.8814 34.02 41.8114 34.14C41.8714 34 41.9214 33.86 41.9814 33.74C42.0514 33.31 42.2114 32.9 42.3014 32.46C41.6314 33.99 41.5814 33.95 41.5314 33.9C41.6014 33.63 41.6714 33.36 41.7414 33.09C41.8214 32.8 41.9114 32.5 41.9714 32.2C42.0314 31.95 42.1714 31.85 42.3414 31.63C42.3814 31.92 42.3514 32.19 42.3014 32.46C42.4014 32.24 42.5014 31.98 42.6314 31.69C42.5814 31.9 42.5814 32.11 42.4814 32.27C42.3714 32.44 42.3914 32.64 42.3714 32.83C42.8814 31.7 42.9714 31.7 43.0814 31.7C43.0914 31.76 43.1114 31.81 43.1114 31.87C43.1314 32.23 42.8814 32.53 42.8114 32.9ZM42.1214 31.49C42.2814 31.19 42.2814 31.19 42.6214 31.24C42.4614 31.54 42.4614 31.54 42.1214 31.49ZM43.1114 31.2C43.1414 31.45 42.9914 31.51 42.7714 31.58C42.7614 31.44 42.7514 31.33 42.7414 31.2H43.1114ZM42.6514 30.66C42.5114 30.67 42.3914 30.67 42.2414 30.69V29.92C41.9014 30.13 42.0014 30.37 42.0514 30.69C42.0414 30.7 42.0014 30.75 41.9514 30.8C41.9114 30.77 41.8714 30.74 41.8314 30.7C41.6914 30.8 41.5814 30.88 41.4214 31C41.3514 30.5 41.4114 30.05 41.3714 29.62C41.3114 29.56 41.2514 29.51 41.1614 29.42V30.96C40.8114 31.26 40.7814 31.26 40.4214 31.04C40.5814 30.72 40.4814 30.38 40.5114 30.06C40.5414 29.7 40.6214 29.36 40.6714 29.01C40.7214 28.69 40.9014 28.39 40.8714 28.05C40.8414 27.71 40.9514 27.4 41.0714 27.06C41.5614 27.36 41.8114 27.79 42.0014 28.28C42.1814 28.72 42.2014 29.21 42.4514 29.64C42.5414 29.79 42.4214 30.08 42.3814 30.4C42.4314 30.42 42.5314 30.52 42.6514 30.66ZM42.9614 25.3C42.5514 25.5 42.2414 25.16 41.8814 25.06V24.75C41.9914 24.66 42.1314 24.54 42.2414 24.44V24.16C42.2014 24.15 42.1714 24.13 42.1514 24.15C42.0014 24.26 41.8414 24.37 41.6514 24.51V23.91C41.7114 23.85 41.7914 23.76 41.8714 23.68C41.8314 23.63 41.7814 23.58 41.7714 23.57C41.8314 23.18 41.9714 22.83 42.1214 22.5C42.2614 22.19 42.4214 21.89 42.5314 21.56C42.6514 21.21 42.5414 20.88 42.6514 20.54C42.7014 20.53 42.7514 20.52 42.8114 20.51C42.9914 21.16 43.1014 21.82 43.1214 22.5C43.1314 22.82 43.1314 23.13 43.1014 23.46C42.7714 23.51 42.4614 23.56 42.1514 23.6C42.1414 23.64 42.1214 23.67 42.1114 23.7C42.1914 23.72 42.2714 23.74 42.3414 23.76C42.3214 23.79 42.3114 23.83 42.2914 23.86C42.4314 23.78 42.5714 23.71 42.7314 23.62C42.8414 23.67 42.9614 23.72 43.1414 23.8C43.0814 24.27 43.0214 24.78 42.9614 25.3ZM49.7114 21.05C49.7214 21.04 49.7414 21.02 49.7514 21.01C49.7814 21.04 49.8114 21.07 49.8414 21.11C49.8314 21.11 49.8314 21.12 49.8314 21.12C49.8314 21.11 49.8414 21.11 49.8414 21.11C49.7714 21.11 49.7414 21.08 49.7114 21.05ZM49.8114 21.14C49.8714 21.15 49.9014 21.17 49.9314 21.2L49.8914 21.24C49.8614 21.21 49.8314 21.17 49.8114 21.14ZM48.1114 24.72H47.3114C46.9314 24.94 46.5914 25.14 46.1414 25.1C45.9414 25.08 45.7314 25.19 45.5114 25.21C45.3014 25.24 45.0914 25.27 44.8814 25.32C44.3414 25.45 43.8814 25.18 43.4614 24.76C43.5314 24.46 43.5814 24.2 43.6514 23.88C43.7114 23.83 43.8214 23.73 43.9614 23.61H44.4614C45.0014 23.61 45.5514 23.69 46.0614 23.59C47.0614 23.39 48.0514 23.54 49.0414 23.48C49.1214 23.48 49.2014 23.48 49.3314 23.48C48.9914 24 48.6714 24.45 48.1114 24.72ZM49.3314 24.54C49.5614 24.4 49.7814 24.25 50.1214 24.04C49.9714 24.55 49.6514 24.54 49.3314 24.54ZM51.1814 24.07H50.9314V24H51.1814V24.07ZM52.0814 28.7C52.0714 28.48 52.0414 28.31 52.0114 28.18V28.17C51.9914 28.1 51.9614 27.94 51.8914 27.75C51.8014 27.49 51.7114 27.3 51.7114 27.28C51.7214 27.28 51.7714 27.42 51.9014 27.57C51.9414 27.62 51.9514 27.62 52.0014 27.69C52.0414 27.74 52.1014 27.81 52.1514 27.9C52.1814 27.95 52.2214 28.03 52.2614 28.12C52.2414 28.2 52.2214 28.3 52.1914 28.4C52.1614 28.51 52.1214 28.61 52.0814 28.7ZM48.8014 44.92C48.8014 44.93 48.7914 44.94 48.7914 44.95C48.7814 44.99 48.7614 45.03 48.7414 45.07C48.7314 45.09 48.7214 45.11 48.7114 45.14C48.6814 45.2 48.6914 45.28 48.7014 45.35C48.7814 45.34 48.8514 45.33 48.9314 45.33C48.9514 45.25 48.9614 45.16 48.9614 45.07V44.94C48.9114 44.94 48.8514 44.93 48.8014 44.92ZM37.7014 43.81C37.7014 43.8 37.6914 43.8 37.6914 43.8C37.0714 43.66 36.4614 43.52 35.8714 43.38L35.6014 43.53C35.6214 43.53 35.6414 43.53 35.6614 43.53C35.5314 43.59 35.4014 43.66 35.2614 43.72C35.2514 43.72 35.2514 43.73 35.2414 43.73C35.2214 43.74 35.2014 43.75 35.1814 43.76C35.2014 43.79 35.2214 43.81 35.2414 43.84C35.2614 43.86 35.2714 43.88 35.2914 43.9C35.2814 43.91 35.2714 43.92 35.2614 43.93C35.2514 43.94 35.2514 43.95 35.2414 43.95C35.2214 43.98 35.1914 44 35.1614 44.03C35.1514 44.04 35.1414 44.05 35.1314 44.06C35.1314 44.07 35.1214 44.07 35.1214 44.07H34.8314L34.8114 44.09H34.8014L34.3614 44.49C34.6614 44.42 34.9314 44.43 35.2314 44.54C35.3614 44.59 35.5014 44.65 35.6414 44.73C35.4914 44.71 35.3614 44.69 35.2314 44.67C34.8914 44.62 34.5914 44.58 34.2814 44.55L34.1714 44.64L34.2314 44.77C34.5514 44.86 34.8914 44.8 35.2214 44.81C35.3114 44.81 35.4014 44.82 35.5014 44.84C35.5114 44.86 35.5114 44.88 35.5114 44.9C35.5214 44.93 35.5214 44.96 35.5314 45H35.5514L35.7914 44.96L35.8714 44.9L36.0614 44.77L36.2314 44.65C36.1714 44.62 36.1014 44.58 36.0414 44.54C36.1514 44.55 36.2514 44.56 36.3614 44.57L36.8714 44.23C36.8914 44.19 36.9114 44.17 36.9414 44.14C37.1514 43.89 37.4714 43.95 37.8014 43.94C37.7614 43.89 37.7314 43.85 37.7014 43.81ZM34.5714 45.17C34.5114 45.16 34.4614 45.15 34.4114 45.14L34.4314 45.19C34.4714 45.19 34.5014 45.2 34.5314 45.2C34.5614 45.19 34.5914 45.19 34.6214 45.18C34.6114 45.18 34.5814 45.17 34.5714 45.17ZM21.0314 34.1C21.0414 34.11 21.0514 34.13 21.0514 34.14H21.0814C21.0614 34.13 21.0514 34.11 21.0314 34.1ZM49.3914 45.05C49.3914 45.06 49.3914 45.07 49.3914 45.09L49.3814 45.25C49.3814 45.27 49.3814 45.29 49.3814 45.31C49.6114 45.3 49.8314 45.29 50.0614 45.29C50.1914 45.29 50.3314 45.29 50.4614 45.3C50.0914 45.21 49.7414 45.13 49.3914 45.05ZM48.8014 44.92C48.8014 44.93 48.7914 44.94 48.7914 44.95C48.7814 44.99 48.7614 45.03 48.7414 45.07C48.7314 45.09 48.7214 45.11 48.7114 45.14C48.6814 45.2 48.6914 45.28 48.7014 45.35C48.7814 45.34 48.8514 45.33 48.9314 45.33C48.9514 45.25 48.9614 45.16 48.9614 45.07V44.94C48.9114 44.94 48.8514 44.93 48.8014 44.92ZM37.7014 43.81C37.7014 43.8 37.6914 43.8 37.6914 43.8C37.0714 43.66 36.4614 43.52 35.8714 43.38L35.6014 43.53C35.6214 43.53 35.6414 43.53 35.6614 43.53C35.5314 43.59 35.4014 43.66 35.2614 43.72C35.2514 43.72 35.2514 43.73 35.2414 43.73C35.2214 43.74 35.2014 43.75 35.1814 43.76C35.2014 43.79 35.2214 43.81 35.2414 43.84C35.2614 43.86 35.2714 43.88 35.2914 43.9C35.2814 43.91 35.2714 43.92 35.2614 43.93C35.2514 43.94 35.2514 43.95 35.2414 43.95C35.2214 43.98 35.1914 44 35.1614 44.03C35.1514 44.04 35.1414 44.05 35.1314 44.06C35.1314 44.07 35.1214 44.07 35.1214 44.07H34.8314L34.8114 44.09H34.8014L34.3614 44.49C34.6614 44.42 34.9314 44.43 35.2314 44.54C35.3614 44.59 35.5014 44.65 35.6414 44.73C35.4914 44.71 35.3614 44.69 35.2314 44.67C34.8914 44.62 34.5914 44.58 34.2814 44.55L34.1714 44.64L34.2314 44.77C34.5514 44.86 34.8914 44.8 35.2214 44.81C35.3114 44.81 35.4014 44.82 35.5014 44.84C35.5114 44.86 35.5114 44.88 35.5114 44.9C35.5214 44.93 35.5214 44.96 35.5314 45H35.5514L36.0514 44.78L36.2214 44.66C36.1614 44.63 36.0914 44.59 36.0314 44.55C36.1414 44.56 36.2414 44.57 36.3514 44.58L36.8614 44.24C36.8814 44.2 36.9014 44.18 36.9314 44.15C37.1414 43.9 37.4614 43.96 37.7914 43.95C37.7614 43.89 37.7314 43.85 37.7014 43.81ZM21.0314 34.1C21.0414 34.11 21.0514 34.13 21.0514 34.14H21.0814C21.0614 34.13 21.0514 34.11 21.0314 34.1ZM34.5714 45.17C34.5114 45.16 34.4614 45.15 34.4114 45.14L34.4314 45.19C34.4714 45.19 34.5014 45.2 34.5314 45.2C34.5614 45.19 34.5914 45.19 34.6214 45.18C34.6114 45.18 34.5814 45.17 34.5714 45.17ZM21.0314 34.1C21.0414 34.11 21.0514 34.13 21.0514 34.14H21.0814C21.0614 34.13 21.0514 34.11 21.0314 34.1ZM34.5714 45.17C34.5114 45.16 34.4614 45.15 34.4114 45.14L34.4314 45.19C34.4714 45.19 34.5014 45.2 34.5314 45.2C34.5614 45.19 34.5914 45.19 34.6214 45.18C34.6114 45.18 34.5814 45.17 34.5714 45.17ZM21.0314 34.1C21.0414 34.11 21.0514 34.13 21.0514 34.14H21.0814C21.0614 34.13 21.0514 34.11 21.0314 34.1ZM34.5714 45.17C34.5114 45.16 34.4614 45.15 34.4114 45.14L34.4314 45.19C34.4714 45.19 34.5014 45.2 34.5314 45.2C34.5614 45.19 34.5914 45.19 34.6214 45.18C34.6114 45.18 34.5814 45.17 34.5714 45.17ZM21.0314 34.1C21.0414 34.11 21.0514 34.13 21.0514 34.14H21.0814C21.0614 34.13 21.0514 34.11 21.0314 34.1ZM13.1014 51.73L13.1714 51.74C13.1514 51.74 13.1314 51.74 13.1014 51.73ZM13.0314 52.08C13.0614 52.08 13.0814 52.08 13.1114 52.09C13.1114 52.08 13.1214 52.08 13.1214 52.08V52.07C13.0914 52.07 13.0614 52.08 13.0314 52.08ZM34.5714 45.17C34.5114 45.16 34.4614 45.15 34.4114 45.14L34.4314 45.19C34.4714 45.19 34.5014 45.2 34.5314 45.2C34.5614 45.19 34.5914 45.19 34.6214 45.18C34.6114 45.18 34.5814 45.17 34.5714 45.17ZM21.0314 34.1C21.0414 34.11 21.0514 34.13 21.0514 34.14H21.0814C21.0614 34.13 21.0514 34.11 21.0314 34.1ZM34.5714 45.17C34.5114 45.16 34.4614 45.15 34.4114 45.14L34.4314 45.19C34.4714 45.19 34.5014 45.2 34.5314 45.2C34.5614 45.19 34.5914 45.19 34.6214 45.18C34.6114 45.18 34.5814 45.17 34.5714 45.17ZM21.0314 34.1C21.0414 34.11 21.0514 34.13 21.0514 34.14H21.0814C21.0614 34.13 21.0514 34.11 21.0314 34.1ZM34.5714 45.17C34.5114 45.16 34.4614 45.15 34.4114 45.14L34.4314 45.19C34.4714 45.19 34.5014 45.2 34.5314 45.2C34.5614 45.19 34.5914 45.19 34.6214 45.18C34.6114 45.18 34.5814 45.17 34.5714 45.17ZM21.0314 34.1C21.0414 34.11 21.0514 34.13 21.0514 34.14H21.0814C21.0614 34.13 21.0514 34.11 21.0314 34.1ZM34.5714 45.17C34.5114 45.16 34.4614 45.15 34.4114 45.14L34.4314 45.19C34.4714 45.19 34.5014 45.2 34.5314 45.2C34.5614 45.19 34.5914 45.19 34.6214 45.18C34.6114 45.18 34.5814 45.17 34.5714 45.17ZM21.0314 34.1C21.0414 34.11 21.0514 34.13 21.0514 34.14H21.0814C21.0614 34.13 21.0514 34.11 21.0314 34.1ZM34.5714 45.17C34.5114 45.16 34.4614 45.15 34.4114 45.14L34.4314 45.19C34.4714 45.19 34.5014 45.2 34.5314 45.2C34.5614 45.19 34.5914 45.19 34.6214 45.18C34.6114 45.18 34.5814 45.17 34.5714 45.17ZM21.0314 34.1C21.0414 34.11 21.0514 34.13 21.0514 34.14H21.0814C21.0614 34.13 21.0514 34.11 21.0314 34.1ZM34.5714 45.17C34.5114 45.16 34.4614 45.15 34.4114 45.14L34.4314 45.19C34.4714 45.19 34.5014 45.2 34.5314 45.2C34.5614 45.19 34.5914 45.19 34.6214 45.18C34.6114 45.18 34.5814 45.17 34.5714 45.17ZM34.5714 45.17C34.5114 45.16 34.4614 45.15 34.4114 45.14L34.4314 45.19C34.4714 45.19 34.5014 45.2 34.5314 45.2C34.5614 45.19 34.5914 45.19 34.6214 45.18C34.6114 45.18 34.5814 45.17 34.5714 45.17ZM16.5714 37.75C16.4914 37.71 16.4214 37.68 16.3414 37.65C16.3414 37.65 16.3414 37.65 16.3314 37.65C16.3214 37.65 16.3214 37.65 16.3214 37.65C16.2314 37.67 16.1414 37.76 16.0614 37.95C16.2814 37.92 16.4914 37.89 16.6914 37.87C16.6514 37.83 16.6114 37.79 16.5714 37.75Z" fill="black"/>
<path d="M62.6998 47.52C62.6698 47.59 62.6398 47.67 62.5998 47.74C61.8098 47.87 60.8198 47.96 59.6998 47.9C57.8798 47.8 56.4098 47.34 55.3998 46.94C55.3898 46.94 55.3898 46.94 55.3798 46.94C54.2298 46.61 53.0698 46.28 51.8998 46.12C51.3698 46.05 50.8398 46.03 50.3298 46.05H50.3198C49.9798 46.06 49.6398 46.1 49.2998 46.14C49.2498 46.15 49.1898 46.16 49.1398 46.16C49.0898 46.17 49.0398 46.18 48.9798 46.19C48.9598 46.19 48.9398 46.2 48.9198 46.2C47.9398 46.36 46.9698 46.64 46.0098 46.93C44.1898 47.48 42.3598 47.83 40.4298 47.84C39.8898 47.72 39.3398 47.63 38.7998 47.56C38.0298 47.47 37.2798 47.46 36.5198 47.5C35.7498 47.35 34.9998 47.16 34.2398 46.93C34.1498 46.9 34.0698 46.88 33.9798 46.85C33.8798 46.82 33.7698 46.79 33.6698 46.76C33.3598 46.67 33.0498 46.58 32.7398 46.5C32.6998 46.49 32.6598 46.48 32.6298 46.47C32.5998 46.46 32.5798 46.46 32.5598 46.45C31.1998 46.11 29.8198 45.91 28.3798 46.11C27.0598 46.29 25.7598 46.69 24.4598 47.06H24.4498C24.4398 47.06 24.4398 47.06 24.4398 47.06C23.3498 47.37 22.2598 47.67 21.1698 47.83C20.4498 47.71 19.7298 47.61 19.0098 47.54C20.1898 47.45 21.3398 47.2 22.4798 46.9C23.0198 46.76 23.5498 46.6 24.0798 46.45C25.6298 46 27.1798 45.55 28.7698 45.37C29.7098 45.26 30.6498 45.27 31.5798 45.35C32.2898 45.41 32.9998 45.51 33.7098 45.62C33.7498 45.63 33.7898 45.63 33.8298 45.64C33.8998 45.65 33.9698 45.66 34.0398 45.68C36.0598 46.01 38.0898 46.44 40.1498 46.4C42.5598 46.45 44.9198 45.86 47.2898 45.52C47.4798 45.49 47.6698 45.47 47.8498 45.44C48.1298 45.4 48.4198 45.37 48.6998 45.35C48.7798 45.34 48.8498 45.33 48.9298 45.33C49.0798 45.32 49.2198 45.31 49.3698 45.3C49.5998 45.29 49.8198 45.28 50.0498 45.28C50.1798 45.28 50.3198 45.28 50.4498 45.29C50.4498 45.29 50.4498 45.29 50.4598 45.29C50.4598 45.29 50.4598 45.29 50.4698 45.29C50.4698 45.29 50.4698 45.29 50.4798 45.29C50.8298 45.3 51.1698 45.32 51.5198 45.36C53.3498 45.57 55.1198 46.14 56.8998 46.65C57.1698 46.73 57.4498 46.8 57.7298 46.88C58.3098 47.06 58.9698 47.22 59.7098 47.34C60.8398 47.53 61.8598 47.56 62.6998 47.52Z" fill="black"/>
<path d="M50.0313 50.33C49.9713 50.33 49.9213 50.34 49.8613 50.34C49.9213 50.34 49.9913 50.34 50.0513 50.34C50.0413 50.33 50.0413 50.33 50.0313 50.33Z" fill="#7ACFF4"/>
<path d="M5.7207 49.8301C8.4007 49.3701 12.7807 48.6101 12.8207 48.6001C12.8307 48.6001 12.8307 48.6001 12.8307 48.6001C12.8407 48.6001 12.8707 48.5901 12.9007 48.5801C13.1307 48.5301 13.3507 48.4701 13.5807 48.4301C13.5907 48.4301 13.6007 48.4301 13.6107 48.4201C14.3507 48.2601 15.0907 48.1401 15.8507 48.0701C16.8407 47.9801 17.8207 48.0301 18.7907 48.1401C19.5107 48.2201 20.2307 48.3501 20.9407 48.4901C23.0107 48.8901 25.0807 49.4001 27.2007 49.4101C30.2707 49.5601 33.2907 48.6701 36.3307 48.5901C37.0907 48.5701 37.8507 48.6001 38.6107 48.7101C39.1607 48.7901 39.7007 48.9001 40.2407 49.0301C43.0507 49.7201 45.7607 50.9601 48.6607 51.1801C48.8107 51.1901 48.9707 51.2001 49.1207 51.2101C48.2307 51.2201 47.3507 51.3101 46.4607 51.4301C46.2007 51.3901 45.9407 51.3501 45.6907 51.2901C43.4407 50.8301 41.2507 49.8401 38.9907 49.4601C36.9507 49.1101 35.0107 49.5801 33.0907 50.1101C32.1907 50.3501 31.2907 50.5501 30.3807 50.6801C29.7607 50.6401 29.1407 50.6501 28.5107 50.7001C28.5007 50.7001 28.4807 50.7001 28.4707 50.7001C28.0807 50.7401 27.7007 50.7901 27.3207 50.8501C27.2707 50.8501 27.2307 50.8501 27.1807 50.8401C26.3507 50.8301 25.5407 50.7601 24.7407 50.6301C23.5807 50.4501 22.4507 50.1501 21.3207 49.7701C19.4307 49.1401 17.5207 48.5601 15.4607 48.7901C13.3407 49.0301 13.0207 49.5501 9.8607 50.0301C8.2607 50.2701 6.9207 50.3201 6.0207 50.3201C5.9107 50.1101 5.8607 50.0301 5.8307 49.9801C5.8307 49.9701 5.8107 49.9501 5.7907 49.9101C5.7607 49.8801 5.7407 49.8501 5.7207 49.8301Z" fill="black"/>
<path d="M58.8899 53.66C57.4899 53.21 53.7199 52.09 50.0899 52.12C48.9099 52.13 47.7899 52.25 47.7899 52.25C46.6699 52.37 45.2399 52.62 43.3399 53.2C41.1499 53.87 38.9399 54.31 36.5799 54.38C34.2199 54.5 31.9899 54.24 29.7499 53.75C26.0599 52.94 24.1199 53.15 22.9299 53.21C16.9299 53.51 11.9399 57.27 9.75992 55.36C9.68992 55.3 9.54992 55.17 9.41992 54.97C9.61992 54.96 9.92992 54.95 10.2999 54.93C14.2899 54.69 16.3899 53.77 21.9999 52.69C22.2699 52.64 22.6099 52.57 22.9999 52.5C23.1199 52.48 23.2399 52.46 23.3599 52.45C24.0799 52.35 24.7999 52.3 25.5099 52.29C25.9699 52.28 26.4399 52.29 26.8999 52.31C30.0999 52.45 33.2799 53.13 36.5099 52.94C36.9299 52.93 37.3599 52.91 37.7799 52.87C37.7799 52.87 37.7799 52.87 37.7899 52.87C39.9099 52.69 41.9899 52.21 44.0899 51.84C44.3899 51.79 44.6799 51.74 44.9699 51.69C44.9699 51.69 44.9699 51.69 44.9799 51.69C45.6999 51.58 46.4099 51.48 47.1299 51.43C47.3999 51.41 47.6699 51.39 47.9399 51.38C47.9799 51.38 48.0299 51.38 48.0699 51.38H48.0799C48.0999 51.38 48.1299 51.38 48.1499 51.38C48.1899 51.38 49.3799 51.39 49.5799 51.4C50.1399 51.42 54.1399 51.88 59.6099 52.67C59.3899 52.99 59.1399 53.33 58.8899 53.66Z" fill="black"/>
<path d="M13.9209 29.81C13.9509 29.75 13.9409 29.7 13.9209 29.68C13.9209 29.68 13.9009 29.67 13.8809 29.68C13.8809 29.72 13.8809 29.76 13.8809 29.81C13.8909 29.81 13.9009 29.81 13.9209 29.81Z" fill="black"/>
<path d="M34.25 44.78L33.75 45.8L36.08 44.78H34.25Z" fill="black"/>
<path d="M39.4711 42.86L37.8111 43.95L35.8711 43.37L37.3111 42.41C37.6211 42.45 37.9311 42.5 38.2411 42.54C38.6511 42.66 39.0611 42.76 39.4711 42.86Z" fill="black"/>
<path d="M47.6406 44.65L47.7006 45.78L48.9106 45.48L48.8106 44.91C48.6606 44.84 48.4706 44.76 48.2306 44.71C47.9906 44.66 47.7906 44.65 47.6406 44.65Z" fill="black"/>
<path d="M48.9616 44.95C48.9216 45.07 48.8816 45.2 48.8516 45.32C49.0116 45.37 49.1716 45.43 49.3216 45.48C49.3516 45.43 49.3916 45.38 49.4216 45.34C49.4116 45.24 49.4016 45.14 49.3816 45.05L49.3016 44.92L48.9616 44.95Z" fill="black"/>
<path d="M32.9109 46.2001C32.9109 46.2301 32.9209 46.2601 32.9209 46.2901H32.7209C32.7209 46.2701 32.7109 46.2501 32.7109 46.2301C32.7709 46.2201 32.8209 46.2001 32.8709 46.1901C32.8809 46.1901 32.8809 46.1901 32.8809 46.1901H32.8909C32.9009 46.1901 32.9109 46.1801 32.9209 46.1801C32.9109 46.1901 32.9109 46.1901 32.9109 46.2001Z" fill="black"/>
<path d="M34.5699 45.17C34.5899 45.17 34.6099 45.18 34.6299 45.18C34.5999 45.19 34.5699 45.19 34.5399 45.2C34.5099 45.2 34.4699 45.2 34.4399 45.19L34.4199 45.14C34.4499 45.15 34.5099 45.16 34.5699 45.17Z" fill="black"/>
<path d="M35.2416 43.73V43.84C35.2216 43.81 35.2016 43.79 35.1816 43.76C35.2116 43.75 35.2216 43.74 35.2416 43.73Z" fill="black"/>
<path d="M35.1709 44.0301C35.2009 44.0001 35.2209 43.9701 35.2509 43.9501V44.5501C34.9509 44.4401 34.6809 44.4301 34.3809 44.5001L34.8209 44.1001H34.8309L34.8509 44.0801H35.1409C35.1509 44.0801 35.1509 44.0701 35.1509 44.0701C35.1509 44.0501 35.1609 44.0401 35.1709 44.0301Z" fill="black"/>
<path d="M34.3012 44.5601C34.6012 44.6001 34.9012 44.6401 35.2512 44.6801V44.8201C34.9212 44.8101 34.5812 44.8701 34.2612 44.7801L34.2012 44.6501L34.3012 44.5601Z" fill="black"/>
<defs>
<linearGradient id="paint0_linear_11_38" x1="32.9791" y1="0.961417" x2="34.215" y2="66.1656" gradientUnits="userSpaceOnUse">
<stop stop-color="#FFEE25"/>
<stop offset="0.0178" stop-color="#FFE920"/>
<stop offset="0.102" stop-color="#FED60E"/>
<stop offset="0.1886" stop-color="#FDCB04"/>
<stop offset="0.2809" stop-color="#FDC700"/>
<stop offset="0.362" stop-color="#F9B610"/>
<stop offset="0.4926" stop-color="#F4A024"/>
<stop offset="0.6195" stop-color="#F19330"/>
<stop offset="0.7371" stop-color="#F08F34"/>
<stop offset="0.7902" stop-color="#EF8B34"/>
<stop offset="0.8417" stop-color="#ED7F33"/>
<stop offset="0.8924" stop-color="#EA6C32"/>
<stop offset="0.9165" stop-color="#E86031"/>
<stop offset="1" stop-color="#E2312D" stop-opacity="0.8"/>
</linearGradient>
</defs>
</svg>
