<svg width="131" height="52" viewBox="0 0 131 52" fill="none" xmlns="http://www.w3.org/2000/svg">
<path d="M124.786 10.81V15.6C123.476 13.78 121.956 12.41 120.226 11.5C118.496 10.59 116.556 10.13 114.416 10.13C110.706 10.13 107.536 11.47 104.896 14.13C102.256 16.8 100.936 20.01 100.936 23.77C100.936 27.61 102.246 30.86 104.856 33.54C107.476 36.22 110.626 37.56 114.316 37.56C116.396 37.56 118.306 37.12 120.056 36.26C121.806 35.4 123.386 34.11 124.786 32.4V36.88H128.096V10.8H124.786V10.81ZM123.676 29.32C122.786 30.9 121.526 32.16 119.886 33.08C118.236 34 116.496 34.47 114.666 34.47C112.846 34.47 111.136 34 109.546 33.07C107.956 32.14 106.696 30.83 105.756 29.16C104.816 27.48 104.346 25.73 104.346 23.89C104.346 22.04 104.806 20.28 105.746 18.62C106.676 16.96 107.936 15.67 109.516 14.75C111.096 13.83 112.816 13.37 114.686 13.37C117.586 13.37 120.036 14.39 122.026 16.41C124.016 18.44 125.006 20.96 125.006 23.98C124.996 25.96 124.556 27.74 123.676 29.32Z" fill="white"/>
<path d="M4.70586 0.810005C4.16586 0.270005 3.50586 0 2.74586 0C1.99586 0 1.35586 0.270005 0.815857 0.810005C0.275857 1.36001 0.00585938 2.01001 0.00585938 2.78001C0.00585938 3.53001 0.275857 4.18 0.815857 4.72C1.35586 5.27 2.00586 5.53001 2.74586 5.53001C3.50586 5.53001 4.16586 5.26 4.70586 4.72C5.24586 4.18 5.51586 3.53001 5.51586 2.78001C5.51586 2.01001 5.24586 1.36001 4.70586 0.810005ZM1.07586 10.74V36.82H4.43586V10.74H1.07586Z" fill="white"/>
<path d="M34.6358 10.0699C33.4058 10.0699 32.2258 10.4399 31.0858 11.1899C29.9458 11.9299 28.8758 13.06 27.8458 14.56V10.7499H24.4258V36.8299H27.8458V28.01C27.8458 23.49 28.0558 20.4899 28.4758 18.9999C29.0158 17.0699 29.8058 15.6399 30.8458 14.7199C31.8858 13.7999 32.9658 13.34 34.0858 13.34C34.5658 13.34 35.1558 13.4899 35.8558 13.7899L37.6058 10.96C36.5458 10.36 35.5558 10.0699 34.6358 10.0699Z" fill="white"/>
<path d="M88.3652 15.2499C87.6952 13.6199 86.6752 12.3499 85.2952 11.4399C83.9152 10.5299 82.3252 10.0699 80.5152 10.0699C78.5852 10.0699 76.7852 10.6 75.1152 11.66C73.4352 12.72 72.0452 14.2799 70.9252 16.3299C70.3952 14.7999 69.7752 13.6199 69.0552 12.7999C68.3352 11.9799 67.4052 11.3199 66.2752 10.8199C65.1352 10.3199 63.9352 10.0699 62.6752 10.0699C60.8052 10.0699 59.0252 10.5799 57.3252 11.6099C56.0852 12.3799 54.8952 13.5899 53.7252 15.2499V10.74H50.3652V36.82H53.7252V25.77C53.7252 22.51 54.0552 20.0899 54.6952 18.4999C55.3452 16.9199 56.3352 15.6599 57.6852 14.7299C59.0352 13.7999 60.4852 13.3299 62.0352 13.3299C63.3752 13.3299 64.5352 13.67 65.5152 14.35C66.4852 15.03 67.1752 15.93 67.5652 17.06C67.9552 18.19 68.1452 20.3199 68.1452 23.4699V36.82H71.5052V26.6099C71.5052 22.8699 71.8152 20.2 72.4352 18.6C73.0552 17.01 74.0352 15.73 75.3852 14.77C76.7352 13.81 78.2152 13.3299 79.8352 13.3299C81.1752 13.3299 82.3252 13.6499 83.2852 14.2899C84.2452 14.9299 84.9252 15.7699 85.3252 16.8199C85.7252 17.8599 85.9252 19.7799 85.9252 22.5799V36.82H89.3552V22.5799C89.3652 19.3199 89.0352 16.8799 88.3652 15.2499Z" fill="white"/>
<path d="M0.89719 48.5266V41.2357H1.79438V48.5266H0.89719ZM3.37985 48.5266V43.0919H4.22548L4.26673 43.9169C4.39048 43.7175 4.5486 43.5525 4.7411 43.4219C4.93361 43.2913 5.14329 43.195 5.37017 43.1332C5.60392 43.0644 5.8308 43.03 6.0508 43.03C6.58017 43.03 6.99267 43.14 7.2883 43.36C7.5908 43.58 7.80393 43.8791 7.92768 44.2572C8.0583 44.6285 8.12361 45.0513 8.12361 45.5257V48.5266H7.24705V45.7629C7.24705 45.5085 7.22986 45.2644 7.19549 45.0307C7.16799 44.7969 7.10611 44.5872 7.00986 44.4016C6.92049 44.216 6.78986 44.0716 6.61799 43.9685C6.44611 43.8585 6.2158 43.8035 5.92705 43.8035C5.56954 43.8035 5.26361 43.9032 5.00923 44.1025C4.76173 44.3019 4.57267 44.57 4.44204 44.9069C4.31829 45.2438 4.25642 45.6219 4.25642 46.0413V48.5266H3.37985ZM11.4527 48.5885C11.2052 48.5885 10.9543 48.5644 10.6999 48.5163C10.4524 48.4682 10.2186 48.3857 9.99864 48.2688C9.78552 48.1519 9.60677 47.9938 9.46239 47.7944C9.31801 47.595 9.2252 47.3475 9.18395 47.0519H10.0708C10.1396 47.2375 10.2496 47.3888 10.4008 47.5057C10.559 47.6157 10.7343 47.6947 10.9268 47.7429C11.1261 47.791 11.3152 47.815 11.494 47.815C11.604 47.815 11.7311 47.8082 11.8755 47.7944C12.0199 47.7807 12.1574 47.7497 12.288 47.7016C12.4255 47.6466 12.5355 47.5675 12.618 47.4644C12.7074 47.3613 12.7521 47.2169 12.7521 47.0313C12.7521 46.8938 12.7211 46.7804 12.6593 46.691C12.5974 46.6016 12.5115 46.5294 12.4015 46.4744C12.2915 46.4125 12.1574 46.3679 11.9993 46.3404C11.6761 46.2716 11.329 46.2063 10.9577 46.1444C10.5933 46.0825 10.2702 45.9657 9.98833 45.7938C9.89208 45.7319 9.8027 45.6632 9.7202 45.5875C9.64458 45.505 9.57927 45.4157 9.52427 45.3194C9.46927 45.2163 9.42458 45.1063 9.3902 44.9894C9.3627 44.8657 9.34895 44.7316 9.34895 44.5872C9.34895 44.3191 9.40051 44.0888 9.50364 43.8963C9.61364 43.6969 9.76489 43.5353 9.95739 43.4116C10.1499 43.281 10.3699 43.1847 10.6174 43.1228C10.8718 43.061 11.1433 43.03 11.4321 43.03C11.7896 43.03 12.1093 43.0885 12.3911 43.2053C12.6799 43.3153 12.9171 43.4803 13.1027 43.7003C13.2883 43.9135 13.3983 44.1782 13.4327 44.4944H12.618C12.5699 44.295 12.4393 44.1335 12.2261 44.0097C12.013 43.8791 11.7415 43.8138 11.4115 43.8138C11.3015 43.8138 11.1777 43.8241 11.0402 43.8447C10.9027 43.8585 10.7721 43.8928 10.6483 43.9478C10.5246 43.996 10.4215 44.0716 10.339 44.1747C10.2565 44.271 10.2152 44.4016 10.2152 44.5666C10.2152 44.7179 10.253 44.845 10.3286 44.9482C10.4111 45.0513 10.5246 45.1338 10.669 45.1957C10.8133 45.2575 10.9783 45.3091 11.164 45.3504C11.4046 45.3985 11.6693 45.45 11.958 45.505C12.2468 45.5532 12.4736 45.6047 12.6386 45.6597C12.8586 45.7285 13.0408 45.8247 13.1852 45.9485C13.3365 46.0722 13.4465 46.22 13.5152 46.3919C13.5908 46.5638 13.6287 46.7632 13.6287 46.99C13.6287 47.3132 13.5633 47.5779 13.4327 47.7841C13.309 47.9904 13.1405 48.1519 12.9274 48.2688C12.7143 48.3857 12.4771 48.4682 12.2158 48.5163C11.9615 48.5644 11.7071 48.5885 11.4527 48.5885ZM16.8258 48.5266C16.4133 48.5266 16.0798 48.4647 15.8255 48.341C15.578 48.2172 15.3958 48.0247 15.2789 47.7635C15.1689 47.5022 15.1139 47.1722 15.1139 46.7735V43.8653H14.227V43.0919H15.1139V41.4728H15.9905V43.0919H17.4445V43.8653H15.9905V46.6807C15.9905 47.0519 16.0558 47.3269 16.1864 47.5057C16.3239 47.6775 16.5989 47.7635 17.0114 47.7635H17.4136V48.5266H16.8258ZM18.4357 48.5266V43.0919H19.3123V48.5266H18.4357ZM18.8689 42.2875C18.6901 42.2875 18.5457 42.2325 18.4357 42.1225C18.3326 42.0125 18.2811 41.8716 18.2811 41.6997C18.2811 41.5278 18.3361 41.3903 18.4461 41.2872C18.5561 41.1772 18.697 41.1222 18.8689 41.1222C19.027 41.1222 19.1645 41.1772 19.2814 41.2872C19.4051 41.3972 19.467 41.5347 19.467 41.6997C19.467 41.8716 19.4086 42.0125 19.2917 42.1225C19.1748 42.2325 19.0339 42.2875 18.8689 42.2875ZM22.7335 48.5885C22.1629 48.5885 21.7607 48.4338 21.5269 48.1244C21.3 47.815 21.1866 47.375 21.1866 46.8044V43.8653H20.2997V43.0919H21.1866V41.4625H22.0632V43.0919H23.7338V43.8653H22.0632V46.691C22.0632 46.8972 22.0804 47.0863 22.1147 47.2582C22.1491 47.4232 22.2213 47.5572 22.3313 47.6604C22.4413 47.7566 22.6063 47.8082 22.8263 47.815C22.9844 47.815 23.1219 47.7875 23.2388 47.7325C23.3626 47.6775 23.4657 47.6122 23.5482 47.5366L23.9297 48.176C23.8129 48.2722 23.6891 48.3513 23.5585 48.4132C23.4347 48.475 23.3041 48.5197 23.1666 48.5472C23.036 48.5747 22.8916 48.5885 22.7335 48.5885ZM27.0491 48.5885C26.2997 48.5885 25.7291 48.3891 25.3372 47.9904C24.9522 47.5916 24.7597 46.9797 24.7597 46.1547V43.0919H25.6363V46.1135C25.6363 46.471 25.6879 46.7769 25.791 47.0313C25.8941 47.2857 26.0488 47.4816 26.2551 47.6191C26.4682 47.7497 26.7329 47.815 27.0491 47.815C27.3791 47.815 27.6507 47.7497 27.8638 47.6191C28.0769 47.4816 28.2316 47.2857 28.3279 47.0313C28.431 46.7769 28.4826 46.471 28.4826 46.1135V43.0919H29.3591V46.1547C29.3591 46.9797 29.1598 47.5916 28.761 47.9904C28.3691 48.3891 27.7985 48.5885 27.0491 48.5885ZM32.764 48.5885C32.1934 48.5885 31.7912 48.4338 31.5575 48.1244C31.3306 47.815 31.2172 47.375 31.2172 46.8044V43.8653H30.3303V43.0919H31.2172V41.4625H32.0937V43.0919H33.7643V43.8653H32.0937V46.691C32.0937 46.8972 32.1109 47.0863 32.1453 47.2582C32.1797 47.4232 32.2518 47.5572 32.3618 47.6604C32.4718 47.7566 32.6368 47.8082 32.8568 47.815C33.015 47.815 33.1525 47.7875 33.2693 47.7325C33.3931 47.6775 33.4962 47.6122 33.5787 47.5366L33.9603 48.176C33.8434 48.2722 33.7197 48.3513 33.589 48.4132C33.4653 48.475 33.3347 48.5197 33.1972 48.5472C33.0665 48.5747 32.9222 48.5885 32.764 48.5885ZM39.8592 48.5885C39.1098 48.5885 38.5392 48.3891 38.1473 47.9904C37.7623 47.5916 37.5698 46.9797 37.5698 46.1547V43.0919H38.4464V46.1135C38.4464 46.471 38.498 46.7769 38.6011 47.0313C38.7042 47.2857 38.8589 47.4816 39.0652 47.6191C39.2783 47.7497 39.543 47.815 39.8592 47.815C40.1892 47.815 40.4608 47.7497 40.6739 47.6191C40.887 47.4816 41.0417 47.2857 41.138 47.0313C41.2411 46.7769 41.2927 46.471 41.2927 46.1135V43.0919H42.1692V46.1547C42.1692 46.9797 41.9698 47.5916 41.5711 47.9904C41.1792 48.3891 40.6086 48.5885 39.8592 48.5885ZM46.518 48.5266V41.2357H49.2509C49.6565 41.2357 50.0174 41.2769 50.3337 41.3594C50.6568 41.4419 50.9318 41.5725 51.1587 41.7513C51.3856 41.93 51.5574 42.1672 51.6743 42.4628C51.7981 42.7516 51.8599 43.1022 51.8599 43.5147C51.8599 43.9203 51.7843 44.2675 51.6331 44.5563C51.4818 44.8382 51.2824 45.0685 51.0349 45.2472C50.7874 45.426 50.5193 45.5566 50.2306 45.6391L51.7568 48.5266H50.7771L49.3231 45.7938H47.4152V48.5266H46.518ZM47.4152 44.9791H48.9621C49.2302 44.9791 49.4812 44.9585 49.7149 44.9172C49.9556 44.876 50.1652 44.8038 50.344 44.7007C50.5296 44.5907 50.674 44.4394 50.7771 44.2469C50.8802 44.0475 50.9352 43.7932 50.9421 43.4838C50.949 43.1332 50.8837 42.8547 50.7462 42.6485C50.6087 42.4353 50.4059 42.2841 50.1377 42.1947C49.8696 42.0985 49.5431 42.0503 49.1581 42.0503H47.4152V44.9791ZM53.0995 48.5266V43.0919H53.9761V48.5266H53.0995ZM53.5327 42.2875C53.3539 42.2875 53.2095 42.2325 53.0995 42.1225C52.9964 42.0125 52.9449 41.8716 52.9449 41.6997C52.9449 41.5278 52.9999 41.3903 53.1099 41.2872C53.2199 41.1772 53.3608 41.1222 53.5327 41.1222C53.6908 41.1222 53.8283 41.1772 53.9452 41.2872C54.0689 41.3972 54.1308 41.5347 54.1308 41.6997C54.1308 41.8716 54.0724 42.0125 53.9555 42.1225C53.8386 42.2325 53.6977 42.2875 53.5327 42.2875ZM57.3354 48.5885C57.0879 48.5885 56.837 48.5644 56.5826 48.5163C56.3351 48.4682 56.1013 48.3857 55.8813 48.2688C55.6682 48.1519 55.4895 47.9938 55.3451 47.7944C55.2007 47.595 55.1079 47.3475 55.0667 47.0519H55.9535C56.0223 47.2375 56.1323 47.3888 56.2835 47.5057C56.4417 47.6157 56.617 47.6947 56.8095 47.7429C57.0088 47.791 57.1979 47.815 57.3767 47.815C57.4867 47.815 57.6138 47.8082 57.7582 47.7944C57.9026 47.7807 58.0401 47.7497 58.1707 47.7016C58.3082 47.6466 58.4182 47.5675 58.5007 47.4644C58.5901 47.3613 58.6348 47.2169 58.6348 47.0313C58.6348 46.8938 58.6038 46.7804 58.542 46.691C58.4801 46.6016 58.3942 46.5294 58.2842 46.4744C58.1742 46.4125 58.0401 46.3679 57.882 46.3404C57.5588 46.2716 57.2117 46.2063 56.8404 46.1444C56.476 46.0825 56.1529 45.9657 55.871 45.7938C55.7748 45.7319 55.6854 45.6632 55.6029 45.5875C55.5273 45.505 55.462 45.4157 55.407 45.3194C55.352 45.2163 55.3073 45.1063 55.2729 44.9894C55.2454 44.8657 55.2317 44.7316 55.2317 44.5872C55.2317 44.3191 55.2832 44.0888 55.3863 43.8963C55.4963 43.6969 55.6476 43.5353 55.8401 43.4116C56.0326 43.281 56.2526 43.1847 56.5001 43.1228C56.7545 43.061 57.026 43.03 57.3148 43.03C57.6723 43.03 57.992 43.0885 58.2738 43.2053C58.5626 43.3153 58.7998 43.4803 58.9854 43.7003C59.171 43.9135 59.281 44.1782 59.3154 44.4944H58.5007C58.4526 44.295 58.322 44.1335 58.1088 44.0097C57.8957 43.8791 57.6242 43.8138 57.2942 43.8138C57.1842 43.8138 57.0604 43.8241 56.9229 43.8447C56.7854 43.8585 56.6548 43.8928 56.531 43.9478C56.4073 43.996 56.3042 44.0716 56.2217 44.1747C56.1392 44.271 56.0979 44.4016 56.0979 44.5666C56.0979 44.7179 56.1357 44.845 56.2113 44.9482C56.2938 45.0513 56.4073 45.1338 56.5517 45.1957C56.696 45.2575 56.861 45.3091 57.0467 45.3504C57.2873 45.3985 57.552 45.45 57.8407 45.505C58.1295 45.5532 58.3563 45.6047 58.5213 45.6597C58.7413 45.7285 58.9235 45.8247 59.0679 45.9485C59.2192 46.0722 59.3292 46.22 59.3979 46.3919C59.4735 46.5638 59.5114 46.7632 59.5114 46.99C59.5114 47.3132 59.446 47.5779 59.3154 47.7841C59.1917 47.9904 59.0232 48.1519 58.8101 48.2688C58.597 48.3857 58.3598 48.4682 58.0985 48.5163C57.8442 48.5644 57.5898 48.5885 57.3354 48.5885ZM60.6023 48.5266V41.2357H61.4789V45.4329H62.4276L64.057 43.0919H65.047L63.232 45.6804L65.2017 48.5266H64.1704L62.5307 46.196H61.4789V48.5266H60.6023ZM68.9458 48.5266V41.2357H70.307L72.4933 45.2472L74.6486 41.2357H75.9789V48.5266H75.0817V42.1844L72.6789 46.6188H72.2664L69.843 42.1844V48.5266H68.9458ZM79.3145 48.5885C79.067 48.5885 78.8263 48.5575 78.5926 48.4957C78.3657 48.4269 78.1595 48.3272 77.9738 48.1966C77.7951 48.0591 77.6507 47.8907 77.5407 47.6913C77.4376 47.485 77.386 47.2479 77.386 46.9797C77.386 46.6704 77.441 46.4091 77.551 46.196C77.6679 45.9829 77.8226 45.8144 78.0151 45.6907C78.2076 45.5669 78.431 45.4775 78.6854 45.4225C78.9398 45.3675 79.2045 45.34 79.4795 45.34H81.0779C81.0779 45.0307 81.0332 44.7625 80.9439 44.5357C80.8614 44.3088 80.7239 44.1335 80.5313 44.0097C80.3388 43.8791 80.0845 43.8138 79.7682 43.8138C79.5757 43.8138 79.397 43.8344 79.232 43.8757C79.067 43.9169 78.926 43.9822 78.8092 44.0716C78.6923 44.161 78.6063 44.2813 78.5513 44.4325H77.6129C77.661 44.185 77.7538 43.9753 77.8913 43.8035C78.0357 43.6247 78.2076 43.4803 78.407 43.3703C78.6132 43.2535 78.8332 43.1675 79.067 43.1125C79.3007 43.0575 79.5345 43.03 79.7682 43.03C80.552 43.03 81.1089 43.2603 81.4389 43.721C81.7689 44.1816 81.9339 44.8038 81.9339 45.5875V48.5266H81.2017L81.1501 47.8357C80.9989 48.0419 80.8167 48.2 80.6035 48.31C80.3904 48.42 80.1704 48.4922 79.9435 48.5266C79.7235 48.5679 79.5138 48.5885 79.3145 48.5885ZM79.397 47.815C79.7407 47.815 80.0363 47.76 80.2838 47.65C80.5382 47.5332 80.7342 47.3647 80.8717 47.1447C81.0092 46.9247 81.0779 46.6566 81.0779 46.3404V46.0722H80.1188C79.892 46.0722 79.6685 46.0757 79.4485 46.0825C79.2285 46.0894 79.0292 46.1169 78.8504 46.165C78.6717 46.2132 78.5273 46.2957 78.4173 46.4125C78.3142 46.5294 78.2626 46.6979 78.2626 46.9179C78.2626 47.1241 78.3142 47.2925 78.4173 47.4232C78.5273 47.5538 78.6682 47.6535 78.8401 47.7222C79.0188 47.7841 79.2045 47.815 79.397 47.815ZM83.2919 48.5266V43.0919H84.1375L84.1788 43.9169C84.3025 43.7175 84.4606 43.5525 84.6531 43.4219C84.8456 43.2913 85.0553 43.195 85.2822 43.1332C85.516 43.0644 85.7428 43.03 85.9628 43.03C86.4922 43.03 86.9047 43.14 87.2003 43.36C87.5028 43.58 87.716 43.8791 87.8397 44.2572C87.9703 44.6285 88.0356 45.0513 88.0356 45.5257V48.5266H87.1591V45.7629C87.1591 45.5085 87.1419 45.2644 87.1075 45.0307C87.08 44.7969 87.0181 44.5872 86.9219 44.4016C86.8325 44.216 86.7019 44.0716 86.53 43.9685C86.3581 43.8585 86.1278 43.8035 85.8391 43.8035C85.4816 43.8035 85.1756 43.9032 84.9213 44.1025C84.6738 44.3019 84.4847 44.57 84.3541 44.9069C84.2303 45.2438 84.1684 45.6219 84.1684 46.0413V48.5266H83.2919ZM91.1276 48.5885C90.8801 48.5885 90.6394 48.5575 90.4057 48.4957C90.1788 48.4269 89.9725 48.3272 89.7869 48.1966C89.6082 48.0591 89.4638 47.8907 89.3538 47.6913C89.2507 47.485 89.1991 47.2479 89.1991 46.9797C89.1991 46.6704 89.2541 46.4091 89.3641 46.196C89.481 45.9829 89.6357 45.8144 89.8282 45.6907C90.0207 45.5669 90.2441 45.4775 90.4985 45.4225C90.7529 45.3675 91.0176 45.34 91.2926 45.34H92.891C92.891 45.0307 92.8463 44.7625 92.7569 44.5357C92.6744 44.3088 92.5369 44.1335 92.3444 44.0097C92.1519 43.8791 91.8976 43.8138 91.5813 43.8138C91.3888 43.8138 91.2101 43.8344 91.0451 43.8757C90.8801 43.9169 90.7391 43.9822 90.6222 44.0716C90.5054 44.161 90.4194 44.2813 90.3644 44.4325H89.426C89.4741 44.185 89.5669 43.9753 89.7044 43.8035C89.8488 43.6247 90.0207 43.4803 90.22 43.3703C90.4263 43.2535 90.6463 43.1675 90.8801 43.1125C91.1138 43.0575 91.3476 43.03 91.5813 43.03C92.3651 43.03 92.9219 43.2603 93.2519 43.721C93.5819 44.1816 93.7469 44.8038 93.7469 45.5875V48.5266H93.0147L92.9632 47.8357C92.8119 48.0419 92.6297 48.2 92.4166 48.31C92.2035 48.42 91.9835 48.4922 91.7566 48.5266C91.5366 48.5679 91.3269 48.5885 91.1276 48.5885ZM91.2101 47.815C91.5538 47.815 91.8494 47.76 92.0969 47.65C92.3513 47.5332 92.5472 47.3647 92.6847 47.1447C92.8222 46.9247 92.891 46.6566 92.891 46.3404V46.0722H91.9319C91.7051 46.0722 91.4816 46.0757 91.2616 46.0825C91.0416 46.0894 90.8422 46.1169 90.6635 46.165C90.4847 46.2132 90.3404 46.2957 90.2304 46.4125C90.1272 46.5294 90.0757 46.6979 90.0757 46.9179C90.0757 47.1241 90.1272 47.2925 90.2304 47.4232C90.3404 47.5538 90.4813 47.6535 90.6532 47.7222C90.8319 47.7841 91.0176 47.815 91.2101 47.815ZM97.4665 50.9604C97.0953 50.9604 96.7515 50.9019 96.4353 50.7851C96.119 50.6751 95.8509 50.4997 95.6309 50.2591C95.4109 50.0185 95.2631 49.7126 95.1875 49.3413H96.095C96.15 49.5476 96.2531 49.7126 96.4044 49.8363C96.5556 49.9601 96.7309 50.046 96.9303 50.0941C97.1297 50.1491 97.3256 50.1766 97.5181 50.1766C97.8894 50.1766 98.1884 50.101 98.4153 49.9497C98.649 49.8054 98.8175 49.6026 98.9206 49.3413C99.0237 49.0869 99.0753 48.7947 99.0753 48.4647V47.7119C98.9584 47.9182 98.8037 48.0866 98.6112 48.2172C98.4187 48.3479 98.209 48.4441 97.9822 48.506C97.7553 48.561 97.5215 48.5885 97.2809 48.5885C96.7309 48.5885 96.2806 48.4682 95.93 48.2275C95.5793 47.98 95.3181 47.65 95.1462 47.2375C94.9812 46.8182 94.8987 46.3472 94.8987 45.8247C94.8987 45.3022 94.9847 44.8313 95.1565 44.4119C95.3284 43.9857 95.5931 43.6488 95.9506 43.4013C96.3081 43.1538 96.7653 43.03 97.3222 43.03C97.6384 43.03 97.9581 43.0885 98.2812 43.2053C98.6044 43.3222 98.869 43.5113 99.0753 43.7725L99.1165 43.0919H99.9519V48.4854C99.9519 48.9941 99.859 49.4341 99.6734 49.8054C99.4947 50.1766 99.2197 50.4619 98.8484 50.6613C98.484 50.8607 98.0234 50.9604 97.4665 50.9604ZM97.4047 47.815C97.769 47.815 98.075 47.7222 98.3225 47.5366C98.57 47.351 98.759 47.1035 98.8897 46.7941C99.0203 46.4847 99.0856 46.1479 99.0856 45.7835C99.0856 45.4054 99.0203 45.0685 98.8897 44.7729C98.7659 44.4772 98.5803 44.2435 98.3328 44.0716C98.0853 43.8997 97.7725 43.8138 97.3944 43.8138C97.0025 43.8138 96.6862 43.9032 96.4456 44.0819C96.2118 44.2607 96.04 44.5013 95.93 44.8038C95.8268 45.1063 95.7753 45.4432 95.7753 45.8144C95.7753 46.1994 95.8303 46.5432 95.9403 46.8457C96.0503 47.1482 96.2256 47.3854 96.4662 47.5572C96.7069 47.7291 97.0197 47.815 97.4047 47.815ZM103.68 48.5885C103.102 48.5885 102.625 48.4716 102.247 48.2379C101.868 47.9972 101.587 47.6672 101.401 47.2479C101.215 46.8285 101.122 46.3507 101.122 45.8144C101.122 45.2713 101.219 44.7935 101.411 44.381C101.611 43.9616 101.899 43.6316 102.277 43.391C102.656 43.1503 103.12 43.03 103.67 43.03C104.096 43.03 104.46 43.1125 104.763 43.2775C105.072 43.4357 105.327 43.6488 105.526 43.9169C105.725 44.185 105.87 44.4807 105.959 44.8038C106.048 45.12 106.086 45.4397 106.073 45.7629C106.066 45.8247 106.059 45.8866 106.052 45.9485C106.052 46.0104 106.048 46.0722 106.042 46.1341H102.009C102.037 46.4504 102.116 46.7357 102.247 46.99C102.377 47.2444 102.563 47.4472 102.803 47.5985C103.044 47.7429 103.343 47.815 103.701 47.815C103.879 47.815 104.058 47.7944 104.237 47.7532C104.423 47.705 104.588 47.626 104.732 47.516C104.883 47.406 104.99 47.2582 105.052 47.0725H105.949C105.866 47.4232 105.712 47.7119 105.485 47.9388C105.258 48.1588 104.986 48.3238 104.67 48.4338C104.354 48.5369 104.024 48.5885 103.68 48.5885ZM102.03 45.371H105.175C105.168 45.0616 105.1 44.79 104.969 44.5563C104.838 44.3225 104.66 44.1403 104.433 44.0097C104.213 43.8791 103.948 43.8138 103.639 43.8138C103.302 43.8138 103.017 43.886 102.783 44.0303C102.556 44.1747 102.381 44.3638 102.257 44.5975C102.133 44.8313 102.057 45.0891 102.03 45.371ZM107.24 48.5266V43.0919H108.086L108.127 43.7416C108.244 43.5766 108.375 43.4425 108.519 43.3394C108.67 43.2363 108.835 43.1607 109.014 43.1125C109.2 43.0575 109.396 43.03 109.602 43.03C109.98 43.03 110.286 43.1125 110.52 43.2775C110.753 43.4357 110.929 43.6453 111.046 43.9066C111.169 43.721 111.31 43.5628 111.468 43.4322C111.633 43.3016 111.816 43.2019 112.015 43.1332C112.221 43.0644 112.448 43.03 112.696 43.03C113.094 43.03 113.414 43.116 113.655 43.2878C113.902 43.4597 114.081 43.6935 114.191 43.9891C114.301 44.2778 114.356 44.6044 114.356 44.9688V48.5266H113.479V45.4122C113.479 45.2335 113.469 45.0513 113.448 44.8657C113.435 44.68 113.393 44.5082 113.325 44.35C113.256 44.185 113.153 44.0544 113.015 43.9582C112.885 43.855 112.699 43.8035 112.458 43.8035C112.232 43.8035 112.039 43.8585 111.881 43.9685C111.73 44.0716 111.606 44.2125 111.51 44.3913C111.413 44.57 111.345 44.7625 111.303 44.9688C111.262 45.1682 111.242 45.3675 111.242 45.5669V48.5266H110.365V45.4019C110.365 45.23 110.355 45.0513 110.334 44.8657C110.32 44.68 110.283 44.5082 110.221 44.35C110.166 44.185 110.069 44.0544 109.932 43.9582C109.801 43.855 109.619 43.8035 109.385 43.8035C109.055 43.8035 108.798 43.8997 108.612 44.0922C108.426 44.2778 108.296 44.5082 108.22 44.7832C108.151 45.0513 108.117 45.316 108.117 45.5772V48.5266H107.24ZM118.041 48.5885C117.463 48.5885 116.986 48.4716 116.608 48.2379C116.229 47.9972 115.948 47.6672 115.762 47.2479C115.576 46.8285 115.483 46.3507 115.483 45.8144C115.483 45.2713 115.58 44.7935 115.772 44.381C115.972 43.9616 116.26 43.6316 116.638 43.391C117.017 43.1503 117.481 43.03 118.031 43.03C118.457 43.03 118.821 43.1125 119.124 43.2775C119.433 43.4357 119.688 43.6488 119.887 43.9169C120.086 44.185 120.231 44.4807 120.32 44.8038C120.409 45.12 120.447 45.4397 120.434 45.7629C120.427 45.8247 120.42 45.8866 120.413 45.9485C120.413 46.0104 120.409 46.0722 120.403 46.1341H116.37C116.398 46.4504 116.477 46.7357 116.608 46.99C116.738 47.2444 116.924 47.4472 117.164 47.5985C117.405 47.7429 117.704 47.815 118.062 47.815C118.24 47.815 118.419 47.7944 118.598 47.7532C118.784 47.705 118.949 47.626 119.093 47.516C119.244 47.406 119.351 47.2582 119.413 47.0725H120.31C120.227 47.4232 120.073 47.7119 119.846 47.9388C119.619 48.1588 119.347 48.3238 119.031 48.4338C118.715 48.5369 118.385 48.5885 118.041 48.5885ZM116.391 45.371H119.536C119.529 45.0616 119.461 44.79 119.33 44.5563C119.199 44.3225 119.021 44.1403 118.794 44.0097C118.574 43.8791 118.309 43.8138 118 43.8138C117.663 43.8138 117.378 43.886 117.144 44.0303C116.917 44.1747 116.742 44.3638 116.618 44.5975C116.494 44.8313 116.418 45.0891 116.391 45.371ZM121.601 48.5266V43.0919H122.447L122.488 43.9169C122.612 43.7175 122.77 43.5525 122.963 43.4219C123.155 43.2913 123.365 43.195 123.592 43.1332C123.825 43.0644 124.052 43.03 124.272 43.03C124.802 43.03 125.214 43.14 125.51 43.36C125.812 43.58 126.025 43.8791 126.149 44.2572C126.28 44.6285 126.345 45.0513 126.345 45.5257V48.5266H125.469V45.7629C125.469 45.5085 125.451 45.2644 125.417 45.0307C125.389 44.7969 125.328 44.5872 125.231 44.4016C125.142 44.216 125.011 44.0716 124.839 43.9685C124.668 43.8585 124.437 43.8035 124.149 43.8035C123.791 43.8035 123.485 43.9032 123.231 44.1025C122.983 44.3019 122.794 44.57 122.664 44.9069C122.54 45.2438 122.478 45.6219 122.478 46.0413V48.5266H121.601ZM129.901 48.5266C129.489 48.5266 129.155 48.4647 128.901 48.341C128.653 48.2172 128.471 48.0247 128.354 47.7635C128.244 47.5022 128.189 47.1722 128.189 46.7735V43.8653H127.302V43.0919H128.189V41.4728H129.066V43.0919H130.52V43.8653H129.066V46.6807C129.066 47.0519 129.131 47.3269 129.262 47.5057C129.399 47.6775 129.674 47.7635 130.087 47.7635H130.489V48.5266H129.901Z" fill="white" fill-opacity="0.98"/>
</svg>
