<svg width="138" height="52" viewBox="0 0 138 52" fill="none" xmlns="http://www.w3.org/2000/svg">
<path d="M132.534 10.7009V15.5009C131.357 13.7801 129.778 12.3726 127.934 11.4009C126.147 10.4574 124.153 9.97612 122.134 10.0009C120.363 9.99632 118.609 10.3481 116.977 11.0353C115.345 11.7225 113.868 12.731 112.634 14.0009C111.367 15.2739 110.369 16.7885 109.699 18.4549C109.029 20.1212 108.7 21.9052 108.734 23.7009C108.695 25.4973 109.02 27.283 109.691 28.9502C110.361 30.6173 111.362 32.1314 112.634 33.4009C113.825 34.7051 115.278 35.7442 116.898 36.4505C118.517 37.1569 120.267 37.5147 122.034 37.5009C124.037 37.4846 126.015 37.0415 127.834 36.2009C129.643 35.2255 131.241 33.8998 132.534 32.3009V36.8009H135.834V10.7009H132.534ZM131.434 29.2009C130.542 30.7937 129.226 32.1088 127.634 33.0009C126.048 33.9033 124.258 34.3852 122.434 34.4009C120.641 34.3861 118.883 33.9035 117.334 33.0009C115.757 32.0433 114.45 30.7014 113.534 29.1009C112.597 27.4931 112.113 25.6616 112.134 23.8009C112.097 21.9383 112.582 20.1027 113.534 18.5009C114.418 16.9358 115.693 15.6265 117.234 14.7009C118.796 13.7424 120.601 13.2562 122.434 13.3009C123.793 13.2614 125.145 13.5081 126.402 14.0249C127.66 14.5417 128.795 15.3172 129.734 16.3009C131.312 18.0138 132.322 20.1725 132.627 22.4817C132.931 24.7908 132.514 27.1376 131.434 29.2009Z" fill="white"/>
<path d="M4.70193 0.801928C4.19933 0.294453 3.51614 0.00679057 2.80193 0.00192461C2.43046 -0.0121083 2.06009 0.050717 1.71403 0.186464C1.36797 0.322212 1.05367 0.527956 0.790812 0.790812C0.527956 1.05367 0.322212 1.36798 0.186464 1.71404C0.050717 2.0601 -0.0121083 2.43046 0.00192461 2.80193C0.00679057 3.51614 0.294453 4.19934 0.801928 4.70193C1.05877 4.97045 1.37018 5.18079 1.71518 5.31879C2.06018 5.45679 2.43075 5.51924 2.80193 5.50192C3.51801 5.50192 4.20477 5.21746 4.71111 4.71111C5.21746 4.20477 5.50192 3.51801 5.50192 2.80193C5.51924 2.43075 5.45679 2.06018 5.31879 1.71518C5.18079 1.37018 4.97044 1.05877 4.70193 0.801928ZM1.10193 10.7019V36.8019H4.50192V10.7019H1.10193Z" fill="white"/>
<path d="M32.8039 10.0023C31.516 9.96609 30.2516 10.3524 29.2039 11.1023C27.8978 11.9837 26.8046 13.1452 26.0039 14.5023V10.6023H22.5039V36.7023H26.0039V27.9023C25.8856 24.8896 26.0867 21.8727 26.6039 18.9023C26.9383 17.2547 27.777 15.7519 29.0039 14.6023C29.8624 13.7584 31.0015 13.2601 32.2039 13.2023C32.8304 13.252 33.4415 13.4218 34.0039 13.7023L35.7039 10.9023C34.8364 10.3456 33.8342 10.0346 32.8039 10.0023Z" fill="white"/>
<path d="M90.7031 15.1036C90.0761 13.5536 88.9956 12.2291 87.6031 11.3036C86.1661 10.407 84.4962 9.95476 82.8031 10.0036C80.8845 9.99111 79.0053 10.5479 77.4031 11.6036C75.6712 12.7675 74.261 14.3497 73.3031 16.2036C72.8609 14.9429 72.2194 13.7612 71.4031 12.7036C70.6178 11.8508 69.6645 11.1699 68.6031 10.7036C67.4674 10.2141 66.2395 9.97535 65.0031 10.0036C63.1005 10.0051 61.234 10.5236 59.6031 11.5036C58.2105 12.4941 56.9937 13.7109 56.0031 15.1036V10.6036H52.7031V36.7036H56.0031V25.7036C55.9139 23.2308 56.2522 20.7612 57.0031 18.4036C57.6542 16.8967 58.6885 15.5866 60.0031 14.6036C61.2976 13.7091 62.8298 13.2216 64.4031 13.2036C65.6096 13.199 66.7912 13.5465 67.8031 14.2036C68.7946 14.8779 69.5334 15.863 69.9031 17.0036C70.4154 19.096 70.6176 21.2524 70.5031 23.4036V36.7036H73.8031V26.5036C73.8031 22.8036 74.1031 20.1036 74.8031 18.5036C75.3542 16.9678 76.3672 15.6404 77.7031 14.7036C78.9979 13.7233 80.5792 13.1962 82.2031 13.2036C83.4158 13.1526 84.6112 13.5042 85.6031 14.2036C86.5582 14.7843 87.296 15.6626 87.7031 16.7036C88.2004 18.5945 88.4028 20.5509 88.3031 22.5036V36.7036H91.7031V22.5036C91.8326 19.9962 91.4934 17.4867 90.7031 15.1036Z" fill="white"/>
<path d="M0.900054 48.532V41.2336H1.79816V48.532H0.900054ZM3.38524 48.532V43.0918H4.23172L4.27301 43.9176C4.39689 43.718 4.55518 43.5529 4.74787 43.4221C4.94057 43.2913 5.15047 43.195 5.37757 43.1331C5.61156 43.0642 5.83867 43.0298 6.05889 43.0298C6.58881 43.0298 7.00173 43.1399 7.29765 43.3602C7.60046 43.5804 7.8138 43.8798 7.93768 44.2583C8.06844 44.6299 8.13382 45.0531 8.13382 45.528V48.532H7.25636V45.7654C7.25636 45.5108 7.23916 45.2665 7.20475 45.0325C7.17722 44.7985 7.11528 44.5886 7.01893 44.4028C6.92947 44.217 6.79871 44.0724 6.62666 43.9692C6.45461 43.8591 6.22406 43.804 5.93502 43.804C5.57715 43.804 5.2709 43.9038 5.01627 44.1034C4.76852 44.303 4.57926 44.5714 4.4485 44.9086C4.32463 45.2458 4.26269 45.6243 4.26269 46.0441V48.532H3.38524ZM11.4663 48.5939C11.2185 48.5939 10.9673 48.5698 10.7127 48.5217C10.465 48.4735 10.231 48.3909 10.0107 48.2739C9.79741 48.1569 9.61847 47.9986 9.47395 47.799C9.32943 47.5995 9.23652 47.3517 9.19523 47.0558H10.083C10.1518 47.2416 10.2619 47.393 10.4133 47.51C10.5716 47.6201 10.7471 47.6993 10.9398 47.7474C11.1394 47.7956 11.3287 47.8197 11.5076 47.8197C11.6177 47.8197 11.745 47.8128 11.8895 47.799C12.0341 47.7853 12.1717 47.7543 12.3025 47.7061C12.4401 47.6511 12.5502 47.5719 12.6328 47.4687C12.7223 47.3655 12.767 47.221 12.767 47.0351C12.767 46.8975 12.736 46.784 12.6741 46.6945C12.6121 46.605 12.5261 46.5328 12.416 46.4777C12.3059 46.4158 12.1717 46.371 12.0134 46.3435C11.69 46.2747 11.3424 46.2093 10.9708 46.1474C10.606 46.0854 10.2826 45.9684 10.0004 45.7964C9.90408 45.7344 9.81461 45.6656 9.73203 45.5899C9.65632 45.5073 9.59095 45.4179 9.53589 45.3215C9.48083 45.2183 9.4361 45.1082 9.40169 44.9912C9.37416 44.8673 9.3604 44.7331 9.3604 44.5886C9.3604 44.3202 9.41201 44.0897 9.51524 43.897C9.62536 43.6974 9.77676 43.5357 9.96946 43.4118C10.1622 43.281 10.3824 43.1847 10.6301 43.1227C10.8848 43.0608 11.1566 43.0298 11.4456 43.0298C11.8035 43.0298 12.1235 43.0883 12.4057 43.2053C12.6947 43.3154 12.9322 43.4806 13.118 43.7008C13.3038 43.9142 13.4139 44.1791 13.4483 44.4957H12.6328C12.5846 44.2961 12.4539 44.1344 12.2405 44.0105C12.0272 43.8798 11.7553 43.8144 11.425 43.8144C11.3149 43.8144 11.191 43.8247 11.0534 43.8453C10.9157 43.8591 10.785 43.8935 10.6611 43.9486C10.5372 43.9967 10.434 44.0724 10.3514 44.1757C10.2688 44.272 10.2275 44.4028 10.2275 44.568C10.2275 44.7194 10.2654 44.8467 10.3411 44.9499C10.4237 45.0531 10.5372 45.1357 10.6817 45.1977C10.8263 45.2596 10.9914 45.3112 11.1772 45.3525C11.4181 45.4007 11.6831 45.4523 11.9721 45.5073C12.2612 45.5555 12.4883 45.6071 12.6534 45.6622C12.8737 45.731 13.056 45.8274 13.2006 45.9512C13.352 46.0751 13.4621 46.2231 13.5309 46.3951C13.6066 46.5672 13.6444 46.7667 13.6444 46.9939C13.6444 47.3173 13.5791 47.5823 13.4483 47.7887C13.3244 47.9952 13.1558 48.1569 12.9425 48.2739C12.7291 48.3909 12.4917 48.4735 12.2302 48.5217C11.9756 48.5698 11.7209 48.5939 11.4663 48.5939ZM16.8448 48.532C16.4319 48.532 16.0981 48.47 15.8435 48.3462C15.5957 48.2223 15.4134 48.0296 15.2964 47.7681C15.1863 47.5066 15.1312 47.1762 15.1312 46.7771V43.866H14.2434V43.0918H15.1312V41.4711H16.0087V43.0918H17.4642V43.866H16.0087V46.6842C16.0087 47.0558 16.074 47.3311 16.2048 47.51C16.3424 47.6821 16.6177 47.7681 17.0306 47.7681H17.4332V48.532H16.8448ZM18.4564 48.532V43.0918H19.3339V48.532H18.4564ZM18.89 42.2866C18.711 42.2866 18.5665 42.2315 18.4564 42.1214C18.3532 42.0113 18.3016 41.8702 18.3016 41.6982C18.3016 41.5261 18.3566 41.3885 18.4667 41.2852C18.5768 41.1751 18.7179 41.1201 18.89 41.1201C19.0483 41.1201 19.1859 41.1751 19.3029 41.2852C19.4268 41.3953 19.4887 41.533 19.4887 41.6982C19.4887 41.8702 19.4302 42.0113 19.3132 42.1214C19.1962 42.2315 19.0551 42.2866 18.89 42.2866ZM22.7585 48.5939C22.1873 48.5939 21.7847 48.4391 21.5507 48.1294C21.3236 47.8197 21.2101 47.3792 21.2101 46.808V43.866H20.3223V43.0918H21.2101V41.4607H22.0875V43.0918H23.7599V43.866H22.0875V46.6945C22.0875 46.9009 22.1047 47.0902 22.1391 47.2623C22.1736 47.4274 22.2458 47.5616 22.3559 47.6649C22.466 47.7612 22.6312 47.8128 22.8514 47.8197C23.0097 47.8197 23.1474 47.7922 23.2644 47.7371C23.3882 47.6821 23.4915 47.6167 23.574 47.541L23.956 48.181C23.839 48.2773 23.7151 48.3565 23.5844 48.4184C23.4605 48.4804 23.3297 48.5251 23.1921 48.5526C23.0613 48.5802 22.9168 48.5939 22.7585 48.5939ZM27.0785 48.5939C26.3284 48.5939 25.7572 48.3943 25.3649 47.9952C24.9795 47.596 24.7868 46.9835 24.7868 46.1577V43.0918H25.6643V46.1164C25.6643 46.4743 25.7159 46.7805 25.8191 47.0351C25.9224 47.2898 26.0772 47.4859 26.2837 47.6236C26.497 47.7543 26.762 47.8197 27.0785 47.8197C27.4089 47.8197 27.6807 47.7543 27.8941 47.6236C28.1074 47.4859 28.2622 47.2898 28.3586 47.0351C28.4618 46.7805 28.5134 46.4743 28.5134 46.1164V43.0918H29.3909V46.1577C29.3909 46.9835 29.1913 47.596 28.7922 47.9952C28.3999 48.3943 27.8287 48.5939 27.0785 48.5939ZM32.7993 48.5939C32.228 48.5939 31.8254 48.4391 31.5915 48.1294C31.3644 47.8197 31.2508 47.3792 31.2508 46.808V43.866H30.363V43.0918H31.2508V41.4607H32.1283V43.0918H33.8006V43.866H32.1283V46.6945C32.1283 46.9009 32.1455 47.0902 32.1799 47.2623C32.2143 47.4274 32.2865 47.5616 32.3967 47.6649C32.5068 47.7612 32.6719 47.8128 32.8922 47.8197C33.0504 47.8197 33.1881 47.7922 33.3051 47.7371C33.429 47.6821 33.5322 47.6167 33.6148 47.541L33.9967 48.181C33.8797 48.2773 33.7559 48.3565 33.6251 48.4184C33.5012 48.4804 33.3705 48.5251 33.2328 48.5526C33.1021 48.5802 32.9575 48.5939 32.7993 48.5939ZM39.8087 48.5939C39.2651 48.5939 38.8177 48.4735 38.4667 48.2326C38.1158 47.9849 37.8542 47.6545 37.6822 47.2416C37.5101 46.8218 37.4241 46.3504 37.4241 45.8274C37.4241 45.3043 37.5101 44.8329 37.6822 44.4131C37.8542 43.9864 38.1192 43.6492 38.4771 43.4015C38.8349 43.1537 39.2926 43.0298 39.85 43.0298C40.0634 43.0298 40.2767 43.0574 40.4901 43.1124C40.7103 43.1606 40.9167 43.2397 41.1094 43.3498C41.3021 43.4531 41.4673 43.5941 41.6049 43.7731V41.2336H42.4824V48.532H41.6462L41.6049 47.7165C41.4811 47.9229 41.3228 48.0915 41.1301 48.2223C40.9443 48.3462 40.7378 48.4391 40.5107 48.501C40.2836 48.563 40.0496 48.5939 39.8087 48.5939ZM39.9326 47.8197C40.2974 47.8197 40.6036 47.7268 40.8514 47.541C41.0991 47.3552 41.2884 47.1074 41.4191 46.7977C41.5499 46.488 41.6153 46.1508 41.6153 45.7861C41.6153 45.4076 41.5499 45.0703 41.4191 44.7744C41.2952 44.4785 41.1094 44.2445 40.8617 44.0724C40.6139 43.9004 40.3008 43.8144 39.9223 43.8144C39.53 43.8144 39.2134 43.9038 38.9726 44.0828C38.7386 44.2617 38.5665 44.506 38.4564 44.8157C38.3532 45.1185 38.3016 45.4592 38.3016 45.8377C38.3016 46.113 38.3291 46.371 38.3842 46.6119C38.4461 46.8459 38.539 47.0558 38.6629 47.2416C38.7936 47.4205 38.9622 47.5616 39.1687 47.6649C39.3752 47.7681 39.6298 47.8197 39.9326 47.8197ZM46.1317 48.5939C45.3816 48.5939 44.8104 48.3943 44.4181 47.9952C44.0327 47.596 43.84 46.9835 43.84 46.1577V43.0918H44.7175V46.1164C44.7175 46.4743 44.7691 46.7805 44.8723 47.0351C44.9756 47.2898 45.1304 47.4859 45.3369 47.6236C45.5502 47.7543 45.8152 47.8197 46.1317 47.8197C46.4621 47.8197 46.7339 47.7543 46.9472 47.6236C47.1606 47.4859 47.3154 47.2898 47.4118 47.0351C47.515 46.7805 47.5666 46.4743 47.5666 46.1164V43.0918H48.4441V46.1577C48.4441 46.9835 48.2445 47.596 47.8453 47.9952C47.4531 48.3943 46.8819 48.5939 46.1317 48.5939ZM52.7973 48.532V41.2336H55.5329C55.939 41.2336 56.3003 41.2749 56.6168 41.3575C56.9403 41.4401 57.2156 41.5708 57.4427 41.7498C57.6698 41.9287 57.8418 42.1661 57.9588 42.4621C58.0827 42.7511 58.1446 43.1021 58.1446 43.515C58.1446 43.921 58.0689 44.2686 57.9175 44.5576C57.7661 44.8398 57.5666 45.0703 57.3188 45.2493C57.071 45.4282 56.8026 45.559 56.5136 45.6415L58.0414 48.532H57.0607L55.6052 45.7964H53.6954V48.532H52.7973ZM53.6954 44.9809H55.2439C55.5123 44.9809 55.7635 44.9602 55.9975 44.9189C56.2383 44.8776 56.4482 44.8054 56.6272 44.7021C56.813 44.592 56.9575 44.4406 57.0607 44.2479C57.164 44.0484 57.219 43.7937 57.2259 43.484C57.2328 43.1331 57.1674 42.8543 57.0298 42.6479C56.8921 42.4345 56.6891 42.2831 56.4207 42.1937C56.1523 42.0973 55.8254 42.0491 55.44 42.0491H53.6954V44.9809ZM59.3855 48.532V43.0918H60.2629V48.532H59.3855ZM59.8191 42.2866C59.6401 42.2866 59.4956 42.2315 59.3855 42.1214C59.2823 42.0113 59.2306 41.8702 59.2306 41.6982C59.2306 41.5261 59.2857 41.3885 59.3958 41.2852C59.5059 41.1751 59.647 41.1201 59.8191 41.1201C59.9773 41.1201 60.115 41.1751 60.232 41.2852C60.3559 41.3953 60.4178 41.533 60.4178 41.6982C60.4178 41.8702 60.3593 42.0113 60.2423 42.1214C60.1253 42.2315 59.9842 42.2866 59.8191 42.2866ZM63.6257 48.5939C63.3779 48.5939 63.1267 48.5698 62.8721 48.5217C62.6243 48.4735 62.3903 48.3909 62.1701 48.2739C61.9568 48.1569 61.7779 47.9986 61.6333 47.799C61.4888 47.5995 61.3959 47.3517 61.3546 47.0558H62.2424C62.3112 47.2416 62.4213 47.393 62.5727 47.51C62.731 47.6201 62.9065 47.6993 63.0992 47.7474C63.2988 47.7956 63.488 47.8197 63.667 47.8197C63.7771 47.8197 63.9044 47.8128 64.0489 47.799C64.1934 47.7853 64.3311 47.7543 64.4618 47.7061C64.5995 47.6511 64.7096 47.5719 64.7922 47.4687C64.8816 47.3655 64.9264 47.221 64.9264 47.0351C64.9264 46.8975 64.8954 46.784 64.8335 46.6945C64.7715 46.605 64.6855 46.5328 64.5754 46.4777C64.4653 46.4158 64.3311 46.371 64.1728 46.3435C63.8493 46.2747 63.5018 46.2093 63.1302 46.1474C62.7654 46.0854 62.442 45.9684 62.1598 45.7964C62.0635 45.7344 61.974 45.6656 61.8914 45.5899C61.8157 45.5073 61.7503 45.4179 61.6953 45.3215C61.6402 45.2183 61.5955 45.1082 61.5611 44.9912C61.5335 44.8673 61.5198 44.7331 61.5198 44.5886C61.5198 44.3202 61.5714 44.0897 61.6746 43.897C61.7847 43.6974 61.9361 43.5357 62.1288 43.4118C62.3215 43.281 62.5418 43.1847 62.7895 43.1227C63.0441 43.0608 63.316 43.0298 63.605 43.0298C63.9629 43.0298 64.2829 43.0883 64.5651 43.2053C64.8541 43.3154 65.0915 43.4806 65.2773 43.7008C65.4632 43.9142 65.5733 44.1791 65.6077 44.4957H64.7922C64.744 44.2961 64.6132 44.1344 64.3999 44.0105C64.1866 43.8798 63.9147 43.8144 63.5844 43.8144C63.4743 43.8144 63.3504 43.8247 63.2127 43.8453C63.0751 43.8591 62.9444 43.8935 62.8205 43.9486C62.6966 43.9967 62.5934 44.0724 62.5108 44.1757C62.4282 44.272 62.3869 44.4028 62.3869 44.568C62.3869 44.7194 62.4248 44.8467 62.5005 44.9499C62.583 45.0531 62.6966 45.1357 62.8411 45.1977C62.9856 45.2596 63.1508 45.3112 63.3366 45.3525C63.5775 45.4007 63.8425 45.4523 64.1315 45.5073C64.4205 45.5555 64.6476 45.6071 64.8128 45.6622C65.033 45.731 65.2154 45.8274 65.3599 45.9512C65.5113 46.0751 65.6214 46.2231 65.6903 46.3951C65.766 46.5672 65.8038 46.7667 65.8038 46.9939C65.8038 47.3173 65.7384 47.5823 65.6077 47.7887C65.4838 47.9952 65.3152 48.1569 65.1019 48.2739C64.8885 48.3909 64.6511 48.4735 64.3896 48.5217C64.1349 48.5698 63.8803 48.5939 63.6257 48.5939ZM66.8959 48.532V41.2336H67.7733V45.4351H68.7231L70.3541 43.0918H71.3451L69.5282 45.6828L71.4999 48.532H70.4676L68.8263 46.199H67.7733V48.532H66.8959ZM75.2478 48.532V41.2336H76.6105L78.7989 45.2493L80.9565 41.2336H82.2881V48.532H81.39V42.1833L78.9848 46.6222H78.5718L76.1459 42.1833V48.532H75.2478ZM85.627 48.5939C85.3793 48.5939 85.1384 48.563 84.9044 48.501C84.6773 48.4322 84.4709 48.3324 84.2851 48.2016C84.1061 48.064 83.9616 47.8954 83.8515 47.6958C83.7483 47.4894 83.6966 47.2519 83.6966 46.9835C83.6966 46.6738 83.7517 46.4123 83.8618 46.199C83.9788 45.9856 84.1337 45.817 84.3263 45.6932C84.519 45.5693 84.7427 45.4798 84.9973 45.4248C85.252 45.3697 85.5169 45.3422 85.7922 45.3422H87.3923C87.3923 45.0325 87.3475 44.7641 87.2581 44.537C87.1755 44.3099 87.0379 44.1344 86.8452 44.0105C86.6525 43.8798 86.3978 43.8144 86.0813 43.8144C85.8886 43.8144 85.7096 43.835 85.5445 43.8763C85.3793 43.9176 85.2382 43.983 85.1212 44.0724C85.0042 44.1619 84.9182 44.2823 84.8631 44.4338H83.9238C83.9719 44.186 84.0648 43.9761 84.2025 43.804C84.347 43.6251 84.519 43.4806 84.7186 43.3705C84.9251 43.2535 85.1453 43.1675 85.3793 43.1124C85.6133 43.0574 85.8473 43.0298 86.0813 43.0298C86.8658 43.0298 87.4232 43.2604 87.7536 43.7215C88.0839 44.1826 88.2491 44.8054 88.2491 45.5899V48.532H87.5162L87.4645 47.8403C87.3131 48.0468 87.1308 48.2051 86.9174 48.3152C86.7041 48.4253 86.4839 48.4976 86.2567 48.532C86.0365 48.5733 85.8266 48.5939 85.627 48.5939ZM85.7096 47.8197C86.0537 47.8197 86.3497 47.7646 86.5974 47.6545C86.852 47.5375 87.0482 47.3689 87.1858 47.1487C87.3235 46.9285 87.3923 46.6601 87.3923 46.3435V46.0751H86.4322C86.2051 46.0751 85.9815 46.0785 85.7612 46.0854C85.541 46.0923 85.3414 46.1198 85.1625 46.168C84.9836 46.2162 84.8391 46.2988 84.7289 46.4158C84.6257 46.5328 84.5741 46.7014 84.5741 46.9216C84.5741 47.1281 84.6257 47.2967 84.7289 47.4274C84.8391 47.5582 84.9801 47.658 85.1522 47.7268C85.3311 47.7887 85.5169 47.8197 85.7096 47.8197ZM89.6085 48.532V43.0918H90.455L90.4963 43.9176C90.6201 43.718 90.7784 43.5529 90.9711 43.4221C91.1638 43.2913 91.3737 43.195 91.6008 43.1331C91.8348 43.0642 92.0619 43.0298 92.2822 43.0298C92.8121 43.0298 93.225 43.1399 93.5209 43.3602C93.8237 43.5804 94.0371 43.8798 94.1609 44.2583C94.2917 44.6299 94.3571 45.0531 94.3571 45.528V48.532H93.4796V45.7654C93.4796 45.5108 93.4624 45.2665 93.428 45.0325C93.4005 44.7985 93.3385 44.5886 93.2422 44.4028C93.1527 44.217 93.022 44.0724 92.8499 43.9692C92.6779 43.8591 92.4473 43.804 92.1583 43.804C91.8004 43.804 91.4942 43.9038 91.2395 44.1034C90.9918 44.303 90.8025 44.5714 90.6718 44.9086C90.5479 45.2458 90.486 45.6243 90.486 46.0441V48.532H89.6085ZM97.4521 48.5939C97.2044 48.5939 96.9635 48.563 96.7295 48.501C96.5024 48.4322 96.2959 48.3324 96.1101 48.2016C95.9312 48.064 95.7867 47.8954 95.6766 47.6958C95.5733 47.4894 95.5217 47.2519 95.5217 46.9835C95.5217 46.6738 95.5768 46.4123 95.6869 46.199C95.8039 45.9856 95.9587 45.817 96.1514 45.6932C96.3441 45.5693 96.5678 45.4798 96.8224 45.4248C97.0771 45.3697 97.342 45.3422 97.6173 45.3422H99.2174C99.2174 45.0325 99.1726 44.7641 99.0832 44.537C99.0006 44.3099 98.8629 44.1344 98.6702 44.0105C98.4775 43.8798 98.2229 43.8144 97.9063 43.8144C97.7136 43.8144 97.5347 43.835 97.3695 43.8763C97.2044 43.9176 97.0633 43.983 96.9463 44.0724C96.8293 44.1619 96.7433 44.2823 96.6882 44.4338H95.7488C95.797 44.186 95.8899 43.9761 96.0275 43.804C96.1721 43.6251 96.3441 43.4806 96.5437 43.3705C96.7502 43.2535 96.9704 43.1675 97.2044 43.1124C97.4384 43.0574 97.6723 43.0298 97.9063 43.0298C98.6909 43.0298 99.2483 43.2604 99.5787 43.7215C99.909 44.1826 100.074 44.8054 100.074 45.5899V48.532H99.3412L99.2896 47.8403C99.1382 48.0468 98.9558 48.2051 98.7425 48.3152C98.5292 48.4253 98.3089 48.4976 98.0818 48.532C97.8616 48.5733 97.6517 48.5939 97.4521 48.5939ZM97.5347 47.8197C97.8788 47.8197 98.1747 47.7646 98.4225 47.6545C98.6771 47.5375 98.8733 47.3689 99.0109 47.1487C99.1485 46.9285 99.2174 46.6601 99.2174 46.3435V46.0751H98.2573C98.0302 46.0751 97.8065 46.0785 97.5863 46.0854C97.3661 46.0923 97.1665 46.1198 96.9876 46.168C96.8087 46.2162 96.6641 46.2988 96.554 46.4158C96.4508 46.5328 96.3992 46.7014 96.3992 46.9216C96.3992 47.1281 96.4508 47.2967 96.554 47.4274C96.6641 47.5582 96.8052 47.658 96.9773 47.7268C97.1562 47.7887 97.342 47.8197 97.5347 47.8197ZM103.798 50.9682C103.426 50.9682 103.082 50.9097 102.765 50.7927C102.449 50.6826 102.18 50.5071 101.96 50.2662C101.74 50.0254 101.592 49.7191 101.516 49.3475H102.425C102.48 49.554 102.583 49.7191 102.734 49.843C102.886 49.9669 103.061 50.0529 103.261 50.1011C103.46 50.1561 103.656 50.1837 103.849 50.1837C104.221 50.1837 104.52 50.108 104.747 49.9566C104.981 49.812 105.15 49.609 105.253 49.3475C105.356 49.0929 105.408 48.8004 105.408 48.47V47.7165C105.291 47.9229 105.136 48.0915 104.943 48.2223C104.751 48.3531 104.541 48.4494 104.314 48.5113C104.087 48.5664 103.853 48.5939 103.612 48.5939C103.061 48.5939 102.61 48.4735 102.259 48.2326C101.908 47.9849 101.647 47.6545 101.475 47.2416C101.31 46.8218 101.227 46.3504 101.227 45.8274C101.227 45.3043 101.313 44.8329 101.485 44.4131C101.657 43.9864 101.922 43.6492 102.28 43.4015C102.638 43.1537 103.096 43.0298 103.653 43.0298C103.97 43.0298 104.29 43.0883 104.613 43.2053C104.937 43.3223 105.201 43.5116 105.408 43.7731L105.449 43.0918H106.285V48.4907C106.285 49 106.192 49.4404 106.007 49.812C105.828 50.1837 105.552 50.4693 105.181 50.6688C104.816 50.8684 104.355 50.9682 103.798 50.9682ZM103.736 47.8197C104.1 47.8197 104.407 47.7268 104.654 47.541C104.902 47.3552 105.091 47.1074 105.222 46.7977C105.353 46.488 105.418 46.1508 105.418 45.7861C105.418 45.4076 105.353 45.0703 105.222 44.7744C105.098 44.4785 104.912 44.2445 104.665 44.0724C104.417 43.9004 104.104 43.8144 103.725 43.8144C103.333 43.8144 103.016 43.9038 102.776 44.0828C102.542 44.2617 102.37 44.5026 102.259 44.8054C102.156 45.1082 102.105 45.4454 102.105 45.817C102.105 46.2024 102.16 46.5465 102.27 46.8493C102.38 47.1521 102.555 47.3896 102.796 47.5616C103.037 47.7337 103.35 47.8197 103.736 47.8197ZM110.017 48.5939C109.439 48.5939 108.961 48.4769 108.582 48.2429C108.204 48.0021 107.922 47.6717 107.736 47.2519C107.55 46.8321 107.457 46.3538 107.457 45.817C107.457 45.2734 107.554 44.7951 107.746 44.3821C107.946 43.9623 108.235 43.632 108.613 43.3911C108.992 43.1503 109.456 43.0298 110.007 43.0298C110.434 43.0298 110.798 43.1124 111.101 43.2776C111.411 43.4359 111.666 43.6492 111.865 43.9176C112.065 44.186 112.209 44.4819 112.299 44.8054C112.388 45.122 112.426 45.442 112.412 45.7654C112.405 45.8274 112.398 45.8893 112.392 45.9512C112.392 46.0132 112.388 46.0751 112.381 46.137H108.345C108.373 46.4536 108.452 46.7392 108.582 46.9939C108.713 47.2485 108.899 47.4515 109.14 47.6029C109.381 47.7474 109.68 47.8197 110.038 47.8197C110.217 47.8197 110.396 47.799 110.575 47.7578C110.761 47.7096 110.926 47.6304 111.07 47.5203C111.222 47.4102 111.328 47.2623 111.39 47.0764H112.288C112.206 47.4274 112.051 47.7165 111.824 47.9436C111.597 48.1638 111.325 48.329 111.008 48.4391C110.692 48.5423 110.361 48.5939 110.017 48.5939ZM108.366 45.3731H111.514C111.507 45.0635 111.438 44.7916 111.308 44.5576C111.177 44.3236 110.998 44.1413 110.771 44.0105C110.551 43.8798 110.286 43.8144 109.976 43.8144C109.639 43.8144 109.353 43.8866 109.119 44.0312C108.892 44.1757 108.717 44.3649 108.593 44.5989C108.469 44.8329 108.393 45.091 108.366 45.3731ZM113.581 48.532V43.0918H114.428L114.469 43.7421C114.586 43.5769 114.717 43.4427 114.861 43.3395C115.013 43.2363 115.178 43.1606 115.357 43.1124C115.543 43.0574 115.739 43.0298 115.945 43.0298C116.324 43.0298 116.63 43.1124 116.864 43.2776C117.098 43.4359 117.273 43.6458 117.39 43.9073C117.514 43.7215 117.655 43.5632 117.814 43.4324C117.979 43.3017 118.161 43.2019 118.361 43.1331C118.567 43.0642 118.794 43.0298 119.042 43.0298C119.441 43.0298 119.761 43.1158 120.002 43.2879C120.25 43.4599 120.429 43.6939 120.539 43.9899C120.649 44.2789 120.704 44.6058 120.704 44.9705V48.532H119.827V45.4144C119.827 45.2355 119.816 45.0531 119.796 44.8673C119.782 44.6815 119.741 44.5095 119.672 44.3512C119.603 44.186 119.5 44.0552 119.362 43.9589C119.231 43.8557 119.046 43.804 118.805 43.804C118.578 43.804 118.385 43.8591 118.227 43.9692C118.075 44.0724 117.951 44.2135 117.855 44.3925C117.759 44.5714 117.69 44.7641 117.649 44.9705C117.607 45.1701 117.587 45.3697 117.587 45.5693V48.532H116.709V45.4041C116.709 45.2321 116.699 45.0531 116.678 44.8673C116.664 44.6815 116.627 44.5095 116.565 44.3512C116.51 44.186 116.413 44.0552 116.276 43.9589C116.145 43.8557 115.962 43.804 115.728 43.804C115.398 43.804 115.14 43.9004 114.954 44.0931C114.768 44.2789 114.638 44.5095 114.562 44.7847C114.493 45.0531 114.459 45.3181 114.459 45.5796V48.532H113.581ZM124.393 48.5939C123.815 48.5939 123.337 48.4769 122.958 48.2429C122.579 48.0021 122.297 47.6717 122.112 47.2519C121.926 46.8321 121.833 46.3538 121.833 45.817C121.833 45.2734 121.929 44.7951 122.122 44.3821C122.321 43.9623 122.61 43.632 122.989 43.3911C123.367 43.1503 123.832 43.0298 124.383 43.0298C124.809 43.0298 125.174 43.1124 125.477 43.2776C125.787 43.4359 126.041 43.6492 126.241 43.9176C126.44 44.186 126.585 44.4819 126.674 44.8054C126.764 45.122 126.802 45.442 126.788 45.7654C126.781 45.8274 126.774 45.8893 126.767 45.9512C126.767 46.0132 126.764 46.0751 126.757 46.137H122.721C122.748 46.4536 122.827 46.7392 122.958 46.9939C123.089 47.2485 123.275 47.4515 123.515 47.6029C123.756 47.7474 124.056 47.8197 124.414 47.8197C124.592 47.8197 124.771 47.799 124.95 47.7578C125.136 47.7096 125.301 47.6304 125.446 47.5203C125.597 47.4102 125.704 47.2623 125.766 47.0764H126.664C126.581 47.4274 126.427 47.7165 126.199 47.9436C125.972 48.1638 125.7 48.329 125.384 48.4391C125.067 48.5423 124.737 48.5939 124.393 48.5939ZM122.741 45.3731H125.89C125.883 45.0635 125.814 44.7916 125.683 44.5576C125.553 44.3236 125.374 44.1413 125.146 44.0105C124.926 43.8798 124.661 43.8144 124.352 43.8144C124.014 43.8144 123.729 43.8866 123.495 44.0312C123.268 44.1757 123.092 44.3649 122.968 44.5989C122.844 44.8329 122.769 45.091 122.741 45.3731ZM127.957 48.532V43.0918H128.803L128.845 43.9176C128.968 43.718 129.127 43.5529 129.319 43.4221C129.512 43.2913 129.722 43.195 129.949 43.1331C130.183 43.0642 130.41 43.0298 130.63 43.0298C131.16 43.0298 131.573 43.1399 131.869 43.3602C132.172 43.5804 132.385 43.8798 132.509 44.2583C132.64 44.6299 132.705 45.0531 132.705 45.528V48.532H131.828V45.7654C131.828 45.5108 131.811 45.2665 131.776 45.0325C131.749 44.7985 131.687 44.5886 131.591 44.4028C131.501 44.217 131.37 44.0724 131.198 43.9692C131.026 43.8591 130.796 43.804 130.507 43.804C130.149 43.804 129.842 43.9038 129.588 44.1034C129.34 44.303 129.151 44.5714 129.02 44.9086C128.896 45.2458 128.834 45.6243 128.834 46.0441V48.532H127.957ZM136.265 48.532C135.852 48.532 135.518 48.47 135.264 48.3462C135.016 48.2223 134.834 48.0296 134.717 47.7681C134.606 47.5066 134.551 47.1762 134.551 46.7771V43.866H133.664V43.0918H134.551V41.4711H135.429V43.0918H136.884V43.866H135.429V46.6842C135.429 47.0558 135.494 47.3311 135.625 47.51C135.763 47.6821 136.038 47.7681 136.451 47.7681H136.853V48.532H136.265Z" fill="white"/>
</svg>
